{"glyphs":{"0":{"ha":833,"x_min":0,"x_max":0,"o":"m 740 890 b 825 611 797 825 825 732 b 775 311 825 507 808 407 b 626 76 742 215 692 136 b 388 -14 560 17 481 -14 b 139 83 278 -14 196 18 b 53 361 82 147 53 240 b 103 663 53 465 69 567 b 253 896 136 758 186 836 b 490 986 318 956 397 986 b 740 890 600 986 683 954 m 358 769 b 263 599 318 726 286 669 b 226 367 239 528 226 450 b 232 297 226 340 228 317 l 563 815 b 490 833 542 828 518 833 b 358 769 442 833 399 813 m 521 203 b 617 374 561 246 593 303 b 651 604 640 444 651 522 b 646 674 651 632 650 656 l 315 157 b 388 139 336 144 360 139 b 521 203 436 139 481 160 "},"1":{"ha":833,"x_min":0,"x_max":0,"o":"m 58 167 l 301 167 l 404 694 l 210 694 l 242 861 l 381 861 b 426 875 401 861 417 865 b 447 917 436 883 443 897 l 458 972 l 646 972 l 489 167 l 725 167 l 693 0 l 26 0 "},"2":{"ha":833,"x_min":0,"x_max":0,"o":"m 33 167 l 532 556 b 601 625 561 579 585 601 b 625 701 617 647 625 672 b 589 786 625 735 613 763 b 486 819 564 808 529 819 b 307 681 400 819 340 774 l 119 681 b 254 910 144 782 189 858 b 493 986 319 961 399 986 b 665 953 560 986 617 975 b 775 858 714 929 750 899 b 813 722 800 818 813 774 b 767 560 813 661 797 607 b 639 426 735 513 693 468 l 304 167 l 728 167 l 696 0 l 1 0 "},"3":{"ha":833,"x_min":0,"x_max":0,"o":"m 129 65 b 36 292 67 118 36 193 l 224 292 b 274 190 225 249 242 215 b 390 153 304 165 343 153 b 511 194 440 153 481 167 b 557 299 542 221 557 256 b 521 378 557 329 544 356 b 411 410 497 399 460 410 l 335 410 l 365 569 l 464 569 b 575 606 510 569 547 582 b 617 708 603 629 617 664 b 582 789 617 742 606 768 b 478 819 558 810 524 819 b 365 781 432 819 394 807 b 311 681 336 754 318 721 l 124 681 b 239 901 139 771 176 844 b 482 986 301 958 382 986 b 719 918 583 986 663 964 b 804 736 776 872 804 811 b 753 571 804 669 788 614 b 614 483 718 528 672 499 b 708 406 651 468 683 443 b 744 285 732 368 744 328 b 700 131 744 228 729 176 b 574 25 669 85 628 50 b 390 -14 519 -1 458 -14 b 129 65 278 -14 192 13 "},"4":{"ha":833,"x_min":0,"x_max":0,"o":"m 422 0 l 457 181 l -1 181 l 35 368 l 514 972 l 799 972 l 678 347 l 782 347 l 749 181 l 644 181 l 610 0 m 225 347 l 490 347 l 575 785 l 568 785 "},"5":{"ha":833,"x_min":0,"x_max":0,"o":"m 154 68 b 63 292 93 122 63 196 l 250 292 b 294 192 251 250 265 217 b 403 153 324 165 360 153 b 497 179 438 153 468 161 b 565 250 526 196 549 219 b 590 354 582 281 590 315 b 544 461 590 399 575 435 b 424 500 513 488 472 500 b 329 475 390 500 358 492 b 264 417 299 458 276 439 l 90 417 l 254 972 l 835 972 l 801 806 l 388 806 l 328 611 l 335 611 b 408 649 360 629 385 642 b 486 660 432 656 457 660 b 638 625 543 660 593 649 b 742 525 682 601 717 568 b 778 375 765 482 778 432 b 728 172 778 299 761 231 b 590 35 694 113 649 67 b 396 -14 532 3 467 -14 b 154 68 296 -14 215 14 "},"6":{"ha":833,"x_min":0,"x_max":0,"o":"m 214 21 b 86 124 161 43 118 78 b 36 292 53 169 36 225 b 78 464 36 349 50 407 b 218 667 104 521 151 588 l 474 972 l 694 972 l 425 653 l 432 653 b 478 660 444 657 460 660 b 635 619 538 660 589 646 b 740 510 681 592 715 556 b 778 361 765 464 778 415 b 726 168 778 289 761 225 b 585 35 692 111 644 67 b 383 -14 525 3 457 -14 b 214 21 324 -14 267 -3 m 536 207 b 590 347 572 242 590 289 b 543 460 590 396 575 433 b 417 500 511 486 469 500 b 279 447 361 500 315 482 b 224 306 242 411 224 364 b 271 193 224 257 239 219 b 397 153 303 167 344 153 b 536 207 453 153 499 171 "},"7":{"ha":833,"x_min":0,"x_max":0,"o":"m 118 0 l 621 806 l 161 806 l 194 972 l 868 972 l 835 806 l 332 0 "},"8":{"ha":833,"x_min":0,"x_max":0,"o":"m 213 19 b 89 114 158 42 118 74 b 44 254 60 154 44 200 b 101 421 44 317 64 372 b 243 519 139 469 186 501 b 176 597 214 540 192 567 b 153 694 161 626 153 660 b 196 844 153 750 167 800 b 314 949 224 888 263 922 b 489 986 365 974 424 986 b 669 953 560 986 619 975 b 782 861 718 929 756 899 b 819 732 807 822 819 779 b 772 586 819 679 804 631 b 643 483 740 540 697 507 b 722 404 675 465 701 439 b 753 292 743 369 753 332 b 708 133 753 232 738 179 b 582 25 678 88 636 51 b 399 -14 528 -1 467 -14 b 213 19 328 -14 267 -3 m 590 610 b 632 708 618 636 632 669 b 593 789 632 742 619 768 b 493 819 567 810 533 819 b 382 779 447 819 410 806 b 340 681 354 753 340 719 b 379 601 340 649 353 622 b 479 569 406 581 439 569 b 590 610 525 569 563 583 m 517 196 b 565 299 549 225 565 258 b 522 394 565 339 551 371 b 406 431 493 418 454 431 b 281 388 354 431 313 417 b 232 285 249 358 232 325 b 276 189 232 244 247 213 b 392 153 306 165 343 153 b 517 196 443 153 485 167 "},"9":{"ha":833,"x_min":0,"x_max":0,"o":"m 454 319 l 447 319 b 401 313 435 315 419 313 b 249 351 344 313 294 325 b 140 458 203 378 167 413 b 101 611 114 504 101 554 b 154 806 101 683 119 749 b 296 939 189 863 236 907 b 496 986 356 971 422 986 b 676 947 564 986 624 974 b 800 839 729 921 771 885 b 843 681 829 793 843 740 b 803 510 843 624 829 567 b 661 306 775 453 728 385 l 406 0 l 185 0 m 601 526 b 656 667 638 561 656 608 b 608 779 656 715 640 753 b 482 819 576 806 535 819 b 344 767 426 819 381 801 b 289 625 307 731 289 683 b 336 513 289 576 304 539 b 463 472 368 486 410 472 b 601 526 518 472 564 490 "},"\u0000":{"ha":0,"x_min":0,"x_max":0,"o":""},"\r":{"ha":833,"x_min":0,"x_max":0,"o":""}," ":{"ha":833,"x_min":0,"x_max":0,"o":""},"!":{"ha":833,"x_min":0,"x_max":0,"o":"m 329 278 l 424 868 l 444 972 l 625 972 l 604 868 l 468 278 m 290 17 b 265 76 274 32 265 53 b 294 156 265 108 275 135 b 369 188 314 176 339 188 b 435 164 396 188 418 179 b 460 104 451 149 460 128 b 431 25 460 72 450 46 b 356 -7 411 4 386 -7 b 290 17 329 -7 307 1 "},"\"":{"ha":833,"x_min":0,"x_max":0,"o":"m 271 653 l 333 972 l 486 972 l 424 653 m 507 653 l 569 972 l 722 972 l 660 653 "},"#":{"ha":833,"x_min":0,"x_max":0,"o":"m 832 583 l 694 583 l 614 389 l 751 389 l 693 243 l 556 243 l 456 0 l 307 0 l 407 243 l 276 243 l 176 0 l 28 0 l 128 243 l -10 243 l 49 389 l 186 389 l 267 583 l 129 583 l 188 729 l 326 729 l 425 972 l 574 972 l 475 729 l 606 729 l 704 972 l 853 972 l 754 729 l 890 729 m 465 389 l 546 583 l 415 583 l 335 389 "},"$":{"ha":833,"x_min":0,"x_max":0,"o":"m 360 628 b 492 571 388 610 432 592 b 635 515 550 551 597 533 b 729 439 671 497 703 471 b 768 313 756 406 768 364 b 726 149 768 250 754 196 b 606 35 697 100 657 63 b 421 -14 553 6 492 -10 l 393 -153 l 226 -153 l 257 1 b 82 106 182 21 124 56 b 18 292 39 154 18 217 l 206 292 b 264 192 210 251 229 218 b 393 153 299 165 342 153 b 526 192 446 153 490 165 b 581 288 563 217 581 249 b 540 354 581 317 567 339 b 410 406 513 369 469 388 b 267 460 351 424 304 442 b 169 538 229 478 196 503 b 129 667 143 571 129 614 b 169 825 129 725 143 778 b 282 936 196 871 233 908 b 449 985 331 964 386 981 l 475 1125 l 642 1125 l 613 971 b 768 874 679 953 731 919 b 824 701 806 828 824 769 l 636 701 b 590 786 636 735 621 763 b 476 819 560 808 522 819 b 363 785 431 819 392 808 b 317 697 332 761 317 732 b 360 628 317 668 331 644 "},"%":{"ha":833,"x_min":0,"x_max":0,"o":"m 163 661 b 118 772 133 689 118 726 b 144 878 118 810 126 846 b 214 953 161 910 185 935 b 310 979 243 971 275 979 b 426 938 358 979 397 965 b 471 825 456 908 471 871 b 446 721 471 788 463 753 b 376 646 428 689 406 664 b 279 618 347 628 314 618 b 163 661 231 618 192 632 m 479 556 l 740 972 l 910 972 l 565 556 m 339 750 b 360 815 353 768 360 789 b 344 858 360 833 354 847 b 304 875 335 869 321 875 b 251 849 283 875 265 867 b 229 782 236 831 229 808 b 244 739 229 764 235 750 b 285 722 254 728 268 722 b 339 750 306 722 324 732 m -31 0 l 314 417 l 400 417 l 139 0 m 453 36 b 408 147 424 64 408 101 b 435 253 408 185 417 221 b 504 328 451 285 475 310 b 600 354 533 346 565 354 b 717 313 649 354 688 340 b 761 200 746 283 761 246 b 736 96 761 163 753 128 b 667 21 718 64 696 39 b 569 -7 638 3 604 -7 b 453 36 521 -7 482 7 m 629 125 b 650 190 643 143 650 164 b 635 233 650 208 644 222 b 594 250 625 244 611 250 b 542 224 574 250 556 242 b 519 157 526 206 519 183 b 535 114 519 139 525 125 b 575 97 544 103 558 97 b 629 125 596 97 614 107 "},"&":{"ha":833,"x_min":0,"x_max":0,"o":"m 626 197 l 747 0 l 567 0 l 517 83 b 390 8 468 47 426 22 b 279 -14 353 -7 317 -14 b 153 14 233 -14 190 -4 b 63 92 115 32 85 58 b 29 201 40 124 29 161 b 79 356 29 258 46 310 b 258 513 113 401 172 453 b 203 618 235 553 215 589 b 183 701 190 647 183 675 b 219 849 183 756 196 806 b 319 950 243 892 276 925 b 461 986 361 974 408 986 b 628 929 529 986 585 967 b 690 778 669 892 690 840 b 669 683 690 744 683 713 b 599 590 656 654 632 622 b 458 474 565 557 518 518 l 560 307 l 646 403 l 821 403 m 378 807 b 350 715 360 783 350 753 b 357 656 350 693 353 674 b 381 601 361 638 369 619 l 386 593 b 489 682 431 624 465 653 b 524 761 513 711 524 738 b 504 821 524 788 517 807 b 447 840 492 833 472 840 b 378 807 418 840 396 829 m 331 392 b 225 297 279 354 244 324 b 196 215 206 271 196 244 b 224 156 196 192 206 171 b 300 132 242 140 268 132 b 444 204 343 132 392 156 "},"'":{"ha":833,"x_min":0,"x_max":0,"o":"m 389 653 l 451 972 l 604 972 l 542 653 "},"(":{"ha":833,"x_min":0,"x_max":0,"o":"m 351 -278 b 286 -87 324 -221 301 -157 b 263 125 271 -18 263 53 b 350 625 263 301 292 468 b 576 1014 408 782 483 911 l 756 1014 b 519 621 658 907 579 776 b 429 132 460 465 429 303 b 450 -87 429 56 436 -17 b 510 -278 464 -157 483 -221 l 351 -278 "},")":{"ha":833,"x_min":0,"x_max":0,"o":"m 78 -278 b 314 115 175 -171 254 -40 b 404 604 374 271 404 433 b 383 824 404 681 397 753 b 324 1014 369 893 350 957 l 482 1014 b 547 824 510 957 532 893 b 571 611 563 754 571 683 b 483 113 571 435 542 269 b 257 -278 425 -46 350 -175 l 78 -278 "},"*":{"ha":833,"x_min":0,"x_max":0,"o":"m 349 431 l 235 508 l 394 672 l 172 717 l 215 843 l 413 758 l 389 972 l 525 972 l 501 758 l 699 843 l 742 717 l 519 672 l 679 508 l 565 431 l 457 615 "},"+":{"ha":833,"x_min":0,"x_max":0,"o":"m 763 507 l 763 354 l 506 354 l 506 97 l 353 97 l 353 354 l 96 354 l 96 507 l 353 507 l 353 764 l 506 764 l 506 507 "},",":{"ha":833,"x_min":0,"x_max":0,"o":"m 225 -153 l 336 139 l 500 139 l 357 -153 "},"-":{"ha":833,"x_min":0,"x_max":0,"o":"m 172 292 l 201 438 l 658 438 l 629 292 "},".":{"ha":833,"x_min":0,"x_max":0,"o":"m 290 17 b 265 76 274 32 265 53 b 294 156 265 108 275 135 b 369 188 314 176 339 188 b 435 164 396 188 418 179 b 460 104 451 149 460 128 b 431 25 460 72 450 46 b 356 -7 411 4 386 -7 b 290 17 329 -7 307 1 "},"/":{"ha":833,"x_min":0,"x_max":0,"o":"m -31 -278 l 622 1014 l 794 1014 l 142 -278 "},":":{"ha":833,"x_min":0,"x_max":0,"o":"m 397 565 b 372 625 381 581 372 601 b 401 704 372 657 382 683 b 476 736 421 725 446 736 b 542 713 503 736 525 728 b 567 653 558 697 567 676 b 538 574 567 621 557 594 b 463 542 518 553 493 542 b 397 565 436 542 414 550 m 292 17 b 267 76 275 32 267 53 b 296 156 267 108 276 135 b 371 188 315 176 340 188 b 436 164 397 188 419 179 b 461 104 453 149 461 128 b 432 25 461 72 451 46 b 357 -7 413 4 388 -7 b 292 17 331 -7 308 1 "},";":{"ha":833,"x_min":0,"x_max":0,"o":"m 404 565 b 379 625 388 581 379 601 b 408 704 379 657 389 683 b 483 736 428 725 453 736 b 549 713 510 736 532 728 b 574 653 565 697 574 676 b 544 574 574 621 564 594 b 469 542 525 553 500 542 b 404 565 443 542 421 550 m 203 -153 l 314 139 l 478 139 l 335 -153 "},"<":{"ha":833,"x_min":0,"x_max":0,"o":"m 714 83 l 117 354 l 117 507 l 714 778 l 714 611 l 293 431 l 714 250 "},"=":{"ha":833,"x_min":0,"x_max":0,"o":"m 94 500 l 94 646 l 761 646 l 761 500 m 94 208 l 94 354 l 761 354 l 761 208 "},">":{"ha":833,"x_min":0,"x_max":0,"o":"m 143 83 l 143 250 l 564 431 l 143 611 l 143 778 l 740 507 l 740 354 "},"?":{"ha":833,"x_min":0,"x_max":0,"o":"m 294 357 b 333 457 301 397 315 431 b 393 521 351 483 372 506 b 474 569 414 536 442 551 b 539 610 501 585 524 597 b 579 653 554 621 568 635 b 594 718 589 671 594 692 b 561 790 594 747 583 771 b 465 819 539 810 507 819 b 372 785 431 819 400 808 b 324 694 343 761 328 732 l 143 694 b 186 838 146 744 160 792 b 297 946 213 882 249 918 b 469 986 346 972 403 986 b 631 956 529 986 583 976 b 742 869 678 935 715 907 b 782 742 768 832 782 790 b 756 617 782 693 774 651 b 692 532 738 582 717 553 b 596 463 667 511 635 488 b 514 400 558 438 532 417 b 479 340 496 383 483 364 l 467 278 l 279 278 l 294 357 m 271 17 b 246 76 254 32 246 53 b 275 156 246 108 256 135 b 350 188 294 176 319 188 b 415 164 376 188 399 179 b 440 104 432 149 440 128 b 411 25 440 72 431 46 b 336 -7 392 4 367 -7 b 271 17 310 -7 288 1 "},"@":{"ha":833,"x_min":0,"x_max":0,"o":"m 340 -181 b 157 -131 269 -181 208 -164 b 36 13 104 -97 64 -50 b -7 232 7 75 -7 147 b 56 597 -7 367 14 489 b 231 853 97 706 156 790 b 485 944 306 914 390 944 b 754 833 600 944 690 907 b 850 535 818 760 850 660 b 821 297 850 444 840 365 b 738 139 801 229 774 176 b 611 83 701 101 660 83 b 540 104 585 83 561 90 b 497 160 518 118 504 136 l 490 160 b 436 103 478 135 460 115 b 354 83 413 90 385 83 b 244 132 306 83 269 100 b 207 269 219 164 207 210 b 236 474 207 344 217 413 b 317 615 256 533 282 581 b 431 667 350 650 388 667 b 486 654 453 667 471 663 b 525 613 501 646 514 632 l 532 613 l 557 660 l 660 660 l 596 326 b 586 247 589 294 586 268 b 594 213 586 232 589 219 b 618 201 599 206 607 201 b 674 244 639 201 657 215 b 711 363 689 274 701 313 b 725 528 721 411 725 467 b 661 749 725 624 704 697 b 478 826 618 800 557 826 b 292 750 408 826 346 801 b 164 540 238 699 194 629 b 118 239 133 450 118 350 b 179 15 118 142 139 67 b 357 -62 219 -36 279 -62 l 482 -62 l 458 -181 l 340 -181 m 450 238 b 490 333 467 261 481 293 b 506 464 500 374 506 417 b 444 549 506 521 485 549 b 389 514 424 549 406 538 b 347 418 371 490 357 458 b 332 286 338 378 332 333 b 393 203 332 231 353 203 b 450 238 414 203 432 214 "},"A":{"ha":833,"x_min":0,"x_max":0,"o":"m 568 0 l 551 194 l 238 194 l 146 0 l -51 0 l 429 972 l 651 972 l 754 0 m 315 361 l 539 361 l 515 639 l 525 792 l 497 792 l 446 639 "},"B":{"ha":833,"x_min":0,"x_max":0,"o":"m 731 417 b 763 299 751 382 763 342 b 722 140 763 238 749 185 b 611 36 696 94 658 60 b 450 0 564 13 510 0 l 6 0 l 194 972 l 533 972 b 740 911 618 972 688 951 b 818 743 792 871 818 814 b 771 583 818 681 803 628 b 653 488 739 538 700 506 b 731 417 683 475 710 451 m 492 569 b 592 608 532 569 565 582 b 631 701 618 635 631 665 b 599 778 631 733 619 760 b 506 806 578 796 546 806 l 349 806 l 303 569 l 492 569 m 429 167 b 536 206 475 167 510 179 b 575 313 563 232 575 267 b 540 389 575 344 564 369 b 443 417 517 407 483 417 l 274 417 l 225 167 l 429 167 "},"C":{"ha":833,"x_min":0,"x_max":0,"o":"m 138 83 b 44 361 75 147 44 240 b 100 678 44 476 63 582 b 258 903 136 772 189 847 b 503 986 326 958 408 986 b 739 901 601 986 681 958 b 840 667 797 844 831 765 l 653 667 b 488 819 633 768 578 819 b 360 758 442 819 399 799 b 267 593 321 718 290 663 b 232 368 243 524 232 449 b 276 206 232 294 247 240 b 392 153 306 171 343 153 b 593 306 474 153 542 204 l 794 306 b 638 72 760 207 707 129 b 385 -14 567 15 483 -14 b 138 83 281 -14 199 18 "},"D":{"ha":833,"x_min":0,"x_max":0,"o":"m 194 972 l 418 972 b 635 921 500 972 572 956 b 776 778 696 886 743 838 b 825 569 808 717 825 647 b 760 282 825 465 803 369 b 583 76 717 194 657 126 b 342 0 510 25 429 0 l 6 0 m 342 167 b 490 219 396 167 444 185 b 599 361 536 254 572 301 b 638 556 625 421 638 485 b 571 736 638 629 615 690 b 397 806 526 782 468 806 l 349 806 l 225 167 l 342 167 "},"E":{"ha":833,"x_min":0,"x_max":0,"o":"m 819 806 l 356 806 l 311 576 l 747 576 l 715 410 l 279 410 l 232 167 l 710 167 l 678 0 l 13 0 l 201 972 l 853 972 "},"F":{"ha":833,"x_min":0,"x_max":0,"o":"m 840 806 l 390 806 l 342 556 l 757 556 l 725 389 l 310 389 l 235 0 l 47 0 l 236 972 l 874 972 "},"G":{"ha":833,"x_min":0,"x_max":0,"o":"m 133 83 b 40 361 71 147 40 240 b 96 679 40 478 58 583 b 254 904 132 774 185 849 b 499 986 322 958 404 986 b 733 903 596 986 674 958 b 836 667 793 846 826 768 l 649 667 b 594 781 639 717 621 754 b 492 819 568 807 533 819 b 360 760 443 819 400 800 b 264 596 319 719 288 664 b 228 368 240 526 228 450 b 272 206 228 294 243 240 b 388 153 301 171 339 153 b 517 208 433 153 476 171 b 608 354 557 244 588 293 l 425 354 l 457 521 l 838 521 l 829 465 b 751 224 815 376 789 296 b 600 51 714 151 663 94 b 381 -14 538 8 464 -14 b 133 83 276 -14 194 18 "},"H":{"ha":833,"x_min":0,"x_max":0,"o":"m 686 972 l 874 972 l 685 0 l 497 0 l 576 410 l 272 410 l 193 0 l 6 0 l 194 972 l 382 972 l 306 576 l 610 576 "},"I":{"ha":833,"x_min":0,"x_max":0,"o":"m 54 0 l 86 167 l 281 167 l 404 806 l 210 806 l 243 972 l 825 972 l 792 806 l 592 806 l 468 167 l 668 167 l 636 0 "},"J":{"ha":833,"x_min":0,"x_max":0,"o":"m 108 61 b 22 299 51 111 22 190 l 208 299 b 247 190 208 251 221 215 b 349 153 272 165 306 153 b 521 333 440 153 497 213 l 613 806 l 300 806 l 333 972 l 833 972 l 703 304 b 581 68 682 201 642 122 b 346 -14 518 14 440 -14 b 108 61 244 -14 165 11 "},"K":{"ha":833,"x_min":0,"x_max":0,"o":"m 943 972 l 474 479 l 751 0 l 533 0 l 281 451 l 193 0 l 6 0 l 194 972 l 382 972 l 297 536 l 701 972 "},"L":{"ha":833,"x_min":0,"x_max":0,"o":"m 47 0 l 236 972 l 424 972 l 267 167 l 735 167 l 703 0 "},"M":{"ha":833,"x_min":0,"x_max":0,"o":"m 6 0 l 194 972 l 403 972 l 450 590 l 457 590 l 653 972 l 875 972 l 686 0 l 499 0 l 579 417 l 711 736 l 683 736 l 443 264 l 351 264 l 294 736 l 267 736 l 274 417 l 193 0 "},"N":{"ha":833,"x_min":0,"x_max":0,"o":"m 6 0 l 194 972 l 426 972 l 565 236 l 593 236 l 586 451 l 688 972 l 875 972 l 686 0 l 454 0 l 315 736 l 288 736 l 294 521 l 193 0 "},"O":{"ha":833,"x_min":0,"x_max":0,"o":"m 133 83 b 40 361 71 147 40 240 b 96 679 40 478 58 583 b 254 904 132 774 185 849 b 499 986 322 958 404 986 b 747 890 603 986 685 954 b 839 611 808 825 839 732 b 785 294 839 494 821 389 b 626 69 747 199 694 124 b 381 -14 557 14 475 -14 b 133 83 276 -14 194 18 m 521 214 b 617 378 561 254 593 308 b 651 604 640 446 651 522 b 610 764 651 672 638 726 b 492 819 582 801 543 819 b 360 760 443 819 400 800 b 264 596 319 719 288 664 b 228 368 240 526 228 450 b 269 210 228 300 242 247 b 388 153 297 172 336 153 b 521 214 436 153 481 174 "},"P":{"ha":833,"x_min":0,"x_max":0,"o":"m 194 972 l 539 972 b 704 933 601 972 657 960 b 814 829 751 907 788 872 b 851 683 839 785 851 736 b 803 493 851 614 835 550 b 671 356 771 435 726 389 b 486 306 615 322 554 306 l 251 306 l 193 0 l 6 0 m 474 472 b 569 499 508 472 540 481 b 639 568 599 515 621 539 b 664 667 656 597 664 631 b 622 767 664 707 650 740 b 504 806 593 793 554 806 l 349 806 l 285 472 l 474 472 "},"Q":{"ha":833,"x_min":0,"x_max":0,"o":"m 775 271 b 594 46 732 169 672 94 l 657 -139 l 503 -139 l 458 -7 b 381 -14 431 -11 404 -14 b 133 83 276 -14 194 18 b 40 361 71 147 40 240 b 96 679 40 478 58 583 b 254 904 132 774 185 849 b 499 986 322 958 404 986 b 747 890 603 986 685 954 b 839 611 808 825 839 732 b 775 271 839 485 818 371 m 532 226 b 619 388 569 267 599 321 b 651 604 640 454 651 526 b 610 764 651 672 638 726 b 492 819 582 801 543 819 b 360 760 443 819 400 800 b 264 596 319 719 288 664 b 228 368 240 526 228 450 b 269 210 228 300 242 247 b 388 153 297 172 336 153 b 403 154 394 153 399 153 l 349 313 l 503 313 l 532 226 "},"R":{"ha":833,"x_min":0,"x_max":0,"o":"m 818 538 b 719 419 794 489 761 450 b 575 360 676 388 629 368 l 724 0 l 532 0 l 394 354 l 261 354 l 193 0 l 6 0 l 194 972 l 544 972 b 711 938 608 972 664 961 b 817 839 757 914 793 881 b 853 694 840 796 853 749 b 818 538 853 638 842 585 m 506 507 b 585 531 533 507 560 515 b 643 594 608 546 628 568 b 665 679 658 621 665 649 b 624 771 665 717 651 747 b 513 806 594 794 558 806 l 349 806 l 290 507 l 506 507 "},"S":{"ha":833,"x_min":0,"x_max":0,"o":"m 119 68 b 18 292 51 122 18 196 l 206 292 b 264 192 210 251 229 218 b 393 153 299 165 342 153 b 526 192 446 153 490 165 b 581 288 563 217 581 249 b 540 354 581 317 567 339 b 410 406 513 369 469 388 b 267 460 351 424 304 442 b 169 538 229 478 196 503 b 129 667 143 571 129 614 b 174 833 129 729 144 785 b 299 946 203 882 244 919 b 483 986 353 972 414 986 b 733 911 589 986 672 961 b 824 701 793 860 824 790 l 636 701 b 590 786 636 735 621 763 b 476 819 560 808 522 819 b 363 785 431 819 392 808 b 317 697 332 761 317 732 b 360 628 317 668 331 644 b 492 571 388 610 432 592 b 635 515 550 551 597 533 b 729 439 671 497 703 471 b 768 313 756 406 768 364 b 722 142 768 247 753 190 b 592 28 692 93 649 54 b 393 -14 535 0 468 -14 b 119 68 278 -14 188 14 "},"T":{"ha":833,"x_min":0,"x_max":0,"o":"m 256 0 l 411 806 l 286 806 l 257 653 l 97 653 l 160 972 l 910 972 l 847 653 l 688 653 l 717 806 l 599 806 l 443 0 "},"U":{"ha":833,"x_min":0,"x_max":0,"o":"m 153 64 b 67 276 96 115 67 186 b 75 363 67 303 69 332 l 194 972 l 382 972 l 260 347 b 254 296 256 332 254 314 b 292 192 254 251 267 217 b 393 153 315 165 350 153 b 503 197 439 153 475 168 b 563 333 531 226 550 271 l 688 972 l 875 972 l 747 319 b 624 74 726 213 685 131 b 386 -14 561 15 482 -14 b 153 64 288 -14 210 13 "},"V":{"ha":833,"x_min":0,"x_max":0,"o":"m 228 0 l 139 972 l 326 972 l 364 347 l 356 194 l 383 194 l 436 347 l 715 972 l 917 972 l 450 0 "},"W":{"ha":833,"x_min":0,"x_max":0,"o":"m 61 0 l 125 972 l 303 972 l 251 507 l 169 229 l 197 229 l 396 708 l 549 708 l 561 229 l 589 229 l 615 507 l 744 972 l 931 972 l 617 0 l 444 0 l 432 458 l 425 458 l 236 0 "},"X":{"ha":833,"x_min":0,"x_max":0,"o":"m -44 0 l 338 500 l 158 972 l 363 972 l 436 715 l 440 604 l 468 604 l 514 715 l 688 972 l 908 972 l 546 500 l 733 0 l 526 0 l 444 285 l 443 396 l 415 396 l 372 285 l 179 0 "},"Y":{"ha":833,"x_min":0,"x_max":0,"o":"m 249 0 l 310 319 l 118 972 l 313 972 l 407 563 l 407 438 l 435 438 l 482 563 l 729 972 l 938 972 l 497 319 l 436 0 "},"Z":{"ha":833,"x_min":0,"x_max":0,"o":"m -15 0 l 13 147 l 607 806 l 154 806 l 188 972 l 888 972 l 858 825 l 265 167 l 738 167 l 706 0 "},"[":{"ha":833,"x_min":0,"x_max":0,"o":"m 153 -278 l 403 1014 l 750 1014 l 721 861 l 540 861 l 349 -125 l 529 -125 l 500 -278 "},"\\":{"ha":833,"x_min":0,"x_max":0,"o":"m 453 -278 l 300 1014 l 450 1014 l 603 -278 "},"]":{"ha":833,"x_min":0,"x_max":0,"o":"m 83 -278 l 113 -125 l 293 -125 l 485 861 l 304 861 l 333 1014 l 681 1014 l 431 -278 "},"^":{"ha":833,"x_min":0,"x_max":0,"o":"m 176 528 l 385 972 l 538 972 l 746 528 l 586 528 l 468 799 l 454 799 l 336 528 "},"_":{"ha":833,"x_min":0,"x_max":0,"o":"m -3 -222 l 25 -76 l 692 -76 l 663 -222 "},"`":{"ha":833,"x_min":0,"x_max":0,"o":"m 528 840 l 410 1049 l 564 1049 l 647 840 "},"a":{"ha":833,"x_min":0,"x_max":0,"o":"m 128 65 b 58 278 82 118 58 189 b 101 518 58 365 72 446 b 224 688 131 589 171 646 b 410 750 276 729 339 750 b 614 660 489 750 557 719 l 621 660 l 649 736 l 794 736 l 650 0 l 504 0 l 506 76 l 499 76 b 313 -14 451 17 389 -14 b 128 65 235 -14 174 13 m 467 176 b 539 279 497 201 521 236 b 565 424 557 322 565 371 b 528 551 565 478 553 521 b 425 597 501 582 468 597 b 324 560 388 597 354 585 b 251 457 293 535 269 500 b 225 313 233 414 225 365 b 264 185 225 258 238 215 b 365 139 289 154 322 139 b 467 176 403 139 436 151 "},"b":{"ha":833,"x_min":0,"x_max":0,"o":"m 213 76 l 185 0 l 39 0 l 229 972 l 396 972 l 335 667 l 342 667 b 417 728 360 692 385 713 b 514 750 449 743 481 750 b 706 672 596 750 660 724 b 775 458 751 621 775 549 b 731 214 775 367 760 285 b 607 46 701 142 660 86 b 424 -14 553 6 492 -14 b 219 76 344 -14 276 17 m 510 176 b 582 279 540 201 564 236 b 608 424 600 322 608 371 b 571 551 608 478 596 521 b 469 597 546 582 513 597 b 368 560 432 597 399 585 b 294 457 336 535 313 500 b 268 313 276 414 268 365 b 307 185 268 258 281 215 b 408 139 332 154 365 139 b 510 176 446 139 479 151 "},"c":{"ha":833,"x_min":0,"x_max":0,"o":"m 215 26 b 104 138 167 53 131 89 b 64 306 78 186 64 242 b 113 532 64 389 81 464 b 251 692 144 600 192 653 b 460 750 311 731 381 750 b 675 678 546 750 618 726 b 772 486 732 629 765 565 l 606 486 b 553 567 597 519 579 546 b 446 597 525 588 489 597 b 289 521 379 597 326 572 b 231 313 250 469 231 400 b 275 185 231 258 246 215 b 397 139 304 154 344 139 b 501 165 438 139 472 147 b 579 250 531 183 556 211 l 746 250 b 610 58 721 169 675 106 b 383 -14 544 10 468 -14 b 215 26 319 -14 264 -1 "},"d":{"ha":833,"x_min":0,"x_max":0,"o":"m 188 18 b 94 114 149 39 118 71 b 58 278 71 157 58 213 b 101 518 58 365 72 446 b 225 688 131 589 171 646 b 410 750 278 729 339 750 b 522 726 450 750 488 742 b 607 667 556 711 583 690 l 614 667 l 674 972 l 840 972 l 650 0 l 504 0 l 506 76 l 499 76 b 313 -14 451 17 389 -14 b 188 18 267 -14 225 -4 m 467 176 b 539 279 497 201 521 236 b 565 424 557 322 565 371 b 528 551 565 478 553 521 b 426 597 503 582 469 597 b 325 560 389 597 356 585 b 251 457 293 535 269 500 b 225 313 233 414 225 365 b 264 185 225 258 238 215 b 365 139 289 154 322 139 b 467 176 403 139 436 151 "},"e":{"ha":833,"x_min":0,"x_max":0,"o":"m 772 369 b 763 313 769 344 767 325 l 221 313 b 272 183 225 256 242 213 b 399 139 301 154 344 139 b 493 163 433 139 464 147 b 561 222 522 178 544 197 l 728 222 b 592 47 696 146 651 88 b 382 -14 532 7 461 -14 b 219 22 322 -14 268 -3 b 103 128 171 46 132 81 b 60 299 74 175 60 232 b 113 542 60 392 78 474 b 256 697 147 610 196 661 b 457 750 315 732 383 750 b 629 710 524 750 581 736 b 738 599 676 682 713 644 b 775 444 763 553 775 501 b 772 369 775 419 774 394 m 615 431 b 567 553 614 482 597 522 b 440 597 536 582 494 597 b 314 553 393 597 351 582 b 235 431 276 522 250 482 l 615 431 "},"f":{"ha":833,"x_min":0,"x_max":0,"o":"m 629 833 b 564 814 600 833 579 826 b 531 744 549 801 538 778 l 475 458 l 725 458 l 696 313 l 447 313 l 374 -69 b 294 -222 361 -135 335 -185 b 132 -278 254 -260 200 -278 l -62 -278 l -33 -125 l 125 -125 b 179 -104 143 -125 161 -118 b 211 -49 196 -90 207 -72 l 281 313 l 86 313 l 115 458 l 310 458 l 368 764 b 450 932 383 840 410 896 b 622 986 490 968 547 986 l 893 986 l 864 833 l 629 833 "},"g":{"ha":833,"x_min":0,"x_max":0,"o":"m 157 -249 b 42 -162 108 -228 69 -200 b -1 -28 13 -125 -1 -79 l 165 -28 b 325 -125 183 -93 236 -125 b 436 -89 368 -125 404 -112 b 493 11 467 -64 486 -31 l 513 115 l 506 115 b 419 60 476 89 449 71 b 318 42 390 47 356 42 b 132 117 240 42 178 67 b 61 319 85 165 61 233 b 106 539 61 400 76 474 b 228 694 135 604 176 657 b 401 750 279 732 338 750 b 528 722 447 750 489 740 b 614 647 567 703 596 678 l 621 647 l 653 736 l 801 736 l 657 -4 b 543 -206 640 -90 603 -157 b 318 -278 483 -254 408 -278 b 157 -249 258 -278 206 -268 m 468 224 b 540 308 497 242 522 271 b 568 444 558 346 568 392 b 529 557 568 493 556 531 b 422 597 503 583 468 597 b 322 565 385 597 351 586 b 253 476 293 544 269 514 b 228 347 236 439 228 396 b 267 235 228 299 240 261 b 374 194 293 208 328 194 b 468 224 407 194 439 204 "},"h":{"ha":833,"x_min":0,"x_max":0,"o":"m 229 972 l 396 972 l 338 674 l 344 674 b 421 729 365 696 390 714 b 519 750 451 743 485 750 b 633 719 560 750 599 740 b 718 631 668 699 697 668 b 749 500 739 593 749 549 b 742 435 749 482 746 460 l 658 0 l 492 0 l 576 435 b 581 476 579 450 581 464 b 547 565 581 514 569 544 b 450 597 524 586 492 597 b 351 560 413 597 379 585 b 296 460 322 535 304 501 l 207 0 l 40 0 "},"i":{"ha":833,"x_min":0,"x_max":0,"o":"m 479 0 b 319 51 411 0 357 17 b 263 192 282 85 263 132 b 268 250 263 213 264 232 l 332 583 l 138 583 l 168 736 l 529 736 l 433 243 b 432 224 432 239 432 232 b 453 172 432 203 439 185 b 507 153 465 160 483 153 l 679 153 l 650 0 l 479 0 m 408 860 b 382 925 390 878 382 899 b 415 1008 382 957 393 985 b 496 1042 436 1031 464 1042 b 563 1015 522 1042 544 1033 b 589 950 581 997 589 976 b 557 868 589 918 578 890 b 475 833 535 844 507 833 b 408 860 449 833 426 842 "},"j":{"ha":833,"x_min":0,"x_max":0,"o":"m 46 -214 b -24 -28 0 -171 -24 -108 l 143 -28 b 171 -101 143 -60 153 -85 b 247 -125 189 -117 215 -125 b 322 -94 276 -125 301 -115 b 365 -1 343 -74 357 -42 l 479 583 l 257 583 l 288 736 l 676 736 l 531 -7 b 426 -206 514 -92 479 -157 b 240 -278 374 -254 311 -278 b 46 -214 157 -278 92 -257 m 556 860 b 529 925 538 878 529 899 b 563 1008 529 957 540 985 b 643 1042 583 1031 611 1042 b 710 1015 669 1042 692 1033 b 736 950 728 997 736 976 b 704 868 736 918 725 890 b 622 833 682 844 654 833 b 556 860 596 833 574 842 "},"k":{"ha":833,"x_min":0,"x_max":0,"o":"m 229 972 l 396 972 l 342 701 l 279 625 l 307 625 b 429 722 350 671 392 703 b 554 750 467 740 508 750 b 661 722 593 750 629 740 b 736 646 693 704 718 678 b 763 533 754 613 763 575 b 704 358 763 460 743 401 b 538 278 664 315 608 288 l 728 0 l 538 0 l 324 311 l 340 410 l 443 410 b 558 438 494 410 532 419 b 596 514 583 456 596 482 b 569 575 596 539 588 560 b 494 597 551 590 526 597 b 406 572 465 597 435 589 b 329 504 376 554 350 532 b 288 417 307 476 293 447 l 207 0 l 40 0 "},"l":{"ha":833,"x_min":0,"x_max":0,"o":"m 471 0 b 313 50 403 0 350 17 b 254 190 274 83 254 131 b 260 250 254 211 256 232 l 369 819 l 175 819 l 206 972 l 567 972 l 425 243 b 424 222 424 239 424 232 b 444 172 424 201 431 185 b 499 153 458 160 476 153 l 675 153 l 646 0 l 471 0 "},"m":{"ha":833,"x_min":0,"x_max":0,"o":"m 128 736 l 267 736 l 268 674 l 275 674 b 336 731 292 697 313 717 b 408 750 360 743 383 750 b 483 731 438 750 463 743 b 529 674 504 717 519 697 l 536 674 b 601 729 553 697 575 715 b 683 750 628 743 654 750 b 779 707 724 750 756 736 b 815 590 803 678 815 639 b 810 532 815 569 814 550 l 707 0 l 547 0 l 643 503 b 647 540 646 517 647 529 b 596 597 647 578 631 597 b 543 575 575 597 557 590 b 514 514 528 560 518 540 l 415 0 l 276 0 l 372 503 b 376 540 375 517 376 529 b 325 597 376 578 360 597 b 272 575 304 597 286 590 b 243 514 257 560 247 540 l 144 0 l -15 0 "},"n":{"ha":833,"x_min":0,"x_max":0,"o":"m 176 736 l 322 736 l 325 674 l 332 674 b 413 729 351 696 378 714 b 519 750 446 743 482 750 b 636 719 561 750 600 740 b 724 631 672 699 701 668 b 756 499 744 592 756 547 b 749 435 756 481 753 460 l 665 0 l 499 0 l 583 435 b 588 475 586 449 588 463 b 551 565 588 513 575 543 b 450 597 528 586 493 597 b 346 560 410 597 375 585 b 289 460 317 535 297 501 l 200 0 l 33 0 "},"o":{"ha":833,"x_min":0,"x_max":0,"o":"m 211 26 b 100 138 163 53 126 89 b 60 306 74 186 60 242 b 110 536 60 392 76 468 b 250 694 143 604 190 657 b 456 750 310 732 379 750 b 624 711 519 750 575 738 b 735 599 672 685 708 647 b 774 431 761 550 774 494 b 724 200 774 344 757 268 b 585 43 690 132 644 81 b 379 -14 525 6 456 -14 b 211 26 315 -14 260 -1 m 550 215 b 607 424 588 267 607 336 b 564 551 607 478 593 521 b 442 597 535 582 493 597 b 285 521 375 597 322 572 b 226 313 246 469 226 400 b 271 185 226 258 242 215 b 393 139 300 154 340 139 b 550 215 458 139 511 164 "},"p":{"ha":833,"x_min":0,"x_max":0,"o":"m 185 736 l 331 736 l 329 660 l 336 660 b 522 750 383 719 446 750 b 649 719 568 750 610 740 b 742 622 686 699 718 665 b 776 458 765 579 776 524 b 733 219 776 371 763 290 b 611 49 704 147 664 90 b 425 -14 557 7 496 -14 b 314 10 385 -14 347 -6 b 228 69 279 25 251 46 l 221 69 l 153 -278 l -14 -278 m 511 176 b 583 279 542 201 565 236 b 610 424 601 322 610 371 b 572 551 610 478 597 519 b 469 597 547 582 513 597 b 368 560 432 597 399 585 b 296 457 338 535 314 500 b 269 313 278 414 269 365 b 307 186 269 258 282 217 b 408 139 332 154 365 139 b 511 176 446 139 479 151 "},"q":{"ha":833,"x_min":0,"x_max":0,"o":"m 499 69 l 492 69 b 417 10 474 44 449 25 b 319 -14 385 -7 353 -14 b 133 60 244 -14 182 11 b 58 278 83 108 58 181 b 101 518 58 365 72 446 b 224 688 131 589 171 646 b 410 750 276 729 339 750 b 614 660 489 750 557 719 l 621 660 l 649 736 l 794 736 l 596 -278 l 429 -278 m 467 176 b 539 279 497 201 521 236 b 565 424 557 322 565 371 b 528 551 565 478 553 519 b 425 597 503 582 468 597 b 324 560 388 597 354 585 b 251 457 293 535 269 500 b 225 313 233 414 225 365 b 263 186 225 258 238 217 b 364 139 288 154 321 139 b 467 176 401 139 435 151 "},"r":{"ha":833,"x_min":0,"x_max":0,"o":"m 56 153 l 229 153 l 313 583 l 167 583 l 197 736 l 454 736 l 463 639 l 485 639 b 557 711 503 671 526 694 b 658 736 586 728 621 736 l 825 736 l 793 576 l 644 576 b 513 533 590 576 547 563 b 446 410 478 504 456 464 l 396 153 l 639 153 l 610 0 l 26 0 "},"s":{"ha":833,"x_min":0,"x_max":0,"o":"m 149 56 b 53 243 85 101 53 164 l 226 243 b 282 165 231 208 250 183 b 414 139 314 147 357 139 b 506 158 451 139 482 146 b 539 211 528 171 539 189 b 506 257 539 231 528 246 b 396 292 482 267 446 279 b 258 338 340 307 294 322 b 163 404 221 353 189 375 b 122 521 136 433 122 472 b 160 640 122 565 135 606 b 265 721 185 675 219 701 b 421 750 311 740 363 750 b 660 688 522 750 601 729 b 747 514 718 644 747 588 l 574 514 b 524 578 567 543 550 564 b 407 597 497 590 458 597 b 328 579 375 597 349 592 b 296 535 307 567 296 553 b 333 485 296 514 308 497 b 449 444 357 472 396 458 b 583 401 503 429 547 415 b 675 338 618 386 649 365 b 713 229 700 310 713 274 b 675 103 713 181 700 139 b 567 17 649 65 613 38 b 407 -14 521 -4 467 -14 b 149 56 297 -14 211 10 "},"t":{"ha":833,"x_min":0,"x_max":0,"o":"m 319 17 b 232 99 282 36 253 64 b 200 217 211 133 200 174 b 206 271 200 238 201 256 l 267 583 l 86 583 l 117 736 l 297 736 l 363 931 l 501 931 l 464 736 l 735 736 l 704 583 l 433 583 l 374 279 b 369 236 371 264 369 250 b 393 165 369 206 378 182 b 461 139 408 147 432 139 b 542 165 496 139 522 147 b 583 250 561 183 575 211 l 750 250 b 701 114 746 199 729 154 b 593 21 674 74 638 43 b 447 -14 549 -3 500 -14 b 319 17 399 -14 357 -4 "},"u":{"ha":833,"x_min":0,"x_max":0,"o":"m 193 19 b 110 111 157 42 129 72 b 79 239 89 149 79 192 b 85 301 79 263 81 283 l 168 736 l 335 736 l 250 301 b 246 261 247 288 246 274 b 282 172 246 224 258 193 b 383 139 306 150 340 139 b 488 176 424 139 458 151 b 544 276 517 201 536 235 l 633 736 l 800 736 l 657 0 l 511 0 l 508 63 l 501 63 b 422 8 482 40 456 22 b 314 -14 388 -7 351 -14 b 193 19 268 -14 228 -3 "},"v":{"ha":833,"x_min":0,"x_max":0,"o":"m 121 736 l 308 736 l 364 250 l 364 132 l 392 132 l 436 250 b 542 443 475 293 510 357 b 614 736 574 529 597 626 l 801 736 b 656 296 767 558 718 411 b 421 0 593 181 514 82 l 242 0 "},"w":{"ha":833,"x_min":0,"x_max":0,"o":"m 79 736 l 253 736 l 231 375 l 175 208 l 196 208 l 390 590 l 515 590 l 563 208 l 583 208 l 592 379 b 643 531 613 428 631 479 b 682 736 656 582 669 651 l 854 736 b 761 344 839 607 808 476 b 590 0 714 213 657 99 l 457 0 l 415 340 l 408 340 l 235 0 l 61 0 "},"x":{"ha":833,"x_min":0,"x_max":0,"o":"m -17 0 l 301 382 l 142 736 l 325 736 l 406 528 l 415 451 l 436 451 l 474 528 l 636 736 l 836 736 l 538 383 l 706 0 l 519 0 l 431 229 l 424 306 l 403 306 l 368 229 l 186 0 "},"y":{"ha":833,"x_min":0,"x_max":0,"o":"m 135 -217 b 42 -56 82 -175 51 -121 l 208 -56 b 254 -107 215 -76 231 -94 b 338 -125 278 -119 306 -125 b 440 -89 379 -125 414 -112 b 493 14 467 -65 485 -31 l 513 118 l 506 118 b 321 42 451 67 389 42 b 203 76 276 42 238 53 b 121 168 168 99 140 129 b 90 296 100 206 90 249 b 96 357 90 318 92 339 l 168 736 l 335 736 l 261 357 b 257 317 258 343 257 329 b 292 228 257 279 268 249 b 389 194 315 206 347 194 b 499 233 432 194 469 207 b 557 339 528 258 547 293 l 633 736 l 800 736 l 660 11 b 544 -200 642 -78 604 -149 b 325 -278 485 -251 411 -278 b 135 -217 250 -278 186 -257 "},"z":{"ha":833,"x_min":0,"x_max":0,"o":"m 443 -1 b 375 38 421 8 399 21 b 325 67 357 50 340 60 b 275 76 310 74 293 76 b 122 0 238 76 188 51 l 31 0 l 63 158 l 418 472 l 590 549 l 596 574 l 504 535 b 381 568 469 539 428 550 b 344 581 376 569 365 574 b 288 590 324 588 304 590 b 250 572 271 590 258 585 b 240 517 242 560 239 542 l 97 489 l 93 556 b 118 653 92 590 100 622 b 194 724 136 682 161 706 b 301 750 226 742 263 750 b 383 738 333 750 361 746 b 451 699 406 728 428 715 b 501 669 469 686 486 676 b 551 660 517 663 533 660 b 704 736 589 660 639 685 l 794 736 l 763 576 l 410 264 l 236 188 l 231 163 l 322 201 b 446 168 357 197 399 186 b 483 157 450 167 463 164 b 539 146 504 150 522 146 b 579 165 558 146 572 153 b 586 219 586 178 588 196 l 729 247 l 733 181 b 711 85 735 146 728 114 b 636 13 693 54 668 31 b 525 -14 603 -6 565 -14 b 443 -1 493 -14 465 -10 "},"{":{"ha":833,"x_min":0,"x_max":0,"o":"m 414 -278 b 272 -229 354 -278 307 -261 b 219 -99 238 -197 219 -153 b 225 -44 219 -81 221 -62 l 267 164 b 271 199 269 176 271 189 b 190 278 271 247 244 274 l 226 458 b 306 479 261 458 288 465 b 342 556 324 493 335 518 l 393 819 b 471 964 406 882 431 931 b 618 1014 510 997 558 1014 l 764 1014 l 735 861 l 639 861 b 581 844 613 861 593 856 b 553 785 568 833 558 814 l 507 544 b 450 418 496 488 476 446 b 349 375 424 389 389 375 l 343 347 b 436 218 406 335 436 292 b 429 151 436 200 433 178 l 392 -47 b 389 -71 390 -58 389 -67 b 447 -125 389 -107 408 -125 l 543 -125 l 514 -278 l 414 -278 "},"|":{"ha":833,"x_min":0,"x_max":0,"o":"m 340 -278 l 340 1014 l 507 1014 l 507 -278 "},"}":{"ha":833,"x_min":0,"x_max":0,"o":"m 99 -125 l 194 -125 b 254 -108 221 -125 242 -119 b 281 -49 267 -97 275 -78 l 326 192 b 383 319 338 249 357 290 b 485 361 410 347 444 361 l 490 389 b 397 518 428 401 397 444 b 404 585 397 536 400 558 l 442 783 b 444 807 443 794 444 803 b 386 861 444 843 425 861 l 290 861 l 319 1014 l 419 1014 b 563 965 479 1014 528 997 b 614 835 597 933 614 889 b 608 781 614 817 613 799 l 567 572 b 563 538 564 560 563 549 b 643 458 563 489 589 463 l 607 278 b 528 257 572 278 546 271 b 492 181 510 243 499 218 l 440 -83 b 364 -228 428 -146 403 -194 b 215 -278 324 -261 275 -278 l 69 -278 "},"~":{"ha":833,"x_min":0,"x_max":0,"o":"m 75 306 b 133 489 75 383 94 444 b 290 556 171 533 224 556 b 375 542 322 556 351 551 b 451 500 399 532 424 518 b 507 469 472 486 490 476 b 558 458 522 463 540 458 b 631 556 607 458 631 490 l 783 556 b 726 374 783 479 764 418 b 568 306 688 328 635 306 b 485 321 536 306 508 311 b 407 361 461 331 435 343 b 353 393 386 375 368 386 b 300 403 336 400 318 403 b 228 306 251 403 228 371 l 75 306 "}," ":{"ha":833,"x_min":0,"x_max":0,"o":""},"¡":{"ha":833,"x_min":0,"x_max":0,"o":"m 397 565 b 372 625 381 581 372 601 b 401 704 372 657 382 683 b 476 736 421 725 446 736 b 542 713 503 736 525 728 b 567 653 558 697 567 676 b 538 574 567 621 557 594 b 463 542 518 553 493 542 b 397 565 436 542 414 550 m 200 -278 l 221 -174 l 364 451 l 503 451 l 401 -174 l 381 -278 "},"¢":{"ha":833,"x_min":0,"x_max":0,"o":"m 501 165 b 579 250 531 183 556 211 l 746 250 b 629 72 725 181 686 121 b 421 -12 572 24 503 -6 l 393 -153 l 240 -153 l 271 1 b 119 111 206 22 156 58 b 64 306 82 164 64 229 b 107 519 64 383 78 454 b 229 676 136 583 176 636 b 415 747 282 717 344 740 l 443 889 l 596 889 l 565 736 b 711 642 626 718 675 688 b 772 486 746 596 767 544 l 606 486 b 553 567 597 519 579 546 b 446 597 525 588 489 597 b 289 521 379 597 326 572 b 231 313 250 469 231 400 b 278 182 231 253 246 210 b 397 139 308 153 349 139 b 501 165 438 139 472 147 "},"£":{"ha":833,"x_min":0,"x_max":0,"o":"m 640 694 b 615 786 642 732 633 763 b 538 819 597 808 571 819 b 456 782 506 819 478 807 b 406 668 432 757 415 719 l 382 549 l 604 549 l 572 382 l 350 382 l 329 278 b 267 167 319 224 299 188 l 739 167 l 707 0 l -8 0 l 24 167 l 51 167 b 108 197 72 167 92 176 b 142 276 124 217 135 243 l 163 382 l 65 382 l 97 549 l 196 549 l 224 692 b 338 910 242 785 281 858 b 544 986 394 961 464 986 b 754 910 635 986 706 961 b 821 694 803 858 825 788 l 640 694 "},"¤":{"ha":833,"x_min":0,"x_max":0,"o":"m 788 236 l 688 139 l 601 226 b 440 181 553 196 500 181 b 279 226 381 181 328 196 l 193 139 l 93 236 l 183 328 b 142 486 156 376 142 429 b 183 644 142 543 156 596 l 93 736 l 193 833 l 279 746 b 440 792 328 776 381 792 b 601 746 500 792 553 776 l 688 833 l 788 736 l 697 644 b 739 486 725 596 739 543 b 697 328 739 429 725 376 m 550 367 b 593 486 579 399 593 438 b 550 606 593 535 579 574 b 440 653 521 638 485 653 b 331 606 396 653 360 638 b 288 486 301 574 288 535 b 331 367 288 438 301 399 b 440 319 360 335 396 319 b 550 367 485 319 521 335 "},"¥":{"ha":833,"x_min":0,"x_max":0,"o":"m 938 972 l 628 514 l 742 514 l 713 368 l 529 368 l 496 319 l 492 299 l 700 299 l 671 153 l 464 153 l 433 0 l 246 0 l 276 153 l 67 153 l 96 299 l 304 299 l 308 319 l 294 368 l 108 368 l 138 514 l 251 514 l 118 972 l 313 972 l 404 563 l 403 438 l 431 438 l 479 563 l 729 972 "},"¦":{"ha":833,"x_min":0,"x_max":0,"o":"m 340 486 l 340 1014 l 507 1014 l 507 486 m 340 -278 l 340 250 l 507 250 l 507 -278 "},"§":{"ha":833,"x_min":0,"x_max":0,"o":"m 397 668 b 524 618 425 653 467 636 b 651 572 575 603 618 588 b 736 510 683 557 713 536 b 771 411 760 483 771 451 b 646 207 771 328 729 260 b 681 96 669 175 681 138 b 640 -42 681 44 667 -1 b 528 -135 613 -82 575 -112 b 369 -167 481 -156 428 -167 b 144 -106 278 -167 203 -146 b 42 63 85 -64 51 -8 l 228 63 b 369 -19 244 8 292 -19 b 460 11 406 -19 436 -10 b 494 88 483 32 494 57 b 453 151 494 114 481 136 b 326 201 425 167 383 183 b 200 249 275 217 232 233 b 115 310 167 264 139 283 b 79 408 92 336 79 368 b 204 613 79 492 121 560 b 169 724 181 644 169 682 b 211 861 169 775 183 821 b 322 954 238 901 275 932 b 481 986 369 975 422 986 b 707 925 572 986 647 965 b 808 757 765 883 799 828 l 622 757 b 481 839 606 811 558 839 b 392 808 444 839 415 829 b 356 732 368 788 356 763 b 397 668 356 706 369 683 m 306 381 b 417 336 329 368 365 353 b 464 319 424 333 440 328 b 526 294 488 311 508 303 b 567 336 544 307 558 321 b 579 389 575 351 579 368 b 544 439 579 410 568 426 b 433 483 521 451 485 467 b 388 500 426 486 411 492 b 324 525 364 508 342 517 b 283 483 306 513 292 499 b 271 431 275 468 271 451 b 306 381 271 410 282 393 "},"¨":{"ha":833,"x_min":0,"x_max":0,"o":"m 322 878 b 299 933 307 893 299 911 b 329 1004 299 960 308 983 b 399 1035 350 1025 372 1035 b 457 1013 422 1035 442 1028 b 479 956 472 997 479 978 b 449 885 479 929 469 906 b 379 854 428 864 406 854 b 322 878 356 854 338 863 m 600 878 b 576 933 585 893 576 911 b 607 1004 576 960 586 983 b 676 1035 628 1025 650 1035 b 735 1013 700 1035 719 1028 b 757 956 750 997 757 978 b 726 885 757 929 747 906 b 657 854 706 864 683 854 b 600 878 633 854 615 863 "},"©":{"ha":833,"x_min":0,"x_max":0,"o":"m 217 38 b 75 179 157 72 110 119 b 24 382 40 239 24 307 b 75 585 24 457 40 525 b 217 726 110 644 157 692 b 419 778 276 761 344 778 b 622 726 494 778 563 761 b 764 585 682 692 729 644 b 815 382 799 525 815 457 b 764 179 815 307 799 239 b 622 38 729 119 682 72 b 419 -14 563 3 494 -14 b 217 38 344 -14 276 3 m 624 172 b 697 382 672 222 697 292 b 624 592 697 472 672 542 b 419 667 575 642 507 667 b 215 592 332 667 264 642 b 142 382 167 542 142 472 b 215 172 142 292 167 222 b 419 97 264 122 332 97 b 624 172 507 97 575 122 m 268 219 b 211 382 231 260 211 314 b 268 544 211 450 231 504 b 419 604 306 585 357 604 b 549 561 471 604 514 590 b 614 444 583 532 606 493 l 496 444 b 419 493 481 476 454 493 b 353 465 390 493 368 483 b 329 382 338 447 329 419 b 353 299 329 344 338 317 b 419 271 368 281 390 271 b 496 319 454 271 481 288 l 614 319 b 549 203 606 271 583 232 b 419 160 514 174 471 160 b 268 219 357 160 306 179 "},"ª":{"ha":833,"x_min":0,"x_max":0,"o":"m 629 950 b 679 847 663 925 679 890 b 676 815 679 833 678 822 l 628 563 l 531 563 l 536 625 l 529 625 b 474 575 515 604 497 588 b 401 556 450 563 426 556 b 300 589 364 556 329 567 b 256 681 271 611 256 642 b 300 782 256 722 271 756 b 422 819 329 807 371 819 l 567 819 l 568 831 b 547 874 568 849 561 863 b 492 889 533 883 515 889 b 449 879 475 889 461 886 b 421 854 436 872 428 864 l 311 854 b 375 950 321 893 342 925 b 499 986 408 974 450 986 b 629 950 551 986 594 974 m 510 674 b 547 722 531 686 543 703 l 551 743 l 436 743 b 367 694 390 743 367 726 b 386 664 367 682 374 671 b 436 653 399 657 415 653 b 510 674 464 653 489 660 "},"«":{"ha":833,"x_min":0,"x_max":0,"o":"m 235 35 l 79 381 l 349 701 l 529 701 l 250 372 l 247 364 l 399 35 m 514 35 l 358 381 l 628 701 l 808 701 l 529 372 l 526 364 l 678 35 "},"¬":{"ha":833,"x_min":0,"x_max":0,"o":"m 586 229 l 586 382 l 107 382 l 107 535 l 732 535 l 732 229 "},"­":{"ha":833,"x_min":0,"x_max":0,"o":"m 172 292 l 201 438 l 658 438 l 629 292 "},"®":{"ha":833,"x_min":0,"x_max":0,"o":"m 622 726 b 764 585 682 692 729 644 b 815 382 799 525 815 457 b 764 179 815 307 799 239 b 622 38 729 119 682 72 b 419 -14 563 3 494 -14 b 217 38 344 -14 276 3 b 75 179 157 72 110 119 b 24 382 40 239 24 307 b 75 585 24 457 40 525 b 217 726 110 644 157 692 b 419 778 276 761 344 778 b 622 726 494 778 563 761 m 624 172 b 697 382 672 222 697 292 b 624 592 697 472 672 542 b 419 667 575 642 507 667 b 215 592 332 667 264 642 b 142 382 167 542 142 472 b 215 172 142 292 167 222 b 419 97 264 122 332 97 b 624 172 507 97 575 122 m 600 167 l 476 167 l 407 313 l 374 313 l 374 167 l 263 167 l 263 597 l 432 597 b 551 558 483 597 524 585 b 592 451 578 532 592 497 b 515 329 592 392 567 350 m 374 410 l 439 410 b 469 419 451 410 463 413 b 481 447 476 426 481 435 b 469 476 481 460 476 469 b 439 486 463 483 451 486 l 374 486 "},"¯":{"ha":833,"x_min":0,"x_max":0,"o":"m 308 882 l 329 993 l 746 993 l 725 882 "},"°":{"ha":833,"x_min":0,"x_max":0,"o":"m 329 638 b 268 792 289 678 268 729 b 329 947 268 854 289 907 b 483 1007 369 988 421 1007 b 639 947 546 1007 599 988 b 699 792 679 907 699 854 b 639 638 699 729 679 678 b 483 576 599 597 546 576 b 329 638 421 576 369 597 m 553 717 b 581 792 571 736 581 761 b 553 867 581 822 571 847 b 483 896 535 886 511 896 b 414 867 456 896 432 886 b 386 792 396 847 386 822 b 414 717 386 761 396 736 b 483 688 432 697 456 688 b 553 717 511 688 535 697 "},"±":{"ha":833,"x_min":0,"x_max":0,"o":"m 504 586 l 761 586 l 761 440 l 504 440 l 504 194 l 351 194 l 351 440 l 94 440 l 94 586 l 351 586 l 351 833 l 504 833 m 94 0 l 94 139 l 761 139 l 761 0 "},"²":{"ha":833,"x_min":0,"x_max":0,"o":"m 289 757 l 476 868 b 563 922 515 892 544 910 b 599 954 581 935 592 944 b 607 986 604 964 607 974 b 588 1028 607 1004 600 1018 b 531 1042 574 1038 554 1042 b 476 1022 510 1042 492 1035 b 447 972 461 1010 451 993 l 336 972 b 406 1097 343 1022 367 1064 b 544 1146 443 1129 490 1146 b 672 1103 599 1146 640 1132 b 718 1000 703 1074 718 1040 b 689 900 718 960 708 926 b 574 813 668 874 631 844 l 476 757 l 671 757 l 651 653 l 269 653 "},"³":{"ha":833,"x_min":0,"x_max":0,"o":"m 351 689 b 300 806 315 717 299 756 l 411 806 b 508 750 415 768 447 750 b 564 768 531 750 549 756 b 585 813 578 779 585 794 b 564 849 585 828 578 839 b 506 861 550 857 531 861 l 464 861 l 481 944 l 540 944 b 593 958 561 944 579 949 b 613 993 606 967 613 978 b 593 1028 613 1006 606 1018 b 529 1042 579 1038 558 1042 b 472 1028 506 1042 486 1038 b 447 986 458 1018 450 1004 l 336 986 b 393 1100 339 1031 358 1068 b 529 1146 428 1131 472 1146 b 676 1108 594 1146 644 1133 b 724 1014 708 1083 724 1051 b 699 940 724 985 715 960 b 631 899 682 919 660 906 b 679 861 651 890 668 878 b 694 801 689 843 694 824 b 640 690 694 756 676 719 b 501 646 604 661 558 646 b 351 689 436 646 386 660 "},"´":{"ha":833,"x_min":0,"x_max":0,"o":"m 364 840 l 531 1049 l 694 1049 l 493 840 "},"µ":{"ha":833,"x_min":0,"x_max":0,"o":"m 172 736 l 339 736 l 254 301 b 250 261 251 288 250 274 b 288 171 250 221 263 192 b 388 139 313 150 346 139 b 492 176 428 139 463 151 b 549 276 521 201 540 235 l 638 736 l 804 736 l 661 0 l 515 0 l 513 63 l 506 63 b 428 8 485 40 460 22 b 326 -14 396 -7 361 -14 b 256 1 300 -14 276 -10 b 204 38 235 11 217 22 l 147 -250 l -19 -250 "},"¶":{"ha":833,"x_min":0,"x_max":0,"o":"m 297 403 b 189 440 260 403 224 415 b 101 542 153 464 124 499 b 68 688 79 585 68 633 b 101 833 68 742 79 790 b 189 936 124 876 153 911 b 297 972 224 960 260 972 l 769 972 l 769 -153 l 610 -153 l 610 819 l 457 819 l 457 -153 l 297 -153 l 297 403 "},"·":{"ha":833,"x_min":0,"x_max":0,"o":"m 344 294 b 319 354 328 310 319 331 b 349 433 319 386 329 413 b 424 465 368 454 393 465 b 489 442 450 465 472 457 b 514 382 506 426 514 406 b 485 303 514 350 504 324 b 410 271 465 282 440 271 b 344 294 383 271 361 279 "},"¸":{"ha":833,"x_min":0,"x_max":0,"o":"m 333 -53 b 403 -92 363 -60 386 -72 b 426 -158 418 -111 426 -133 b 382 -267 426 -204 411 -240 b 263 -306 351 -293 311 -306 l 171 -306 l 190 -208 l 247 -208 b 299 -197 271 -208 288 -204 b 315 -164 310 -189 315 -178 b 258 -125 315 -137 296 -125 l 219 -125 l 232 -62 l 299 38 l 368 4 l 333 -53 "},"¹":{"ha":833,"x_min":0,"x_max":0,"o":"m 311 757 l 457 757 l 497 958 l 372 958 l 392 1063 l 482 1063 b 510 1072 492 1063 501 1065 b 524 1097 517 1079 522 1088 l 532 1139 l 643 1139 l 568 757 l 707 757 l 688 653 l 292 653 "},"º":{"ha":833,"x_min":0,"x_max":0,"o":"m 322 606 b 269 738 288 638 269 682 b 299 863 269 783 279 825 b 378 953 317 900 343 931 b 496 986 413 975 451 986 b 639 938 556 986 604 969 b 692 804 674 904 692 860 b 664 679 692 758 682 717 b 583 589 644 642 618 611 b 465 556 549 567 510 556 b 322 606 406 556 357 572 m 549 697 b 581 790 569 722 581 753 b 557 857 581 818 572 840 b 493 882 542 874 519 882 b 413 844 461 882 433 869 b 381 751 392 819 381 789 b 404 685 381 724 389 701 b 468 660 419 668 442 660 b 549 697 500 660 528 672 "},"»":{"ha":833,"x_min":0,"x_max":0,"o":"m 25 35 l 304 364 l 307 372 l 156 701 l 319 701 l 475 356 l 206 35 m 304 35 l 583 364 l 586 372 l 435 701 l 599 701 l 754 356 l 485 35 "},"¼":{"ha":833,"x_min":0,"x_max":0,"o":"m 36 590 l 182 590 l 222 792 l 97 792 l 117 896 l 207 896 b 235 906 217 896 226 899 b 249 931 242 913 247 921 l 257 972 l 368 972 l 293 590 l 432 590 l 413 486 l 17 486 m 490 556 l 751 972 l 921 972 l 576 556 m 560 0 l 576 83 l 340 83 l 360 188 l 626 486 l 765 486 l 707 188 l 790 188 l 771 83 l 688 83 l 671 0 m -19 0 l 325 417 l 411 417 l 150 0 m 482 188 l 596 188 l 626 340 l 619 340 "},"½":{"ha":833,"x_min":0,"x_max":0,"o":"m 36 590 l 182 590 l 222 792 l 97 792 l 117 896 l 207 896 b 235 906 217 896 226 899 b 249 931 242 913 247 921 l 257 972 l 368 972 l 293 590 l 432 590 l 413 486 l 17 486 m 490 556 l 751 972 l 921 972 l 576 556 m 403 104 l 590 215 b 676 269 629 239 658 257 b 713 301 694 282 706 292 b 721 333 718 311 721 321 b 701 375 721 351 714 365 b 644 389 688 385 668 389 b 590 369 624 389 606 382 b 561 319 575 357 565 340 l 450 319 b 519 444 457 369 481 411 b 658 493 557 476 604 493 b 786 450 713 493 754 479 b 832 347 817 421 832 388 b 803 247 832 307 822 274 b 688 160 782 221 744 192 l 590 104 l 785 104 l 765 0 l 383 0 m -19 0 l 325 417 l 411 417 l 150 0 "},"¾":{"ha":833,"x_min":0,"x_max":0,"o":"m 97 522 b 46 639 61 550 44 589 l 157 639 b 254 583 161 601 193 583 b 313 603 281 583 300 590 b 331 646 325 615 331 631 b 310 682 331 661 324 672 b 251 694 296 690 276 694 l 210 694 l 226 778 l 286 778 b 342 793 311 778 329 783 b 358 826 353 803 358 814 b 339 861 358 839 351 851 b 275 875 325 871 304 875 b 218 861 251 875 232 871 b 193 819 204 851 196 838 l 82 819 b 139 933 85 864 104 901 b 275 979 174 964 218 979 b 422 942 340 979 390 967 b 469 847 454 917 469 885 b 444 774 469 818 461 793 b 376 732 428 753 406 739 b 425 694 397 724 414 711 b 440 635 435 676 440 657 b 386 524 440 589 422 553 b 247 479 350 494 304 479 b 97 522 182 479 132 493 m 490 556 l 751 972 l 921 972 l 576 556 m 560 0 l 576 83 l 340 83 l 360 188 l 626 486 l 765 486 l 707 188 l 790 188 l 771 83 l 688 83 l 671 0 m -19 0 l 325 417 l 411 417 l 150 0 m 482 188 l 596 188 l 626 340 l 619 340 "},"¿":{"ha":833,"x_min":0,"x_max":0,"o":"m 424 565 b 399 625 407 581 399 601 b 428 704 399 657 408 683 b 503 736 447 725 472 736 b 568 713 529 736 551 728 b 593 653 585 697 593 676 b 564 574 593 621 583 594 b 489 542 544 553 519 542 b 424 565 463 542 440 550 m 204 -247 b 93 -162 157 -226 119 -199 b 53 -33 67 -125 53 -82 b 79 93 53 15 61 58 b 143 176 97 128 118 156 b 239 246 168 197 200 221 b 322 308 276 271 304 292 b 356 368 340 325 351 344 l 372 451 l 560 451 l 540 351 b 501 251 533 311 519 278 b 442 189 483 225 463 204 b 361 139 421 174 393 157 b 296 100 333 124 311 111 b 257 56 281 88 267 74 b 240 -10 246 38 240 17 b 274 -82 240 -39 251 -62 b 369 -111 296 -101 328 -111 b 464 -76 404 -111 435 -100 b 511 14 492 -53 507 -24 l 692 14 b 649 -129 689 -36 675 -83 b 538 -237 622 -174 586 -210 b 365 -278 489 -264 432 -278 b 204 -247 306 -278 251 -268 "},"À":{"ha":833,"x_min":0,"x_max":0,"o":"m 568 0 l 551 194 l 238 194 l 146 0 l -51 0 l 429 972 l 651 972 l 754 0 m 315 361 l 539 361 l 515 639 l 525 792 l 497 792 l 446 639 m 493 1063 l 375 1271 l 529 1271 l 613 1063 "},"Á":{"ha":833,"x_min":0,"x_max":0,"o":"m 568 0 l 551 194 l 238 194 l 146 0 l -51 0 l 429 972 l 651 972 l 754 0 m 315 361 l 539 361 l 515 639 l 525 792 l 497 792 l 446 639 m 479 1063 l 646 1271 l 810 1271 l 608 1063 "},"Â":{"ha":833,"x_min":0,"x_max":0,"o":"m 568 0 l 551 194 l 238 194 l 146 0 l -51 0 l 429 972 l 651 972 l 754 0 m 315 361 l 539 361 l 515 639 l 525 792 l 497 792 l 446 639 m 317 1063 l 546 1278 l 636 1278 l 782 1063 l 651 1063 l 582 1174 l 575 1174 l 464 1063 "},"Ã":{"ha":833,"x_min":0,"x_max":0,"o":"m 568 0 l 551 194 l 238 194 l 146 0 l -51 0 l 429 972 l 651 972 l 754 0 m 315 361 l 539 361 l 515 639 l 525 792 l 497 792 l 446 639 m 336 1083 b 386 1208 343 1138 360 1179 b 483 1250 413 1236 444 1250 b 532 1242 501 1250 517 1247 b 579 1218 546 1236 561 1228 b 615 1201 593 1211 606 1206 b 646 1194 625 1197 636 1194 b 685 1208 663 1194 675 1199 b 707 1250 694 1217 701 1231 l 811 1250 b 763 1126 804 1196 789 1154 b 664 1083 736 1097 703 1083 b 617 1092 646 1083 631 1086 b 568 1115 601 1097 586 1106 b 532 1133 554 1122 542 1129 b 501 1139 522 1138 511 1139 b 463 1126 485 1139 472 1135 b 440 1083 453 1117 446 1103 l 336 1083 "},"Ä":{"ha":833,"x_min":0,"x_max":0,"o":"m 568 0 l 551 194 l 238 194 l 146 0 l -51 0 l 429 972 l 651 972 l 754 0 m 315 361 l 539 361 l 515 639 l 525 792 l 497 792 l 446 639 m 372 1100 b 349 1156 357 1115 349 1133 b 379 1226 349 1182 358 1206 b 449 1257 400 1247 422 1257 b 507 1235 472 1257 492 1250 b 529 1178 522 1219 529 1200 b 499 1107 529 1151 519 1128 b 429 1076 478 1086 456 1076 b 372 1100 406 1076 388 1085 m 650 1100 b 626 1156 635 1115 626 1133 b 657 1226 626 1182 636 1206 b 726 1257 678 1247 700 1257 b 785 1235 750 1257 769 1250 b 807 1178 800 1219 807 1200 b 776 1107 807 1151 797 1128 b 707 1076 756 1086 733 1076 b 650 1100 683 1076 665 1085 "},"Å":{"ha":833,"x_min":0,"x_max":0,"o":"m 568 0 l 551 194 l 238 194 l 146 0 l -51 0 l 429 972 l 651 972 l 754 0 m 315 361 l 539 361 l 515 639 l 525 792 l 497 792 l 446 639 m 463 1065 b 424 1157 436 1090 424 1121 b 469 1274 424 1203 439 1242 b 583 1319 500 1304 538 1319 b 678 1282 621 1319 651 1307 b 715 1190 703 1257 715 1226 b 669 1075 715 1144 700 1106 b 556 1028 639 1043 601 1028 b 463 1065 518 1028 488 1040 m 613 1131 b 632 1182 625 1143 632 1161 b 617 1221 632 1197 626 1210 b 576 1236 606 1231 592 1236 b 526 1217 556 1236 539 1229 b 507 1165 514 1204 507 1186 b 524 1128 507 1150 513 1138 b 563 1111 533 1117 547 1111 b 613 1131 583 1111 600 1118 "},"Æ":{"ha":833,"x_min":0,"x_max":0,"o":"m 856 806 l 619 806 l 575 576 l 783 576 l 750 410 l 542 410 l 494 167 l 744 167 l 713 0 l 282 0 l 319 194 l 181 194 l 110 0 l -72 0 l 299 972 l 888 972 m 350 347 l 439 806 l 404 806 l 236 347 "},"Ç":{"ha":833,"x_min":0,"x_max":0,"o":"m 794 306 b 649 83 761 214 713 140 b 419 -12 585 26 508 -6 l 394 -53 b 464 -92 424 -60 447 -72 b 488 -158 479 -111 488 -133 b 443 -267 488 -204 472 -240 b 324 -306 413 -293 372 -306 l 232 -306 l 251 -208 l 308 -208 b 360 -197 332 -208 349 -204 b 376 -164 371 -189 376 -178 b 319 -125 376 -137 357 -125 l 281 -125 l 293 -62 l 328 -10 b 121 103 240 1 172 39 b 44 361 69 165 44 251 b 100 678 44 476 63 582 b 258 903 136 772 189 847 b 503 986 326 958 408 986 b 739 901 601 986 681 958 b 840 667 797 844 831 765 l 653 667 b 488 819 633 768 578 819 b 360 758 442 819 399 799 b 267 593 321 718 290 663 b 232 368 243 524 232 449 b 276 206 232 294 247 240 b 392 153 306 171 343 153 b 593 306 474 153 542 204 "},"È":{"ha":833,"x_min":0,"x_max":0,"o":"m 819 806 l 356 806 l 311 576 l 747 576 l 715 410 l 279 410 l 232 167 l 710 167 l 678 0 l 13 0 l 201 972 l 853 972 m 481 1063 l 363 1271 l 517 1271 l 600 1063 "},"É":{"ha":833,"x_min":0,"x_max":0,"o":"m 819 806 l 356 806 l 311 576 l 747 576 l 715 410 l 279 410 l 232 167 l 710 167 l 678 0 l 13 0 l 201 972 l 853 972 m 467 1063 l 633 1271 l 797 1271 l 596 1063 "},"Ê":{"ha":833,"x_min":0,"x_max":0,"o":"m 819 806 l 356 806 l 311 576 l 747 576 l 715 410 l 279 410 l 232 167 l 710 167 l 678 0 l 13 0 l 201 972 l 853 972 m 304 1063 l 533 1278 l 624 1278 l 769 1063 l 639 1063 l 569 1174 l 563 1174 l 451 1063 "},"Ë":{"ha":833,"x_min":0,"x_max":0,"o":"m 819 806 l 356 806 l 311 576 l 747 576 l 715 410 l 279 410 l 232 167 l 710 167 l 678 0 l 13 0 l 201 972 l 853 972 m 360 1100 b 336 1156 344 1115 336 1133 b 367 1226 336 1182 346 1206 b 436 1257 388 1247 410 1257 b 494 1235 460 1257 479 1250 b 517 1178 510 1219 517 1200 b 486 1107 517 1151 507 1128 b 417 1076 465 1086 443 1076 b 360 1100 393 1076 375 1085 m 638 1100 b 614 1156 622 1115 614 1133 b 644 1226 614 1182 624 1206 b 714 1257 665 1247 688 1257 b 772 1235 738 1257 757 1250 b 794 1178 788 1219 794 1200 b 764 1107 794 1151 785 1128 b 694 1076 743 1086 721 1076 b 638 1100 671 1076 653 1085 "},"Ì":{"ha":833,"x_min":0,"x_max":0,"o":"m 54 0 l 86 167 l 281 167 l 404 806 l 210 806 l 243 972 l 825 972 l 792 806 l 592 806 l 468 167 l 668 167 l 636 0 m 485 1063 l 367 1271 l 521 1271 l 604 1063 "},"Í":{"ha":833,"x_min":0,"x_max":0,"o":"m 54 0 l 86 167 l 281 167 l 404 806 l 210 806 l 243 972 l 825 972 l 792 806 l 592 806 l 468 167 l 668 167 l 636 0 m 471 1063 l 638 1271 l 801 1271 l 600 1063 "},"Î":{"ha":833,"x_min":0,"x_max":0,"o":"m 54 0 l 86 167 l 281 167 l 404 806 l 210 806 l 243 972 l 825 972 l 792 806 l 592 806 l 468 167 l 668 167 l 636 0 m 308 1063 l 538 1278 l 628 1278 l 774 1063 l 643 1063 l 574 1174 l 567 1174 l 456 1063 "},"Ï":{"ha":833,"x_min":0,"x_max":0,"o":"m 54 0 l 86 167 l 281 167 l 404 806 l 210 806 l 243 972 l 825 972 l 792 806 l 592 806 l 468 167 l 668 167 l 636 0 m 364 1100 b 340 1156 349 1115 340 1133 b 371 1226 340 1182 350 1206 b 440 1257 392 1247 414 1257 b 499 1235 464 1257 483 1250 b 521 1178 514 1219 521 1200 b 490 1107 521 1151 511 1128 b 421 1076 469 1086 447 1076 b 364 1100 397 1076 379 1085 m 642 1100 b 618 1156 626 1115 618 1133 b 649 1226 618 1182 628 1206 b 718 1257 669 1247 692 1257 b 776 1235 742 1257 761 1250 b 799 1178 792 1219 799 1200 b 768 1107 799 1151 789 1128 b 699 1076 747 1086 725 1076 b 642 1100 675 1076 657 1085 "},"Ð":{"ha":833,"x_min":0,"x_max":0,"o":"m 418 972 b 635 921 500 972 572 956 b 776 778 696 886 743 838 b 825 569 808 717 825 647 b 760 282 825 465 803 369 b 583 76 717 194 657 126 b 342 0 510 25 429 0 l 6 0 l 86 417 l 17 417 l 47 569 l 117 569 l 194 972 l 418 972 m 342 167 b 490 219 396 167 444 185 b 599 361 536 254 572 301 b 638 556 625 421 638 485 b 571 736 638 629 615 690 b 397 806 526 782 468 806 l 349 806 l 303 569 l 471 569 l 440 417 l 274 417 l 225 167 l 342 167 "},"Ñ":{"ha":833,"x_min":0,"x_max":0,"o":"m 6 0 l 194 972 l 426 972 l 565 236 l 593 236 l 586 451 l 688 972 l 875 972 l 686 0 l 454 0 l 315 736 l 288 736 l 294 521 l 193 0 m 324 1083 b 374 1208 331 1138 347 1179 b 471 1250 400 1236 432 1250 b 519 1242 489 1250 504 1247 b 567 1218 533 1236 549 1228 b 603 1201 581 1211 593 1206 b 633 1194 613 1197 624 1194 b 672 1208 650 1194 663 1199 b 694 1250 682 1217 689 1231 l 799 1250 b 750 1126 792 1196 776 1154 b 651 1083 724 1097 690 1083 b 604 1092 633 1083 618 1086 b 556 1115 589 1097 574 1106 b 519 1133 542 1122 529 1129 b 489 1139 510 1138 499 1139 b 450 1126 472 1139 460 1135 b 428 1083 440 1117 433 1103 l 324 1083 "},"Ò":{"ha":833,"x_min":0,"x_max":0,"o":"m 133 83 b 40 361 71 147 40 240 b 96 679 40 478 58 583 b 254 904 132 774 185 849 b 499 986 322 958 404 986 b 747 890 603 986 685 954 b 839 611 808 825 839 732 b 785 294 839 494 821 389 b 626 69 747 199 694 124 b 381 -14 557 14 475 -14 b 133 83 276 -14 194 18 m 521 214 b 617 378 561 254 593 308 b 651 604 640 446 651 522 b 610 764 651 672 638 726 b 492 819 582 801 543 819 b 360 760 443 819 400 800 b 264 596 319 719 288 664 b 228 368 240 526 228 450 b 269 210 228 300 242 247 b 388 153 297 172 336 153 b 521 214 436 153 481 174 m 474 1063 l 356 1271 l 510 1271 l 593 1063 "},"Ó":{"ha":833,"x_min":0,"x_max":0,"o":"m 133 83 b 40 361 71 147 40 240 b 96 679 40 478 58 583 b 254 904 132 774 185 849 b 499 986 322 958 404 986 b 747 890 603 986 685 954 b 839 611 808 825 839 732 b 785 294 839 494 821 389 b 626 69 747 199 694 124 b 381 -14 557 14 475 -14 b 133 83 276 -14 194 18 m 521 214 b 617 378 561 254 593 308 b 651 604 640 446 651 522 b 610 764 651 672 638 726 b 492 819 582 801 543 819 b 360 760 443 819 400 800 b 264 596 319 719 288 664 b 228 368 240 526 228 450 b 269 210 228 300 242 247 b 388 153 297 172 336 153 b 521 214 436 153 481 174 m 460 1063 l 626 1271 l 790 1271 l 589 1063 "},"Ô":{"ha":833,"x_min":0,"x_max":0,"o":"m 133 83 b 40 361 71 147 40 240 b 96 679 40 478 58 583 b 254 904 132 774 185 849 b 499 986 322 958 404 986 b 747 890 603 986 685 954 b 839 611 808 825 839 732 b 785 294 839 494 821 389 b 626 69 747 199 694 124 b 381 -14 557 14 475 -14 b 133 83 276 -14 194 18 m 521 214 b 617 378 561 254 593 308 b 651 604 640 446 651 522 b 610 764 651 672 638 726 b 492 819 582 801 543 819 b 360 760 443 819 400 800 b 264 596 319 719 288 664 b 228 368 240 526 228 450 b 269 210 228 300 242 247 b 388 153 297 172 336 153 b 521 214 436 153 481 174 m 297 1063 l 526 1278 l 617 1278 l 763 1063 l 632 1063 l 563 1174 l 556 1174 l 444 1063 "},"Õ":{"ha":833,"x_min":0,"x_max":0,"o":"m 133 83 b 40 361 71 147 40 240 b 96 679 40 478 58 583 b 254 904 132 774 185 849 b 499 986 322 958 404 986 b 747 890 603 986 685 954 b 839 611 808 825 839 732 b 785 294 839 494 821 389 b 626 69 747 199 694 124 b 381 -14 557 14 475 -14 b 133 83 276 -14 194 18 m 521 214 b 617 378 561 254 593 308 b 651 604 640 446 651 522 b 610 764 651 672 638 726 b 492 819 582 801 543 819 b 360 760 443 819 400 800 b 264 596 319 719 288 664 b 228 368 240 526 228 450 b 269 210 228 300 242 247 b 388 153 297 172 336 153 b 521 214 436 153 481 174 m 317 1083 b 367 1208 324 1138 340 1179 b 464 1250 393 1236 425 1250 b 513 1242 482 1250 497 1247 b 560 1218 526 1236 542 1228 b 596 1201 574 1211 586 1206 b 626 1194 606 1197 617 1194 b 665 1208 643 1194 656 1199 b 688 1250 675 1217 682 1231 l 792 1250 b 743 1126 785 1196 769 1154 b 644 1083 717 1097 683 1083 b 597 1092 626 1083 611 1086 b 549 1115 582 1097 567 1106 b 513 1133 535 1122 522 1129 b 482 1139 503 1138 492 1139 b 443 1126 465 1139 453 1135 b 421 1083 433 1117 426 1103 l 317 1083 "},"Ö":{"ha":833,"x_min":0,"x_max":0,"o":"m 133 83 b 40 361 71 147 40 240 b 96 679 40 478 58 583 b 254 904 132 774 185 849 b 499 986 322 958 404 986 b 747 890 603 986 685 954 b 839 611 808 825 839 732 b 785 294 839 494 821 389 b 626 69 747 199 694 124 b 381 -14 557 14 475 -14 b 133 83 276 -14 194 18 m 521 214 b 617 378 561 254 593 308 b 651 604 640 446 651 522 b 610 764 651 672 638 726 b 492 819 582 801 543 819 b 360 760 443 819 400 800 b 264 596 319 719 288 664 b 228 368 240 526 228 450 b 269 210 228 300 242 247 b 388 153 297 172 336 153 b 521 214 436 153 481 174 m 353 1100 b 329 1156 338 1115 329 1133 b 360 1226 329 1182 339 1206 b 429 1257 381 1247 403 1257 b 488 1235 453 1257 472 1250 b 510 1178 503 1219 510 1200 b 479 1107 510 1151 500 1128 b 410 1076 458 1086 436 1076 b 353 1100 386 1076 368 1085 m 631 1100 b 607 1156 615 1115 607 1133 b 638 1226 607 1182 617 1206 b 707 1257 658 1247 681 1257 b 765 1235 731 1257 750 1250 b 788 1178 781 1219 788 1200 b 757 1107 788 1151 778 1128 b 688 1076 736 1086 714 1076 b 631 1100 664 1076 646 1085 "},"×":{"ha":833,"x_min":0,"x_max":0,"o":"m 208 111 l 110 210 l 331 431 l 110 651 l 208 750 l 429 529 l 650 750 l 749 651 l 528 431 l 749 210 l 650 111 l 429 332 "},"Ø":{"ha":833,"x_min":0,"x_max":0,"o":"m 783 842 b 839 611 821 782 839 704 b 785 294 839 494 821 389 b 626 69 747 199 694 124 b 381 -14 557 14 475 -14 b 194 32 310 -14 247 1 l 146 -35 l -24 -35 l 96 131 b 40 361 58 190 40 268 b 96 679 40 478 58 583 b 254 904 132 774 185 849 b 499 986 322 958 404 986 b 685 940 569 986 632 971 l 733 1007 l 903 1007 m 579 794 b 492 819 554 811 525 819 b 360 760 443 819 400 800 b 264 596 319 719 288 664 b 228 368 240 526 228 450 b 231 315 228 356 229 338 m 300 178 b 388 153 325 161 354 153 b 521 214 436 153 481 174 b 617 378 561 254 593 308 b 651 604 640 446 651 522 b 649 657 651 617 650 635 "},"Ù":{"ha":833,"x_min":0,"x_max":0,"o":"m 153 64 b 67 276 96 115 67 186 b 75 363 67 303 69 332 l 194 972 l 382 972 l 260 347 b 254 296 256 332 254 314 b 292 192 254 251 267 217 b 393 153 315 165 350 153 b 503 197 439 153 475 168 b 563 333 531 226 550 271 l 688 972 l 875 972 l 747 319 b 624 74 726 213 685 131 b 386 -14 561 15 482 -14 b 153 64 288 -14 210 13 m 488 1063 l 369 1271 l 524 1271 l 607 1063 "},"Ú":{"ha":833,"x_min":0,"x_max":0,"o":"m 153 64 b 67 276 96 115 67 186 b 75 363 67 303 69 332 l 194 972 l 382 972 l 260 347 b 254 296 256 332 254 314 b 292 192 254 251 267 217 b 393 153 315 165 350 153 b 503 197 439 153 475 168 b 563 333 531 226 550 271 l 688 972 l 875 972 l 747 319 b 624 74 726 213 685 131 b 386 -14 561 15 482 -14 b 153 64 288 -14 210 13 m 474 1063 l 640 1271 l 804 1271 l 603 1063 "},"Û":{"ha":833,"x_min":0,"x_max":0,"o":"m 153 64 b 67 276 96 115 67 186 b 75 363 67 303 69 332 l 194 972 l 382 972 l 260 347 b 254 296 256 332 254 314 b 292 192 254 251 267 217 b 393 153 315 165 350 153 b 503 197 439 153 475 168 b 563 333 531 226 550 271 l 688 972 l 875 972 l 747 319 b 624 74 726 213 685 131 b 386 -14 561 15 482 -14 b 153 64 288 -14 210 13 m 311 1063 l 540 1278 l 631 1278 l 776 1063 l 646 1063 l 576 1174 l 569 1174 l 458 1063 "},"Ü":{"ha":833,"x_min":0,"x_max":0,"o":"m 153 64 b 67 276 96 115 67 186 b 75 363 67 303 69 332 l 194 972 l 382 972 l 260 347 b 254 296 256 332 254 314 b 292 192 254 251 267 217 b 393 153 315 165 350 153 b 503 197 439 153 475 168 b 563 333 531 226 550 271 l 688 972 l 875 972 l 747 319 b 624 74 726 213 685 131 b 386 -14 561 15 482 -14 b 153 64 288 -14 210 13 m 367 1100 b 343 1156 351 1115 343 1133 b 374 1226 343 1182 353 1206 b 443 1257 394 1247 417 1257 b 501 1235 467 1257 486 1250 b 524 1178 517 1219 524 1200 b 493 1107 524 1151 514 1128 b 424 1076 472 1086 450 1076 b 367 1100 400 1076 382 1085 m 644 1100 b 621 1156 629 1115 621 1133 b 651 1226 621 1182 631 1206 b 721 1257 672 1247 694 1257 b 779 1235 744 1257 764 1250 b 801 1178 794 1219 801 1200 b 771 1107 801 1151 792 1128 b 701 1076 750 1086 728 1076 b 644 1100 678 1076 660 1085 "},"Ý":{"ha":833,"x_min":0,"x_max":0,"o":"m 249 0 l 310 319 l 118 972 l 313 972 l 407 563 l 407 438 l 435 438 l 482 563 l 729 972 l 938 972 l 497 319 l 436 0 m 454 1063 l 621 1271 l 785 1271 l 583 1063 "},"Þ":{"ha":833,"x_min":0,"x_max":0,"o":"m 519 778 b 742 711 613 778 688 756 b 822 528 796 665 822 604 b 783 361 822 467 810 411 b 669 240 757 310 719 269 b 489 194 618 210 558 194 l 231 194 l 193 0 l 6 0 l 194 972 l 382 972 l 344 778 l 519 778 m 475 361 b 594 403 528 361 568 375 b 635 507 621 429 635 464 b 594 581 635 535 621 560 b 471 611 567 601 525 611 l 311 611 l 264 361 l 475 361 "},"ß":{"ha":833,"x_min":0,"x_max":0,"o":"m 181 722 b 288 917 196 806 232 871 b 500 986 343 963 414 986 b 664 956 563 986 618 976 b 769 868 710 935 746 906 b 806 743 793 831 806 789 b 757 585 806 685 789 632 b 632 489 724 536 682 504 b 724 414 671 474 701 449 b 757 292 746 378 757 338 b 718 140 757 235 744 183 b 606 38 692 96 654 61 b 438 0 557 13 501 0 l 317 0 l 347 153 l 444 153 b 549 194 486 153 521 167 b 590 299 576 222 590 257 b 556 385 590 333 579 363 b 458 417 532 406 499 417 l 399 417 l 425 556 l 486 556 b 563 578 513 556 539 563 b 618 638 586 593 604 613 b 639 715 632 661 639 688 b 603 801 639 750 626 779 b 500 833 579 822 544 833 b 397 800 458 833 424 822 b 344 707 369 776 351 746 l 206 0 l 39 0 l 181 722 "},"à":{"ha":833,"x_min":0,"x_max":0,"o":"m 128 65 b 58 278 82 118 58 189 b 101 518 58 365 72 446 b 224 688 131 589 171 646 b 410 750 276 729 339 750 b 614 660 489 750 557 719 l 621 660 l 649 736 l 794 736 l 650 0 l 504 0 l 506 76 l 499 76 b 313 -14 451 17 389 -14 b 128 65 235 -14 174 13 m 467 176 b 539 279 497 201 521 236 b 565 424 557 322 565 371 b 528 551 565 478 553 521 b 425 597 501 582 468 597 b 324 560 388 597 354 585 b 251 457 293 535 269 500 b 225 313 233 414 225 365 b 264 185 225 258 238 215 b 365 139 289 154 322 139 b 467 176 403 139 436 151 m 421 840 l 303 1049 l 457 1049 l 540 840 "},"á":{"ha":833,"x_min":0,"x_max":0,"o":"m 128 65 b 58 278 82 118 58 189 b 101 518 58 365 72 446 b 224 688 131 589 171 646 b 410 750 276 729 339 750 b 614 660 489 750 557 719 l 621 660 l 649 736 l 794 736 l 650 0 l 504 0 l 506 76 l 499 76 b 313 -14 451 17 389 -14 b 128 65 235 -14 174 13 m 467 176 b 539 279 497 201 521 236 b 565 424 557 322 565 371 b 528 551 565 478 553 521 b 425 597 501 582 468 597 b 324 560 388 597 354 585 b 251 457 293 535 269 500 b 225 313 233 414 225 365 b 264 185 225 258 238 215 b 365 139 289 154 322 139 b 467 176 403 139 436 151 m 407 840 l 574 1049 l 738 1049 l 536 840 "},"â":{"ha":833,"x_min":0,"x_max":0,"o":"m 128 65 b 58 278 82 118 58 189 b 101 518 58 365 72 446 b 224 688 131 589 171 646 b 410 750 276 729 339 750 b 614 660 489 750 557 719 l 621 660 l 649 736 l 794 736 l 650 0 l 504 0 l 506 76 l 499 76 b 313 -14 451 17 389 -14 b 128 65 235 -14 174 13 m 467 176 b 539 279 497 201 521 236 b 565 424 557 322 565 371 b 528 551 565 478 553 521 b 425 597 501 582 468 597 b 324 560 388 597 354 585 b 251 457 293 535 269 500 b 225 313 233 414 225 365 b 264 185 225 258 238 215 b 365 139 289 154 322 139 b 467 176 403 139 436 151 m 244 840 l 474 1056 l 564 1056 l 710 840 l 579 840 l 510 951 l 503 951 l 392 840 "},"ã":{"ha":833,"x_min":0,"x_max":0,"o":"m 128 65 b 58 278 82 118 58 189 b 101 518 58 365 72 446 b 224 688 131 589 171 646 b 410 750 276 729 339 750 b 614 660 489 750 557 719 l 621 660 l 649 736 l 794 736 l 650 0 l 504 0 l 506 76 l 499 76 b 313 -14 451 17 389 -14 b 128 65 235 -14 174 13 m 467 176 b 539 279 497 201 521 236 b 565 424 557 322 565 371 b 528 551 565 478 553 521 b 425 597 501 582 468 597 b 324 560 388 597 354 585 b 251 457 293 535 269 500 b 225 313 233 414 225 365 b 264 185 225 258 238 215 b 365 139 289 154 322 139 b 467 176 403 139 436 151 m 264 861 b 314 986 271 915 288 957 b 411 1028 340 1014 372 1028 b 460 1019 429 1028 444 1025 b 507 996 474 1014 489 1006 b 543 979 521 989 533 983 b 574 972 553 975 564 972 b 613 986 590 972 603 976 b 635 1028 622 994 629 1008 l 739 1028 b 690 904 732 974 717 932 b 592 861 664 875 631 861 b 544 869 574 861 558 864 b 496 893 529 875 514 883 b 460 911 482 900 469 907 b 429 917 450 915 439 917 b 390 904 413 917 400 913 b 368 861 381 894 374 881 l 264 861 "},"ä":{"ha":833,"x_min":0,"x_max":0,"o":"m 128 65 b 58 278 82 118 58 189 b 101 518 58 365 72 446 b 224 688 131 589 171 646 b 410 750 276 729 339 750 b 614 660 489 750 557 719 l 621 660 l 649 736 l 794 736 l 650 0 l 504 0 l 506 76 l 499 76 b 313 -14 451 17 389 -14 b 128 65 235 -14 174 13 m 467 176 b 539 279 497 201 521 236 b 565 424 557 322 565 371 b 528 551 565 478 553 521 b 425 597 501 582 468 597 b 324 560 388 597 354 585 b 251 457 293 535 269 500 b 225 313 233 414 225 365 b 264 185 225 258 238 215 b 365 139 289 154 322 139 b 467 176 403 139 436 151 m 300 878 b 276 933 285 893 276 911 b 307 1004 276 960 286 983 b 376 1035 328 1025 350 1035 b 435 1013 400 1035 419 1028 b 457 956 450 997 457 978 b 426 885 457 929 447 906 b 357 854 406 864 383 854 b 300 878 333 854 315 863 m 578 878 b 554 933 563 893 554 911 b 585 1004 554 960 564 983 b 654 1035 606 1025 628 1035 b 713 1013 678 1035 697 1028 b 735 956 728 997 735 978 b 704 885 735 929 725 906 b 635 854 683 864 661 854 b 578 878 611 854 593 863 "},"å":{"ha":833,"x_min":0,"x_max":0,"o":"m 128 65 b 58 278 82 118 58 189 b 101 518 58 365 72 446 b 224 688 131 589 171 646 b 410 750 276 729 339 750 b 614 660 489 750 557 719 l 621 660 l 649 736 l 794 736 l 650 0 l 504 0 l 506 76 l 499 76 b 313 -14 451 17 389 -14 b 128 65 235 -14 174 13 m 467 176 b 539 279 497 201 521 236 b 565 424 557 322 565 371 b 528 551 565 478 553 521 b 425 597 501 582 468 597 b 324 560 388 597 354 585 b 251 457 293 535 269 500 b 225 313 233 414 225 365 b 264 185 225 258 238 215 b 365 139 289 154 322 139 b 467 176 403 139 436 151 m 390 843 b 351 935 364 868 351 899 b 397 1051 351 981 367 1019 b 511 1097 428 1082 465 1097 b 606 1060 549 1097 579 1085 b 643 968 631 1035 643 1004 b 597 853 643 922 628 883 b 483 806 567 821 529 806 b 390 843 446 806 415 818 m 540 908 b 560 960 553 921 560 939 b 544 999 560 975 554 988 b 504 1014 533 1008 519 1014 b 454 994 483 1014 467 1007 b 435 943 442 982 435 964 b 451 906 435 928 440 915 b 490 889 461 894 475 889 b 540 908 511 889 528 896 "},"æ":{"ha":833,"x_min":0,"x_max":0,"o":"m 467 313 b 464 250 465 285 464 264 b 485 168 464 214 471 186 b 535 139 499 149 515 139 b 582 161 551 139 567 146 b 618 222 597 175 608 196 l 785 222 b 678 49 758 149 724 90 b 525 -14 632 7 581 -14 b 425 15 489 -14 456 -4 b 360 96 394 35 372 61 b 282 14 340 58 314 32 b 157 -14 250 -6 208 -14 b 60 11 122 -14 89 -6 b -11 81 31 28 7 51 b -37 181 -29 110 -37 143 b 33 368 -37 264 -14 326 b 219 431 81 410 143 431 l 343 431 l 353 479 b 357 521 356 493 357 507 b 343 576 357 544 353 563 b 300 597 333 590 319 597 b 250 579 279 597 263 592 b 221 521 238 567 228 547 l 61 521 b 154 689 79 592 111 647 b 304 750 197 729 247 750 b 408 722 347 750 382 740 b 461 646 435 704 451 678 b 540 722 481 678 507 703 b 644 750 574 740 608 750 b 786 679 704 750 751 726 b 836 482 819 632 836 567 b 808 313 836 417 826 361 l 467 313 m 540 553 b 485 431 517 524 497 482 l 674 431 b 679 497 678 464 679 486 b 617 597 679 564 658 597 b 540 553 589 597 564 582 m 271 176 b 313 278 290 201 304 235 l 319 313 l 226 313 b 156 281 197 313 174 301 b 129 208 138 260 129 235 b 146 160 129 190 135 174 b 192 139 157 146 172 139 b 271 176 224 139 250 151 "},"ç":{"ha":833,"x_min":0,"x_max":0,"o":"m 501 165 b 579 250 531 183 556 211 l 746 250 b 624 69 722 176 682 115 b 419 -12 565 22 497 -6 l 394 -53 b 464 -92 424 -60 447 -72 b 488 -158 479 -111 488 -133 b 443 -267 488 -204 472 -240 b 324 -306 413 -293 372 -306 l 232 -306 l 251 -208 l 308 -208 b 360 -197 332 -208 349 -204 b 376 -164 371 -189 376 -178 b 319 -125 376 -137 357 -125 l 281 -125 l 293 -62 l 328 -10 b 135 90 246 0 182 33 b 64 306 88 147 64 218 b 113 532 64 389 81 464 b 251 692 144 600 192 653 b 460 750 311 731 381 750 b 675 678 546 750 618 726 b 772 486 732 629 765 565 l 606 486 b 553 567 597 519 579 546 b 446 597 525 588 489 597 b 289 521 379 597 326 572 b 231 313 250 469 231 400 b 275 185 231 258 246 215 b 397 139 304 154 344 139 b 501 165 438 139 472 147 "},"è":{"ha":833,"x_min":0,"x_max":0,"o":"m 772 369 b 763 313 769 344 767 325 l 221 313 b 272 183 225 256 242 213 b 399 139 301 154 344 139 b 493 163 433 139 464 147 b 561 222 522 178 544 197 l 728 222 b 592 47 696 146 651 88 b 382 -14 532 7 461 -14 b 219 22 322 -14 268 -3 b 103 128 171 46 132 81 b 60 299 74 175 60 232 b 113 542 60 392 78 474 b 256 697 147 610 196 661 b 457 750 315 732 383 750 b 629 710 524 750 581 736 b 738 599 676 682 713 644 b 775 444 763 553 775 501 b 772 369 775 419 774 394 m 615 431 b 567 553 614 482 597 522 b 440 597 536 582 494 597 b 314 553 393 597 351 582 b 235 431 276 522 250 482 l 615 431 m 429 840 l 311 1049 l 465 1049 l 549 840 "},"é":{"ha":833,"x_min":0,"x_max":0,"o":"m 772 369 b 763 313 769 344 767 325 l 221 313 b 272 183 225 256 242 213 b 399 139 301 154 344 139 b 493 163 433 139 464 147 b 561 222 522 178 544 197 l 728 222 b 592 47 696 146 651 88 b 382 -14 532 7 461 -14 b 219 22 322 -14 268 -3 b 103 128 171 46 132 81 b 60 299 74 175 60 232 b 113 542 60 392 78 474 b 256 697 147 610 196 661 b 457 750 315 732 383 750 b 629 710 524 750 581 736 b 738 599 676 682 713 644 b 775 444 763 553 775 501 b 772 369 775 419 774 394 m 615 431 b 567 553 614 482 597 522 b 440 597 536 582 494 597 b 314 553 393 597 351 582 b 235 431 276 522 250 482 l 615 431 m 415 840 l 582 1049 l 746 1049 l 544 840 "},"ê":{"ha":833,"x_min":0,"x_max":0,"o":"m 772 369 b 763 313 769 344 767 325 l 221 313 b 272 183 225 256 242 213 b 399 139 301 154 344 139 b 493 163 433 139 464 147 b 561 222 522 178 544 197 l 728 222 b 592 47 696 146 651 88 b 382 -14 532 7 461 -14 b 219 22 322 -14 268 -3 b 103 128 171 46 132 81 b 60 299 74 175 60 232 b 113 542 60 392 78 474 b 256 697 147 610 196 661 b 457 750 315 732 383 750 b 629 710 524 750 581 736 b 738 599 676 682 713 644 b 775 444 763 553 775 501 b 772 369 775 419 774 394 m 615 431 b 567 553 614 482 597 522 b 440 597 536 582 494 597 b 314 553 393 597 351 582 b 235 431 276 522 250 482 l 615 431 m 253 840 l 482 1056 l 572 1056 l 718 840 l 588 840 l 518 951 l 511 951 l 400 840 "},"ë":{"ha":833,"x_min":0,"x_max":0,"o":"m 772 369 b 763 313 769 344 767 325 l 221 313 b 272 183 225 256 242 213 b 399 139 301 154 344 139 b 493 163 433 139 464 147 b 561 222 522 178 544 197 l 728 222 b 592 47 696 146 651 88 b 382 -14 532 7 461 -14 b 219 22 322 -14 268 -3 b 103 128 171 46 132 81 b 60 299 74 175 60 232 b 113 542 60 392 78 474 b 256 697 147 610 196 661 b 457 750 315 732 383 750 b 629 710 524 750 581 736 b 738 599 676 682 713 644 b 775 444 763 553 775 501 b 772 369 775 419 774 394 m 615 431 b 567 553 614 482 597 522 b 440 597 536 582 494 597 b 314 553 393 597 351 582 b 235 431 276 522 250 482 l 615 431 m 308 878 b 285 933 293 893 285 911 b 315 1004 285 960 294 983 b 385 1035 336 1025 358 1035 b 443 1013 408 1035 428 1028 b 465 956 458 997 465 978 b 435 885 465 929 456 906 b 365 854 414 864 392 854 b 308 878 342 854 324 863 m 586 878 b 563 933 571 893 563 911 b 593 1004 563 960 572 983 b 663 1035 614 1025 636 1035 b 721 1013 686 1035 706 1028 b 743 956 736 997 743 978 b 713 885 743 929 733 906 b 643 854 692 864 669 854 b 586 878 619 854 601 863 "},"ì":{"ha":833,"x_min":0,"x_max":0,"o":"m 479 0 b 319 51 411 0 357 17 b 263 192 282 85 263 132 b 268 250 263 213 264 232 l 332 583 l 138 583 l 168 736 l 529 736 l 433 243 b 432 224 432 239 432 232 b 453 172 432 203 439 185 b 507 153 465 160 483 153 l 679 153 l 650 0 l 479 0 m 401 840 l 283 1049 l 438 1049 l 521 840 "},"í":{"ha":833,"x_min":0,"x_max":0,"o":"m 479 0 b 319 51 411 0 357 17 b 263 192 282 85 263 132 b 268 250 263 213 264 232 l 332 583 l 138 583 l 168 736 l 529 736 l 433 243 b 432 224 432 239 432 232 b 453 172 432 203 439 185 b 507 153 465 160 483 153 l 679 153 l 650 0 l 479 0 m 388 840 l 554 1049 l 718 1049 l 517 840 "},"î":{"ha":833,"x_min":0,"x_max":0,"o":"m 479 0 b 319 51 411 0 357 17 b 263 192 282 85 263 132 b 268 250 263 213 264 232 l 332 583 l 138 583 l 168 736 l 529 736 l 433 243 b 432 224 432 239 432 232 b 453 172 432 203 439 185 b 507 153 465 160 483 153 l 679 153 l 650 0 l 479 0 m 225 840 l 454 1056 l 544 1056 l 690 840 l 560 840 l 490 951 l 483 951 l 372 840 "},"ï":{"ha":833,"x_min":0,"x_max":0,"o":"m 479 0 b 319 51 411 0 357 17 b 263 192 282 85 263 132 b 268 250 263 213 264 232 l 332 583 l 138 583 l 168 736 l 529 736 l 433 243 b 432 224 432 239 432 232 b 453 172 432 203 439 185 b 507 153 465 160 483 153 l 679 153 l 650 0 l 479 0 m 281 878 b 257 933 265 893 257 911 b 288 1004 257 960 267 983 b 357 1035 308 1025 331 1035 b 415 1013 381 1035 400 1028 b 438 956 431 997 438 978 b 407 885 438 929 428 906 b 338 854 386 864 364 854 b 281 878 314 854 296 863 m 558 878 b 535 933 543 893 535 911 b 565 1004 535 960 544 983 b 635 1035 586 1025 608 1035 b 693 1013 658 1035 678 1028 b 715 956 708 997 715 978 b 685 885 715 929 706 906 b 615 854 664 864 642 854 b 558 878 592 854 574 863 "},"ð":{"ha":833,"x_min":0,"x_max":0,"o":"m 656 844 b 729 678 688 793 711 738 b 754 496 746 618 754 557 b 713 238 754 400 740 314 b 586 54 685 161 643 100 b 375 -14 529 8 458 -14 b 149 65 279 -14 204 13 b 65 279 93 117 65 189 b 108 478 65 350 79 415 b 229 625 138 539 178 588 b 406 681 281 663 340 681 b 518 661 447 681 485 674 b 590 618 550 649 575 633 l 597 618 b 528 789 588 672 565 729 l 351 714 l 315 825 l 453 883 b 301 1000 408 929 358 968 l 503 1000 b 582 939 529 985 556 964 l 726 1000 l 758 888 m 486 174 b 550 261 514 196 535 225 b 572 375 565 297 572 335 b 531 488 572 424 558 461 b 418 528 503 514 465 528 b 282 460 360 528 314 506 b 233 296 250 414 233 360 b 275 181 233 247 247 208 b 385 139 301 153 339 139 b 486 174 424 139 457 150 "},"ñ":{"ha":833,"x_min":0,"x_max":0,"o":"m 176 736 l 322 736 l 325 674 l 332 674 b 413 729 351 696 378 714 b 519 750 446 743 482 750 b 636 719 561 750 600 740 b 724 631 672 699 701 668 b 756 499 744 592 756 547 b 749 435 756 481 753 460 l 665 0 l 499 0 l 583 435 b 588 475 586 449 588 463 b 551 565 588 513 575 543 b 450 597 528 586 493 597 b 346 560 410 597 375 585 b 289 460 317 535 297 501 l 200 0 l 33 0 m 290 861 b 340 986 297 915 314 957 b 438 1028 367 1014 399 1028 b 486 1019 456 1028 471 1025 b 533 996 500 1014 515 1006 b 569 979 547 989 560 983 b 600 972 579 975 590 972 b 639 986 617 972 629 976 b 661 1028 649 994 656 1008 l 765 1028 b 717 904 758 974 743 932 b 618 861 690 875 657 861 b 571 869 600 861 585 864 b 522 893 556 875 540 883 b 486 911 508 900 496 907 b 456 917 476 915 465 917 b 417 904 439 917 426 913 b 394 861 407 894 400 881 l 290 861 "},"ò":{"ha":833,"x_min":0,"x_max":0,"o":"m 211 26 b 100 138 163 53 126 89 b 60 306 74 186 60 242 b 110 536 60 392 76 468 b 250 694 143 604 190 657 b 456 750 310 732 379 750 b 624 711 519 750 575 738 b 735 599 672 685 708 647 b 774 431 761 550 774 494 b 724 200 774 344 757 268 b 585 43 690 132 644 81 b 379 -14 525 6 456 -14 b 211 26 315 -14 260 -1 m 550 215 b 607 424 588 267 607 336 b 564 551 607 478 593 521 b 442 597 535 582 493 597 b 285 521 375 597 322 572 b 226 313 246 469 226 400 b 271 185 226 258 242 215 b 393 139 300 154 340 139 b 550 215 458 139 511 164 m 429 840 l 311 1049 l 465 1049 l 549 840 "},"ó":{"ha":833,"x_min":0,"x_max":0,"o":"m 211 26 b 100 138 163 53 126 89 b 60 306 74 186 60 242 b 110 536 60 392 76 468 b 250 694 143 604 190 657 b 456 750 310 732 379 750 b 624 711 519 750 575 738 b 735 599 672 685 708 647 b 774 431 761 550 774 494 b 724 200 774 344 757 268 b 585 43 690 132 644 81 b 379 -14 525 6 456 -14 b 211 26 315 -14 260 -1 m 550 215 b 607 424 588 267 607 336 b 564 551 607 478 593 521 b 442 597 535 582 493 597 b 285 521 375 597 322 572 b 226 313 246 469 226 400 b 271 185 226 258 242 215 b 393 139 300 154 340 139 b 550 215 458 139 511 164 m 415 840 l 582 1049 l 746 1049 l 544 840 "},"ô":{"ha":833,"x_min":0,"x_max":0,"o":"m 211 26 b 100 138 163 53 126 89 b 60 306 74 186 60 242 b 110 536 60 392 76 468 b 250 694 143 604 190 657 b 456 750 310 732 379 750 b 624 711 519 750 575 738 b 735 599 672 685 708 647 b 774 431 761 550 774 494 b 724 200 774 344 757 268 b 585 43 690 132 644 81 b 379 -14 525 6 456 -14 b 211 26 315 -14 260 -1 m 550 215 b 607 424 588 267 607 336 b 564 551 607 478 593 521 b 442 597 535 582 493 597 b 285 521 375 597 322 572 b 226 313 246 469 226 400 b 271 185 226 258 242 215 b 393 139 300 154 340 139 b 550 215 458 139 511 164 m 253 840 l 482 1056 l 572 1056 l 718 840 l 588 840 l 518 951 l 511 951 l 400 840 "},"õ":{"ha":833,"x_min":0,"x_max":0,"o":"m 211 26 b 100 138 163 53 126 89 b 60 306 74 186 60 242 b 110 536 60 392 76 468 b 250 694 143 604 190 657 b 456 750 310 732 379 750 b 624 711 519 750 575 738 b 735 599 672 685 708 647 b 774 431 761 550 774 494 b 724 200 774 344 757 268 b 585 43 690 132 644 81 b 379 -14 525 6 456 -14 b 211 26 315 -14 260 -1 m 550 215 b 607 424 588 267 607 336 b 564 551 607 478 593 521 b 442 597 535 582 493 597 b 285 521 375 597 322 572 b 226 313 246 469 226 400 b 271 185 226 258 242 215 b 393 139 300 154 340 139 b 550 215 458 139 511 164 m 272 861 b 322 986 279 915 296 957 b 419 1028 349 1014 381 1028 b 468 1019 438 1028 453 1025 b 515 996 482 1014 497 1006 b 551 979 529 989 542 983 b 582 972 561 975 572 972 b 621 986 599 972 611 976 b 643 1028 631 994 638 1008 l 747 1028 b 699 904 740 974 725 932 b 600 861 672 875 639 861 b 553 869 582 861 567 864 b 504 893 538 875 522 883 b 468 911 490 900 478 907 b 438 917 458 915 447 917 b 399 904 421 917 408 913 b 376 861 389 894 382 881 l 272 861 "},"ö":{"ha":833,"x_min":0,"x_max":0,"o":"m 211 26 b 100 138 163 53 126 89 b 60 306 74 186 60 242 b 110 536 60 392 76 468 b 250 694 143 604 190 657 b 456 750 310 732 379 750 b 624 711 519 750 575 738 b 735 599 672 685 708 647 b 774 431 761 550 774 494 b 724 200 774 344 757 268 b 585 43 690 132 644 81 b 379 -14 525 6 456 -14 b 211 26 315 -14 260 -1 m 550 215 b 607 424 588 267 607 336 b 564 551 607 478 593 521 b 442 597 535 582 493 597 b 285 521 375 597 322 572 b 226 313 246 469 226 400 b 271 185 226 258 242 215 b 393 139 300 154 340 139 b 550 215 458 139 511 164 m 308 878 b 285 933 293 893 285 911 b 315 1004 285 960 294 983 b 385 1035 336 1025 358 1035 b 443 1013 408 1035 428 1028 b 465 956 458 997 465 978 b 435 885 465 929 456 906 b 365 854 414 864 392 854 b 308 878 342 854 324 863 m 586 878 b 563 933 571 893 563 911 b 593 1004 563 960 572 983 b 663 1035 614 1025 636 1035 b 721 1013 686 1035 706 1028 b 743 956 736 997 743 978 b 713 885 743 929 733 906 b 643 854 692 864 669 854 b 586 878 619 854 601 863 "},"÷":{"ha":833,"x_min":0,"x_max":0,"o":"m 361 633 b 332 701 342 653 332 675 b 361 771 332 728 342 751 b 429 799 381 789 403 799 b 499 771 456 799 479 789 b 526 701 517 751 526 728 b 499 633 526 675 517 653 b 429 604 479 614 456 604 b 361 633 403 604 381 614 m 110 361 l 110 500 l 749 500 l 749 361 m 361 92 b 332 160 342 111 332 133 b 361 229 332 186 342 210 b 429 257 381 247 403 257 b 499 229 456 257 479 247 b 526 160 517 210 526 186 b 499 92 526 133 517 111 b 429 63 479 72 456 63 b 361 92 403 63 381 72 "},"ø":{"ha":833,"x_min":0,"x_max":0,"o":"m 706 643 b 774 431 751 586 774 515 b 724 200 774 344 757 268 b 585 43 690 132 644 81 b 379 -14 525 6 456 -14 b 217 22 317 -14 263 -1 l 176 -28 l 32 -28 l 128 94 b 60 306 82 149 60 218 b 110 536 60 392 76 468 b 250 694 143 604 190 657 b 456 750 310 732 379 750 b 617 714 517 750 571 738 l 656 764 l 800 764 m 514 585 b 442 597 493 593 469 597 b 285 521 375 597 322 572 b 226 313 246 469 226 400 b 239 235 226 283 231 257 m 318 153 b 393 139 339 143 364 139 b 550 215 458 139 511 164 b 607 424 588 267 607 336 b 594 503 607 453 603 479 "},"ù":{"ha":833,"x_min":0,"x_max":0,"o":"m 193 19 b 110 111 157 42 129 72 b 79 239 89 149 79 192 b 85 301 79 263 81 283 l 168 736 l 335 736 l 250 301 b 246 261 247 288 246 274 b 282 172 246 224 258 193 b 383 139 306 150 340 139 b 488 176 424 139 458 151 b 544 276 517 201 536 235 l 633 736 l 800 736 l 657 0 l 511 0 l 508 63 l 501 63 b 422 8 482 40 456 22 b 314 -14 388 -7 351 -14 b 193 19 268 -14 228 -3 m 440 840 l 322 1049 l 476 1049 l 560 840 "},"ú":{"ha":833,"x_min":0,"x_max":0,"o":"m 193 19 b 110 111 157 42 129 72 b 79 239 89 149 79 192 b 85 301 79 263 81 283 l 168 736 l 335 736 l 250 301 b 246 261 247 288 246 274 b 282 172 246 224 258 193 b 383 139 306 150 340 139 b 488 176 424 139 458 151 b 544 276 517 201 536 235 l 633 736 l 800 736 l 657 0 l 511 0 l 508 63 l 501 63 b 422 8 482 40 456 22 b 314 -14 388 -7 351 -14 b 193 19 268 -14 228 -3 m 426 840 l 593 1049 l 757 1049 l 556 840 "},"û":{"ha":833,"x_min":0,"x_max":0,"o":"m 193 19 b 110 111 157 42 129 72 b 79 239 89 149 79 192 b 85 301 79 263 81 283 l 168 736 l 335 736 l 250 301 b 246 261 247 288 246 274 b 282 172 246 224 258 193 b 383 139 306 150 340 139 b 488 176 424 139 458 151 b 544 276 517 201 536 235 l 633 736 l 800 736 l 657 0 l 511 0 l 508 63 l 501 63 b 422 8 482 40 456 22 b 314 -14 388 -7 351 -14 b 193 19 268 -14 228 -3 m 264 840 l 493 1056 l 583 1056 l 729 840 l 599 840 l 529 951 l 522 951 l 411 840 "},"ü":{"ha":833,"x_min":0,"x_max":0,"o":"m 193 19 b 110 111 157 42 129 72 b 79 239 89 149 79 192 b 85 301 79 263 81 283 l 168 736 l 335 736 l 250 301 b 246 261 247 288 246 274 b 282 172 246 224 258 193 b 383 139 306 150 340 139 b 488 176 424 139 458 151 b 544 276 517 201 536 235 l 633 736 l 800 736 l 657 0 l 511 0 l 508 63 l 501 63 b 422 8 482 40 456 22 b 314 -14 388 -7 351 -14 b 193 19 268 -14 228 -3 m 319 878 b 296 933 304 893 296 911 b 326 1004 296 960 306 983 b 396 1035 347 1025 369 1035 b 454 1013 419 1035 439 1028 b 476 956 469 997 476 978 b 446 885 476 929 467 906 b 376 854 425 864 403 854 b 319 878 353 854 335 863 m 597 878 b 574 933 582 893 574 911 b 604 1004 574 960 583 983 b 674 1035 625 1025 647 1035 b 732 1013 697 1035 717 1028 b 754 956 747 997 754 978 b 724 885 754 929 744 906 b 654 854 703 864 681 854 b 597 878 631 854 613 863 "},"ý":{"ha":833,"x_min":0,"x_max":0,"o":"m 135 -217 b 42 -56 82 -175 51 -121 l 208 -56 b 254 -107 215 -76 231 -94 b 338 -125 278 -119 306 -125 b 440 -89 379 -125 414 -112 b 493 14 467 -65 485 -31 l 513 118 l 506 118 b 321 42 451 67 389 42 b 203 76 276 42 238 53 b 121 168 168 99 140 129 b 90 296 100 206 90 249 b 96 357 90 318 92 339 l 168 736 l 335 736 l 261 357 b 257 317 258 343 257 329 b 292 228 257 279 268 249 b 389 194 315 206 347 194 b 499 233 432 194 469 207 b 557 339 528 258 547 293 l 633 736 l 800 736 l 660 11 b 544 -200 642 -78 604 -149 b 325 -278 485 -251 411 -278 b 135 -217 250 -278 186 -257 m 426 840 l 593 1049 l 757 1049 l 556 840 "},"þ":{"ha":833,"x_min":0,"x_max":0,"o":"m 231 972 l 397 972 l 336 667 l 343 667 b 418 728 361 693 386 713 b 515 750 450 743 482 750 b 703 678 590 750 653 726 b 776 458 751 629 776 556 b 733 219 776 371 763 290 b 611 49 704 147 664 90 b 425 -14 557 7 496 -14 b 318 8 388 -14 353 -7 b 228 69 283 22 254 43 l 221 69 l 153 -278 l -14 -278 m 503 171 b 579 268 533 192 558 225 b 610 424 600 311 610 363 b 572 551 610 478 597 521 b 471 597 547 582 514 597 b 378 565 439 597 408 586 b 300 469 346 544 321 513 b 269 313 279 426 269 374 b 307 185 269 258 282 215 b 408 139 332 154 365 139 b 503 171 440 139 471 150 "},"ÿ":{"ha":833,"x_min":0,"x_max":0,"o":"m 135 -217 b 42 -56 82 -175 51 -121 l 208 -56 b 254 -107 215 -76 231 -94 b 338 -125 278 -119 306 -125 b 440 -89 379 -125 414 -112 b 493 14 467 -65 485 -31 l 513 118 l 506 118 b 321 42 451 67 389 42 b 203 76 276 42 238 53 b 121 168 168 99 140 129 b 90 296 100 206 90 249 b 96 357 90 318 92 339 l 168 736 l 335 736 l 261 357 b 257 317 258 343 257 329 b 292 228 257 279 268 249 b 389 194 315 206 347 194 b 499 233 432 194 469 207 b 557 339 528 258 547 293 l 633 736 l 800 736 l 660 11 b 544 -200 642 -78 604 -149 b 325 -278 485 -251 411 -278 b 135 -217 250 -278 186 -257 m 319 878 b 296 933 304 893 296 911 b 326 1004 296 960 306 983 b 396 1035 347 1025 369 1035 b 454 1013 419 1035 439 1028 b 476 956 469 997 476 978 b 446 885 476 929 467 906 b 376 854 425 864 403 854 b 319 878 353 854 335 863 m 597 878 b 574 933 582 893 574 911 b 604 1004 574 960 583 983 b 674 1035 625 1025 647 1035 b 732 1013 697 1035 717 1028 b 754 956 747 997 754 978 b 724 885 754 929 744 906 b 654 854 703 864 681 854 b 597 878 631 854 613 863 "},"Ā":{"ha":833,"x_min":0,"x_max":0,"o":"m 568 0 l 551 194 l 238 194 l 146 0 l -51 0 l 429 972 l 651 972 l 754 0 m 315 361 l 539 361 l 515 639 l 525 792 l 497 792 l 446 639 m 358 1104 l 379 1215 l 796 1215 l 775 1104 "},"ā":{"ha":833,"x_min":0,"x_max":0,"o":"m 128 65 b 58 278 82 118 58 189 b 101 518 58 365 72 446 b 224 688 131 589 171 646 b 410 750 276 729 339 750 b 614 660 489 750 557 719 l 621 660 l 649 736 l 794 736 l 650 0 l 504 0 l 506 76 l 499 76 b 313 -14 451 17 389 -14 b 128 65 235 -14 174 13 m 467 176 b 539 279 497 201 521 236 b 565 424 557 322 565 371 b 528 551 565 478 553 521 b 425 597 501 582 468 597 b 324 560 388 597 354 585 b 251 457 293 535 269 500 b 225 313 233 414 225 365 b 264 185 225 258 238 215 b 365 139 289 154 322 139 b 467 176 403 139 436 151 m 286 882 l 307 993 l 724 993 l 703 882 "},"Ă":{"ha":833,"x_min":0,"x_max":0,"o":"m 568 0 l 551 194 l 238 194 l 146 0 l -51 0 l 429 972 l 651 972 l 754 0 m 315 361 l 539 361 l 515 639 l 525 792 l 497 792 l 446 639 m 406 1117 b 351 1271 365 1153 347 1204 l 469 1271 b 493 1194 467 1238 475 1213 b 563 1167 511 1176 533 1167 b 635 1193 590 1167 614 1175 b 678 1271 654 1210 668 1236 l 796 1271 b 710 1117 782 1203 753 1151 b 557 1063 667 1081 615 1063 b 406 1117 494 1063 444 1081 "},"ă":{"ha":833,"x_min":0,"x_max":0,"o":"m 128 65 b 58 278 82 118 58 189 b 101 518 58 365 72 446 b 224 688 131 589 171 646 b 410 750 276 729 339 750 b 614 660 489 750 557 719 l 621 660 l 649 736 l 794 736 l 650 0 l 504 0 l 506 76 l 499 76 b 313 -14 451 17 389 -14 b 128 65 235 -14 174 13 m 467 176 b 539 279 497 201 521 236 b 565 424 557 322 565 371 b 528 551 565 478 553 521 b 425 597 501 582 468 597 b 324 560 388 597 354 585 b 251 457 293 535 269 500 b 225 313 233 414 225 365 b 264 185 225 258 238 215 b 365 139 289 154 322 139 b 467 176 403 139 436 151 m 335 894 b 281 1049 294 931 276 982 l 399 1049 b 422 972 396 1015 404 990 b 492 944 440 954 463 944 b 564 971 519 944 543 953 b 607 1049 583 988 597 1014 l 725 1049 b 639 894 711 981 682 929 b 486 840 596 858 544 840 b 335 894 424 840 374 858 "},"Ą":{"ha":833,"x_min":0,"x_max":0,"o":"m 629 -185 b 685 -201 643 -196 661 -201 l 715 -201 l 694 -306 l 664 -306 b 536 -268 608 -306 565 -293 b 490 -172 506 -243 490 -211 b 618 0 490 -97 533 -40 l 568 0 l 551 194 l 238 194 l 146 0 l -51 0 l 429 972 l 651 972 l 754 0 b 643 -65 703 -22 665 -44 b 608 -142 619 -86 608 -112 b 629 -185 608 -158 615 -172 m 315 361 l 539 361 l 515 639 l 525 792 l 497 792 l 446 639 "},"ą":{"ha":833,"x_min":0,"x_max":0,"o":"m 650 0 b 539 -65 599 -22 561 -44 b 504 -142 515 -86 504 -112 b 525 -185 504 -158 511 -172 b 581 -201 539 -196 557 -201 l 611 -201 l 590 -306 l 560 -306 b 432 -268 504 -306 461 -293 b 386 -172 401 -243 386 -211 b 514 0 386 -97 429 -40 l 504 0 l 506 76 l 499 76 b 313 -14 451 17 389 -14 b 128 65 235 -14 174 13 b 58 278 82 118 58 189 b 101 518 58 365 72 446 b 224 688 131 589 171 646 b 410 750 276 729 339 750 b 614 660 489 750 557 719 l 621 660 l 649 736 l 794 736 l 650 0 m 467 176 b 539 279 497 201 521 236 b 565 424 557 322 565 371 b 528 551 565 478 553 521 b 425 597 501 582 468 597 b 324 560 388 597 354 585 b 251 457 293 535 269 500 b 225 313 233 414 225 365 b 264 185 225 258 238 215 b 365 139 289 154 322 139 b 467 176 403 139 436 151 "},"Ć":{"ha":833,"x_min":0,"x_max":0,"o":"m 138 83 b 44 361 75 147 44 240 b 100 678 44 476 63 582 b 258 903 136 772 189 847 b 503 986 326 958 408 986 b 739 901 601 986 681 958 b 840 667 797 844 831 765 l 653 667 b 488 819 633 768 578 819 b 360 758 442 819 399 799 b 267 593 321 718 290 663 b 232 368 243 524 232 449 b 276 206 232 294 247 240 b 392 153 306 171 343 153 b 593 306 474 153 542 204 l 794 306 b 638 72 760 207 707 129 b 385 -14 567 15 483 -14 b 138 83 281 -14 199 18 m 469 1063 l 636 1271 l 800 1271 l 599 1063 "},"ć":{"ha":833,"x_min":0,"x_max":0,"o":"m 215 26 b 104 138 167 53 131 89 b 64 306 78 186 64 242 b 113 532 64 389 81 464 b 251 692 144 600 192 653 b 460 750 311 731 381 750 b 675 678 546 750 618 726 b 772 486 732 629 765 565 l 606 486 b 553 567 597 519 579 546 b 446 597 525 588 489 597 b 289 521 379 597 326 572 b 231 313 250 469 231 400 b 275 185 231 258 246 215 b 397 139 304 154 344 139 b 501 165 438 139 472 147 b 579 250 531 183 556 211 l 746 250 b 610 58 721 169 675 106 b 383 -14 544 10 468 -14 b 215 26 319 -14 264 -1 m 422 840 l 589 1049 l 753 1049 l 551 840 "},"Ĉ":{"ha":833,"x_min":0,"x_max":0,"o":"m 138 83 b 44 361 75 147 44 240 b 100 678 44 476 63 582 b 258 903 136 772 189 847 b 503 986 326 958 408 986 b 739 901 601 986 681 958 b 840 667 797 844 831 765 l 653 667 b 488 819 633 768 578 819 b 360 758 442 819 399 799 b 267 593 321 718 290 663 b 232 368 243 524 232 449 b 276 206 232 294 247 240 b 392 153 306 171 343 153 b 593 306 474 153 542 204 l 794 306 b 638 72 760 207 707 129 b 385 -14 567 15 483 -14 b 138 83 281 -14 199 18 m 307 1063 l 536 1278 l 626 1278 l 772 1063 l 642 1063 l 572 1174 l 565 1174 l 454 1063 "},"ĉ":{"ha":833,"x_min":0,"x_max":0,"o":"m 215 26 b 104 138 167 53 131 89 b 64 306 78 186 64 242 b 113 532 64 389 81 464 b 251 692 144 600 192 653 b 460 750 311 731 381 750 b 675 678 546 750 618 726 b 772 486 732 629 765 565 l 606 486 b 553 567 597 519 579 546 b 446 597 525 588 489 597 b 289 521 379 597 326 572 b 231 313 250 469 231 400 b 275 185 231 258 246 215 b 397 139 304 154 344 139 b 501 165 438 139 472 147 b 579 250 531 183 556 211 l 746 250 b 610 58 721 169 675 106 b 383 -14 544 10 468 -14 b 215 26 319 -14 264 -1 m 260 840 l 489 1056 l 579 1056 l 725 840 l 594 840 l 525 951 l 518 951 l 407 840 "},"Ċ":{"ha":833,"x_min":0,"x_max":0,"o":"m 138 83 b 44 361 75 147 44 240 b 100 678 44 476 63 582 b 258 903 136 772 189 847 b 503 986 326 958 408 986 b 739 901 601 986 681 958 b 840 667 797 844 831 765 l 653 667 b 488 819 633 768 578 819 b 360 758 442 819 399 799 b 267 593 321 718 290 663 b 232 368 243 524 232 449 b 276 206 232 294 247 240 b 392 153 306 171 343 153 b 593 306 474 153 542 204 l 794 306 b 638 72 760 207 707 129 b 385 -14 567 15 483 -14 b 138 83 281 -14 199 18 m 501 1100 b 478 1156 486 1115 478 1133 b 508 1226 478 1182 488 1206 b 578 1257 529 1247 551 1257 b 636 1235 601 1257 621 1250 b 658 1178 651 1219 658 1200 b 628 1107 658 1151 649 1128 b 558 1076 607 1086 585 1076 b 501 1100 535 1076 517 1085 "},"ċ":{"ha":833,"x_min":0,"x_max":0,"o":"m 215 26 b 104 138 167 53 131 89 b 64 306 78 186 64 242 b 113 532 64 389 81 464 b 251 692 144 600 192 653 b 460 750 311 731 381 750 b 675 678 546 750 618 726 b 772 486 732 629 765 565 l 606 486 b 553 567 597 519 579 546 b 446 597 525 588 489 597 b 289 521 379 597 326 572 b 231 313 250 469 231 400 b 275 185 231 258 246 215 b 397 139 304 154 344 139 b 501 165 438 139 472 147 b 579 250 531 183 556 211 l 746 250 b 610 58 721 169 675 106 b 383 -14 544 10 468 -14 b 215 26 319 -14 264 -1 m 454 878 b 431 933 439 893 431 911 b 461 1004 431 960 440 983 b 531 1035 482 1025 504 1035 b 589 1013 554 1035 574 1028 b 611 956 604 997 611 978 b 581 885 611 929 601 906 b 511 854 560 864 538 854 b 454 878 488 854 469 863 "},"Č":{"ha":833,"x_min":0,"x_max":0,"o":"m 138 83 b 44 361 75 147 44 240 b 100 678 44 476 63 582 b 258 903 136 772 189 847 b 503 986 326 958 408 986 b 739 901 601 986 681 958 b 840 667 797 844 831 765 l 653 667 b 488 819 633 768 578 819 b 360 758 442 819 399 799 b 267 593 321 718 290 663 b 232 368 243 524 232 449 b 276 206 232 294 247 240 b 392 153 306 171 343 153 b 593 306 474 153 542 204 l 794 306 b 638 72 760 207 707 129 b 385 -14 567 15 483 -14 b 138 83 281 -14 199 18 m 503 1063 l 357 1278 l 488 1278 l 557 1167 l 564 1167 l 675 1278 l 822 1278 l 593 1063 "},"č":{"ha":833,"x_min":0,"x_max":0,"o":"m 215 26 b 104 138 167 53 131 89 b 64 306 78 186 64 242 b 113 532 64 389 81 464 b 251 692 144 600 192 653 b 460 750 311 731 381 750 b 675 678 546 750 618 726 b 772 486 732 629 765 565 l 606 486 b 553 567 597 519 579 546 b 446 597 525 588 489 597 b 289 521 379 597 326 572 b 231 313 250 469 231 400 b 275 185 231 258 246 215 b 397 139 304 154 344 139 b 501 165 438 139 472 147 b 579 250 531 183 556 211 l 746 250 b 610 58 721 169 675 106 b 383 -14 544 10 468 -14 b 215 26 319 -14 264 -1 m 456 840 l 310 1056 l 440 1056 l 510 944 l 517 944 l 628 1056 l 775 1056 l 546 840 "},"Ď":{"ha":833,"x_min":0,"x_max":0,"o":"m 194 972 l 418 972 b 635 921 500 972 572 956 b 776 778 696 886 743 838 b 825 569 808 717 825 647 b 760 282 825 465 803 369 b 583 76 717 194 657 126 b 342 0 510 25 429 0 l 6 0 m 342 167 b 490 219 396 167 444 185 b 599 361 536 254 572 301 b 638 556 625 421 638 485 b 571 736 638 629 615 690 b 397 806 526 782 468 806 l 349 806 l 225 167 l 342 167 m 490 1063 l 344 1278 l 475 1278 l 544 1167 l 551 1167 l 663 1278 l 810 1278 l 581 1063 "},"ď":{"ha":833,"x_min":0,"x_max":0,"o":"m 188 18 b 94 114 149 39 118 71 b 58 278 71 157 58 213 b 101 518 58 365 72 446 b 225 688 131 589 171 646 b 410 750 278 729 339 750 b 522 726 450 750 488 742 b 607 667 556 711 583 690 l 614 667 l 674 972 l 840 972 l 650 0 l 504 0 l 506 76 l 499 76 b 313 -14 451 17 389 -14 b 188 18 267 -14 225 -4 m 467 176 b 539 279 497 201 521 236 b 565 424 557 322 565 371 b 528 551 565 478 553 521 b 426 597 503 582 469 597 b 325 560 389 597 356 585 b 251 457 293 535 269 500 b 225 313 233 414 225 365 b 264 185 225 258 238 215 b 365 139 289 154 322 139 b 467 176 403 139 436 151 m 842 736 l 951 972 l 1093 972 l 943 736 "},"Đ":{"ha":833,"x_min":0,"x_max":0,"o":"m 418 972 b 635 921 500 972 572 956 b 776 778 696 886 743 838 b 825 569 808 717 825 647 b 760 282 825 465 803 369 b 583 76 717 194 657 126 b 342 0 510 25 429 0 l 6 0 l 86 417 l 17 417 l 47 569 l 117 569 l 194 972 l 418 972 m 342 167 b 490 219 396 167 444 185 b 599 361 536 254 572 301 b 638 556 625 421 638 485 b 571 736 638 629 615 690 b 397 806 526 782 468 806 l 349 806 l 303 569 l 471 569 l 440 417 l 274 417 l 225 167 l 342 167 "},"đ":{"ha":833,"x_min":0,"x_max":0,"o":"m 893 743 l 796 743 l 651 0 l 506 0 l 507 76 l 500 76 b 422 14 483 53 457 32 b 313 -14 388 -6 350 -14 b 122 63 232 -14 168 11 b 53 264 76 113 53 179 b 97 476 53 342 68 413 b 218 626 126 539 167 589 b 389 681 269 663 326 681 b 507 657 429 681 468 672 b 594 597 544 642 574 621 l 601 597 l 629 743 l 451 743 l 478 882 l 656 882 l 674 972 l 840 972 l 822 882 l 919 882 m 467 169 b 535 254 496 190 518 218 b 560 375 551 290 560 331 b 518 486 560 421 546 457 b 410 528 489 514 453 528 b 314 497 375 528 343 518 b 244 413 285 476 261 449 b 219 292 228 376 219 336 b 261 182 219 247 233 211 b 368 139 289 153 325 139 b 467 169 404 139 438 149 "},"Ē":{"ha":833,"x_min":0,"x_max":0,"o":"m 819 806 l 356 806 l 311 576 l 747 576 l 715 410 l 279 410 l 232 167 l 710 167 l 678 0 l 13 0 l 201 972 l 853 972 m 346 1104 l 367 1215 l 783 1215 l 763 1104 "},"ē":{"ha":833,"x_min":0,"x_max":0,"o":"m 772 369 b 763 313 769 344 767 325 l 221 313 b 272 183 225 256 242 213 b 399 139 301 154 344 139 b 493 163 433 139 464 147 b 561 222 522 178 544 197 l 728 222 b 592 47 696 146 651 88 b 382 -14 532 7 461 -14 b 219 22 322 -14 268 -3 b 103 128 171 46 132 81 b 60 299 74 175 60 232 b 113 542 60 392 78 474 b 256 697 147 610 196 661 b 457 750 315 732 383 750 b 629 710 524 750 581 736 b 738 599 676 682 713 644 b 775 444 763 553 775 501 b 772 369 775 419 774 394 m 615 431 b 567 553 614 482 597 522 b 440 597 536 582 494 597 b 314 553 393 597 351 582 b 235 431 276 522 250 482 l 615 431 m 294 882 l 315 993 l 732 993 l 711 882 "},"Ĕ":{"ha":833,"x_min":0,"x_max":0,"o":"m 819 806 l 356 806 l 311 576 l 747 576 l 715 410 l 279 410 l 232 167 l 710 167 l 678 0 l 13 0 l 201 972 l 853 972 m 393 1117 b 339 1271 353 1153 335 1204 l 457 1271 b 481 1194 454 1238 463 1213 b 550 1167 499 1176 521 1167 b 622 1193 578 1167 601 1175 b 665 1271 642 1210 656 1236 l 783 1271 b 697 1117 769 1203 740 1151 b 544 1063 654 1081 603 1063 b 393 1117 482 1063 432 1081 "},"ĕ":{"ha":833,"x_min":0,"x_max":0,"o":"m 772 369 b 763 313 769 344 767 325 l 221 313 b 272 183 225 256 242 213 b 399 139 301 154 344 139 b 493 163 433 139 464 147 b 561 222 522 178 544 197 l 728 222 b 592 47 696 146 651 88 b 382 -14 532 7 461 -14 b 219 22 322 -14 268 -3 b 103 128 171 46 132 81 b 60 299 74 175 60 232 b 113 542 60 392 78 474 b 256 697 147 610 196 661 b 457 750 315 732 383 750 b 629 710 524 750 581 736 b 738 599 676 682 713 644 b 775 444 763 553 775 501 b 772 369 775 419 774 394 m 615 431 b 567 553 614 482 597 522 b 440 597 536 582 494 597 b 314 553 393 597 351 582 b 235 431 276 522 250 482 l 615 431 m 343 894 b 289 1049 303 931 285 982 l 407 1049 b 431 972 404 1015 413 990 b 500 944 449 954 471 944 b 572 971 528 944 551 953 b 615 1049 592 988 606 1014 l 733 1049 b 647 894 719 981 690 929 b 494 840 604 858 553 840 b 343 894 432 840 382 858 "},"Ė":{"ha":833,"x_min":0,"x_max":0,"o":"m 819 806 l 356 806 l 311 576 l 747 576 l 715 410 l 279 410 l 232 167 l 710 167 l 678 0 l 13 0 l 201 972 l 853 972 m 499 1100 b 475 1156 483 1115 475 1133 b 506 1226 475 1182 485 1206 b 575 1257 526 1247 549 1257 b 633 1235 599 1257 618 1250 b 656 1178 649 1219 656 1200 b 625 1107 656 1151 646 1128 b 556 1076 604 1086 582 1076 b 499 1100 532 1076 514 1085 "},"ė":{"ha":833,"x_min":0,"x_max":0,"o":"m 772 369 b 763 313 769 344 767 325 l 221 313 b 272 183 225 256 242 213 b 399 139 301 154 344 139 b 493 163 433 139 464 147 b 561 222 522 178 544 197 l 728 222 b 592 47 696 146 651 88 b 382 -14 532 7 461 -14 b 219 22 322 -14 268 -3 b 103 128 171 46 132 81 b 60 299 74 175 60 232 b 113 542 60 392 78 474 b 256 697 147 610 196 661 b 457 750 315 732 383 750 b 629 710 524 750 581 736 b 738 599 676 682 713 644 b 775 444 763 553 775 501 b 772 369 775 419 774 394 m 615 431 b 567 553 614 482 597 522 b 440 597 536 582 494 597 b 314 553 393 597 351 582 b 235 431 276 522 250 482 l 615 431 m 447 878 b 424 933 432 893 424 911 b 454 1004 424 960 433 983 b 524 1035 475 1025 497 1035 b 582 1013 547 1035 567 1028 b 604 956 597 997 604 978 b 574 885 604 929 594 906 b 504 854 553 864 531 854 b 447 878 481 854 463 863 "},"Ę":{"ha":833,"x_min":0,"x_max":0,"o":"m 356 806 l 311 576 l 747 576 l 715 410 l 279 410 l 232 167 l 710 167 l 678 0 b 567 -65 626 -22 589 -44 b 532 -142 543 -86 532 -112 b 553 -185 532 -158 539 -172 b 608 -201 567 -196 585 -201 l 639 -201 l 618 -306 l 588 -306 b 460 -268 532 -306 489 -293 b 414 -172 429 -243 414 -211 b 542 0 414 -97 457 -40 l 13 0 l 201 972 l 853 972 l 819 806 "},"ę":{"ha":833,"x_min":0,"x_max":0,"o":"m 221 313 b 272 183 225 256 242 213 b 399 139 301 154 344 139 b 493 163 433 139 464 147 b 561 222 522 178 544 197 l 728 222 b 665 113 711 179 690 142 b 568 15 639 82 607 50 b 492 -65 533 -17 507 -43 b 467 -142 475 -86 467 -112 b 488 -185 467 -158 474 -172 b 543 -201 501 -196 519 -201 l 574 -201 l 553 -306 l 522 -306 b 394 -268 467 -306 424 -293 b 349 -172 364 -243 349 -211 b 375 -79 349 -137 357 -106 b 454 -7 392 -51 418 -28 b 382 -14 429 -11 406 -14 b 214 25 318 -14 263 -1 b 100 135 165 51 126 88 b 60 299 74 182 60 236 b 110 533 60 386 76 465 b 250 693 143 601 190 656 b 457 750 310 731 379 750 b 629 710 524 750 581 736 b 738 599 676 682 713 644 b 775 444 763 553 775 501 b 763 313 775 386 771 342 m 615 431 b 567 553 614 482 597 522 b 440 597 536 582 494 597 b 314 553 393 597 351 582 b 235 431 276 522 250 482 l 615 431 "},"Ě":{"ha":833,"x_min":0,"x_max":0,"o":"m 819 806 l 356 806 l 311 576 l 747 576 l 715 410 l 279 410 l 232 167 l 710 167 l 678 0 l 13 0 l 201 972 l 853 972 m 500 1063 l 354 1278 l 485 1278 l 554 1167 l 561 1167 l 672 1278 l 819 1278 l 590 1063 "},"ě":{"ha":833,"x_min":0,"x_max":0,"o":"m 772 369 b 763 313 769 344 767 325 l 221 313 b 272 183 225 256 242 213 b 399 139 301 154 344 139 b 493 163 433 139 464 147 b 561 222 522 178 544 197 l 728 222 b 592 47 696 146 651 88 b 382 -14 532 7 461 -14 b 219 22 322 -14 268 -3 b 103 128 171 46 132 81 b 60 299 74 175 60 232 b 113 542 60 392 78 474 b 256 697 147 610 196 661 b 457 750 315 732 383 750 b 629 710 524 750 581 736 b 738 599 676 682 713 644 b 775 444 763 553 775 501 b 772 369 775 419 774 394 m 615 431 b 567 553 614 482 597 522 b 440 597 536 582 494 597 b 314 553 393 597 351 582 b 235 431 276 522 250 482 l 615 431 m 449 840 l 303 1056 l 433 1056 l 503 944 l 510 944 l 621 1056 l 768 1056 l 539 840 "},"Ĝ":{"ha":833,"x_min":0,"x_max":0,"o":"m 133 83 b 40 361 71 147 40 240 b 96 679 40 478 58 583 b 254 904 132 774 185 849 b 499 986 322 958 404 986 b 733 903 596 986 674 958 b 836 667 793 846 826 768 l 649 667 b 594 781 639 717 621 754 b 492 819 568 807 533 819 b 360 760 443 819 400 800 b 264 596 319 719 288 664 b 228 368 240 526 228 450 b 272 206 228 294 243 240 b 388 153 301 171 339 153 b 517 208 433 153 476 171 b 608 354 557 244 588 293 l 425 354 l 457 521 l 838 521 l 829 465 b 751 224 815 376 789 296 b 600 51 714 151 663 94 b 381 -14 538 8 464 -14 b 133 83 276 -14 194 18 m 297 1063 l 526 1278 l 617 1278 l 763 1063 l 632 1063 l 563 1174 l 556 1174 l 444 1063 "},"ĝ":{"ha":833,"x_min":0,"x_max":0,"o":"m 157 -249 b 42 -162 108 -228 69 -200 b -1 -28 13 -125 -1 -79 l 165 -28 b 325 -125 183 -93 236 -125 b 436 -89 368 -125 404 -112 b 493 11 467 -64 486 -31 l 513 115 l 506 115 b 419 60 476 89 449 71 b 318 42 390 47 356 42 b 132 117 240 42 178 67 b 61 319 85 165 61 233 b 106 539 61 400 76 474 b 228 694 135 604 176 657 b 401 750 279 732 338 750 b 528 722 447 750 489 740 b 614 647 567 703 596 678 l 621 647 l 653 736 l 801 736 l 657 -4 b 543 -206 640 -90 603 -157 b 318 -278 483 -254 408 -278 b 157 -249 258 -278 206 -268 m 468 224 b 540 308 497 242 522 271 b 568 444 558 346 568 392 b 529 557 568 493 556 531 b 422 597 503 583 468 597 b 322 565 385 597 351 586 b 253 476 293 544 269 514 b 228 347 236 439 228 396 b 267 235 228 299 240 261 b 374 194 293 208 328 194 b 468 224 407 194 439 204 m 244 840 l 474 1056 l 564 1056 l 710 840 l 579 840 l 510 951 l 503 951 l 392 840 "},"Ğ":{"ha":833,"x_min":0,"x_max":0,"o":"m 133 83 b 40 361 71 147 40 240 b 96 679 40 478 58 583 b 254 904 132 774 185 849 b 499 986 322 958 404 986 b 733 903 596 986 674 958 b 836 667 793 846 826 768 l 649 667 b 594 781 639 717 621 754 b 492 819 568 807 533 819 b 360 760 443 819 400 800 b 264 596 319 719 288 664 b 228 368 240 526 228 450 b 272 206 228 294 243 240 b 388 153 301 171 339 153 b 517 208 433 153 476 171 b 608 354 557 244 588 293 l 425 354 l 457 521 l 838 521 l 829 465 b 751 224 815 376 789 296 b 600 51 714 151 663 94 b 381 -14 538 8 464 -14 b 133 83 276 -14 194 18 m 386 1117 b 332 1271 346 1153 328 1204 l 450 1271 b 474 1194 447 1238 456 1213 b 543 1167 492 1176 514 1167 b 615 1193 571 1167 594 1175 b 658 1271 635 1210 649 1236 l 776 1271 b 690 1117 763 1203 733 1151 b 538 1063 647 1081 596 1063 b 386 1117 475 1063 425 1081 "},"ğ":{"ha":833,"x_min":0,"x_max":0,"o":"m 157 -249 b 42 -162 108 -228 69 -200 b -1 -28 13 -125 -1 -79 l 165 -28 b 325 -125 183 -93 236 -125 b 436 -89 368 -125 404 -112 b 493 11 467 -64 486 -31 l 513 115 l 506 115 b 419 60 476 89 449 71 b 318 42 390 47 356 42 b 132 117 240 42 178 67 b 61 319 85 165 61 233 b 106 539 61 400 76 474 b 228 694 135 604 176 657 b 401 750 279 732 338 750 b 528 722 447 750 489 740 b 614 647 567 703 596 678 l 621 647 l 653 736 l 801 736 l 657 -4 b 543 -206 640 -90 603 -157 b 318 -278 483 -254 408 -278 b 157 -249 258 -278 206 -268 m 468 224 b 540 308 497 242 522 271 b 568 444 558 346 568 392 b 529 557 568 493 556 531 b 422 597 503 583 468 597 b 322 565 385 597 351 586 b 253 476 293 544 269 514 b 228 347 236 439 228 396 b 267 235 228 299 240 261 b 374 194 293 208 328 194 b 468 224 407 194 439 204 m 335 894 b 281 1049 294 931 276 982 l 399 1049 b 422 972 396 1015 404 990 b 492 944 440 954 463 944 b 564 971 519 944 543 953 b 607 1049 583 988 597 1014 l 725 1049 b 639 894 711 981 682 929 b 486 840 596 858 544 840 b 335 894 424 840 374 858 "},"Ġ":{"ha":833,"x_min":0,"x_max":0,"o":"m 133 83 b 40 361 71 147 40 240 b 96 679 40 478 58 583 b 254 904 132 774 185 849 b 499 986 322 958 404 986 b 733 903 596 986 674 958 b 836 667 793 846 826 768 l 649 667 b 594 781 639 717 621 754 b 492 819 568 807 533 819 b 360 760 443 819 400 800 b 264 596 319 719 288 664 b 228 368 240 526 228 450 b 272 206 228 294 243 240 b 388 153 301 171 339 153 b 517 208 433 153 476 171 b 608 354 557 244 588 293 l 425 354 l 457 521 l 838 521 l 829 465 b 751 224 815 376 789 296 b 600 51 714 151 663 94 b 381 -14 538 8 464 -14 b 133 83 276 -14 194 18 m 492 1100 b 468 1156 476 1115 468 1133 b 499 1226 468 1182 478 1206 b 568 1257 519 1247 542 1257 b 626 1235 592 1257 611 1250 b 649 1178 642 1219 649 1200 b 618 1107 649 1151 639 1128 b 549 1076 597 1086 575 1076 b 492 1100 525 1076 507 1085 "},"ġ":{"ha":833,"x_min":0,"x_max":0,"o":"m 157 -249 b 42 -162 108 -228 69 -200 b -1 -28 13 -125 -1 -79 l 165 -28 b 325 -125 183 -93 236 -125 b 436 -89 368 -125 404 -112 b 493 11 467 -64 486 -31 l 513 115 l 506 115 b 419 60 476 89 449 71 b 318 42 390 47 356 42 b 132 117 240 42 178 67 b 61 319 85 165 61 233 b 106 539 61 400 76 474 b 228 694 135 604 176 657 b 401 750 279 732 338 750 b 528 722 447 750 489 740 b 614 647 567 703 596 678 l 621 647 l 653 736 l 801 736 l 657 -4 b 543 -206 640 -90 603 -157 b 318 -278 483 -254 408 -278 b 157 -249 258 -278 206 -268 m 468 224 b 540 308 497 242 522 271 b 568 444 558 346 568 392 b 529 557 568 493 556 531 b 422 597 503 583 468 597 b 322 565 385 597 351 586 b 253 476 293 544 269 514 b 228 347 236 439 228 396 b 267 235 228 299 240 261 b 374 194 293 208 328 194 b 468 224 407 194 439 204 m 439 878 b 415 933 424 893 415 911 b 446 1004 415 960 425 983 b 515 1035 467 1025 489 1035 b 574 1013 539 1035 558 1028 b 596 956 589 997 596 978 b 565 885 596 929 586 906 b 496 854 544 864 522 854 b 439 878 472 854 454 863 "},"Ģ":{"ha":833,"x_min":0,"x_max":0,"o":"m 133 83 b 40 361 71 147 40 240 b 96 679 40 478 58 583 b 254 904 132 774 185 849 b 499 986 322 958 404 986 b 733 903 596 986 674 958 b 836 667 793 846 826 768 l 649 667 b 594 781 639 717 621 754 b 492 819 568 807 533 819 b 360 760 443 819 400 800 b 264 596 319 719 288 664 b 228 368 240 526 228 450 b 272 206 228 294 243 240 b 388 153 301 171 339 153 b 517 208 433 153 476 171 b 608 354 557 244 588 293 l 425 354 l 457 521 l 838 521 l 829 465 b 751 224 815 376 789 296 b 600 51 714 151 663 94 b 381 -14 538 8 464 -14 b 133 83 276 -14 194 18 m 154 -354 l 263 -118 l 428 -118 l 278 -354 "},"ģ":{"ha":833,"x_min":0,"x_max":0,"o":"m 157 -249 b 42 -162 108 -228 69 -200 b -1 -28 13 -125 -1 -79 l 165 -28 b 325 -125 183 -93 236 -125 b 436 -89 368 -125 404 -112 b 493 11 467 -64 486 -31 l 513 115 l 506 115 b 419 60 476 89 449 71 b 318 42 390 47 356 42 b 132 117 240 42 178 67 b 61 319 85 165 61 233 b 106 539 61 400 76 474 b 228 694 135 604 176 657 b 401 750 279 732 338 750 b 528 722 447 750 489 740 b 614 647 567 703 596 678 l 621 647 l 653 736 l 801 736 l 657 -4 b 543 -206 640 -90 603 -157 b 318 -278 483 -254 408 -278 b 157 -249 258 -278 206 -268 m 468 224 b 540 308 497 242 522 271 b 568 444 558 346 568 392 b 529 557 568 493 556 531 b 422 597 503 583 468 597 b 322 565 385 597 351 586 b 253 476 293 544 269 514 b 228 347 236 439 228 396 b 267 235 228 299 240 261 b 374 194 293 208 328 194 b 468 224 407 194 439 204 m 389 840 l 539 1076 l 663 1076 l 554 840 "},"Ĥ":{"ha":833,"x_min":0,"x_max":0,"o":"m 686 972 l 874 972 l 685 0 l 497 0 l 576 410 l 272 410 l 193 0 l 6 0 l 194 972 l 382 972 l 306 576 l 610 576 m 310 1063 l 539 1278 l 629 1278 l 775 1063 l 644 1063 l 575 1174 l 568 1174 l 457 1063 "},"ĥ":{"ha":833,"x_min":0,"x_max":0,"o":"m 229 972 l 396 972 l 338 674 l 344 674 b 421 729 365 696 390 714 b 519 750 451 743 485 750 b 633 719 560 750 599 740 b 718 631 668 699 697 668 b 749 500 739 593 749 549 b 742 435 749 482 746 460 l 658 0 l 492 0 l 576 435 b 581 476 579 450 581 464 b 547 565 581 514 569 544 b 450 597 524 586 492 597 b 351 560 413 597 379 585 b 296 460 322 535 304 501 l 207 0 l 40 0 m 315 1063 l 544 1278 l 635 1278 l 781 1063 l 650 1063 l 581 1174 l 574 1174 l 463 1063 "},"Ħ":{"ha":833,"x_min":0,"x_max":0,"o":"m 919 854 l 890 701 l 821 701 l 685 0 l 497 0 l 576 410 l 272 410 l 193 0 l 6 0 l 142 701 l 72 701 l 101 854 l 171 854 l 194 972 l 382 972 l 358 854 l 663 854 l 686 972 l 874 972 l 850 854 m 610 576 l 633 701 l 329 701 l 306 576 "},"ħ":{"ha":833,"x_min":0,"x_max":0,"o":"m 633 619 b 715 529 668 597 694 567 b 744 401 735 492 744 449 b 738 338 744 383 742 363 l 672 0 l 507 0 l 572 338 b 576 379 575 353 576 367 b 543 468 576 417 565 447 b 446 500 519 489 488 500 b 347 463 408 500 375 488 b 292 363 318 438 300 404 l 221 0 l 54 0 l 200 743 l 103 743 l 129 882 l 226 882 l 244 972 l 410 972 l 392 882 l 572 882 l 546 743 l 365 743 l 333 576 l 340 576 b 419 633 361 600 388 619 b 515 653 450 646 482 653 b 633 619 558 653 599 642 "},"Ĩ":{"ha":833,"x_min":0,"x_max":0,"o":"m 54 0 l 86 167 l 281 167 l 404 806 l 210 806 l 243 972 l 825 972 l 792 806 l 592 806 l 468 167 l 668 167 l 636 0 m 328 1083 b 378 1208 335 1138 351 1179 b 475 1250 404 1236 436 1250 b 524 1242 493 1250 508 1247 b 571 1218 538 1236 553 1228 b 607 1201 585 1211 597 1206 b 638 1194 617 1197 628 1194 b 676 1208 654 1194 667 1199 b 699 1250 686 1217 693 1231 l 803 1250 b 754 1126 796 1196 781 1154 b 656 1083 728 1097 694 1083 b 608 1092 638 1083 622 1086 b 560 1115 593 1097 578 1106 b 524 1133 546 1122 533 1129 b 493 1139 514 1138 503 1139 b 454 1126 476 1139 464 1135 b 432 1083 444 1117 438 1103 l 328 1083 "},"ĩ":{"ha":833,"x_min":0,"x_max":0,"o":"m 479 0 b 319 51 411 0 357 17 b 263 192 282 85 263 132 b 268 250 263 213 264 232 l 332 583 l 138 583 l 168 736 l 529 736 l 433 243 b 432 224 432 239 432 232 b 453 172 432 203 439 185 b 507 153 465 160 483 153 l 679 153 l 650 0 l 479 0 m 244 861 b 294 986 251 915 268 957 b 392 1028 321 1014 353 1028 b 440 1019 410 1028 425 1025 b 488 996 454 1014 469 1006 b 524 979 501 989 514 983 b 554 972 533 975 544 972 b 593 986 571 972 583 976 b 615 1028 603 994 610 1008 l 719 1028 b 671 904 713 974 697 932 b 572 861 644 875 611 861 b 525 869 554 861 539 864 b 476 893 510 875 494 883 b 440 911 463 900 450 907 b 410 917 431 915 419 917 b 371 904 393 917 381 913 b 349 861 361 894 354 881 l 244 861 "},"Ī":{"ha":833,"x_min":0,"x_max":0,"o":"m 54 0 l 86 167 l 281 167 l 404 806 l 210 806 l 243 972 l 825 972 l 792 806 l 592 806 l 468 167 l 668 167 l 636 0 m 350 1104 l 371 1215 l 788 1215 l 767 1104 "},"ī":{"ha":833,"x_min":0,"x_max":0,"o":"m 479 0 b 319 51 411 0 357 17 b 263 192 282 85 263 132 b 268 250 263 213 264 232 l 332 583 l 138 583 l 168 736 l 529 736 l 433 243 b 432 224 432 239 432 232 b 453 172 432 203 439 185 b 507 153 465 160 483 153 l 679 153 l 650 0 l 479 0 m 267 882 l 288 993 l 704 993 l 683 882 "},"Ĭ":{"ha":833,"x_min":0,"x_max":0,"o":"m 54 0 l 86 167 l 281 167 l 404 806 l 210 806 l 243 972 l 825 972 l 792 806 l 592 806 l 468 167 l 668 167 l 636 0 m 397 1117 b 343 1271 357 1153 339 1204 l 461 1271 b 485 1194 458 1238 467 1213 b 554 1167 503 1176 525 1167 b 626 1193 582 1167 606 1175 b 669 1271 646 1210 660 1236 l 788 1271 b 701 1117 774 1203 744 1151 b 549 1063 658 1081 607 1063 b 397 1117 486 1063 436 1081 "},"ĭ":{"ha":833,"x_min":0,"x_max":0,"o":"m 479 0 b 319 51 411 0 357 17 b 263 192 282 85 263 132 b 268 250 263 213 264 232 l 332 583 l 138 583 l 168 736 l 529 736 l 433 243 b 432 224 432 239 432 232 b 453 172 432 203 439 185 b 507 153 465 160 483 153 l 679 153 l 650 0 l 479 0 m 315 894 b 261 1049 275 931 257 982 l 379 1049 b 403 972 376 1015 385 990 b 472 944 421 954 443 944 b 544 971 500 944 524 953 b 588 1049 564 988 578 1014 l 706 1049 b 619 894 692 981 663 929 b 467 840 576 858 525 840 b 315 894 404 840 354 858 "},"Į":{"ha":833,"x_min":0,"x_max":0,"o":"m 592 806 l 468 167 l 668 167 l 636 0 l 439 0 b 328 -65 388 -22 350 -44 b 293 -142 304 -86 293 -112 b 314 -185 293 -158 300 -172 b 369 -201 328 -196 346 -201 l 400 -201 l 379 -306 l 349 -306 b 221 -268 293 -306 250 -293 b 175 -172 190 -243 175 -211 b 303 0 175 -97 218 -40 l 54 0 l 86 167 l 281 167 l 404 806 l 210 806 l 243 972 l 825 972 l 792 806 "},"į":{"ha":833,"x_min":0,"x_max":0,"o":"m 408 860 b 382 925 390 878 382 899 b 415 1008 382 957 393 985 b 496 1042 436 1031 464 1042 b 563 1015 522 1042 544 1033 b 589 950 581 997 589 976 b 557 868 589 918 578 890 b 475 833 535 844 507 833 b 408 860 449 833 426 842 m 650 0 b 539 -65 599 -22 561 -44 b 504 -142 515 -86 504 -112 b 525 -185 504 -158 511 -172 b 581 -201 539 -196 557 -201 l 611 -201 l 590 -306 l 560 -306 b 432 -268 504 -306 461 -293 b 386 -172 401 -243 386 -211 b 514 0 386 -97 429 -40 l 479 0 b 319 51 411 0 357 17 b 263 192 282 85 263 132 b 268 250 263 213 264 232 l 332 583 l 138 583 l 168 736 l 529 736 l 433 243 b 432 224 432 239 432 232 b 453 172 432 203 439 185 b 507 153 465 160 483 153 l 679 153 l 650 0 "},"İ":{"ha":833,"x_min":0,"x_max":0,"o":"m 54 0 l 86 167 l 281 167 l 404 806 l 210 806 l 243 972 l 825 972 l 792 806 l 592 806 l 468 167 l 668 167 l 636 0 m 503 1100 b 479 1156 488 1115 479 1133 b 510 1226 479 1182 489 1206 b 579 1257 531 1247 553 1257 b 638 1235 603 1257 622 1250 b 660 1178 653 1219 660 1200 b 629 1107 660 1151 650 1128 b 560 1076 608 1086 586 1076 b 503 1100 536 1076 518 1085 "},"ı":{"ha":833,"x_min":0,"x_max":0,"o":"m 479 0 b 319 51 411 0 357 17 b 263 192 282 85 263 132 b 268 250 263 213 264 232 l 332 583 l 138 583 l 168 736 l 529 736 l 433 243 b 432 224 432 239 432 232 b 453 172 432 203 439 185 b 507 153 465 160 483 153 l 679 153 l 650 0 l 479 0 "},"Ĳ":{"ha":833,"x_min":0,"x_max":0,"o":"m 143 68 b 64 299 86 122 60 200 l 250 299 b 288 190 250 251 263 215 b 390 153 313 165 347 153 b 500 199 433 153 469 168 b 563 333 531 228 551 274 l 654 806 l 411 806 l 444 972 l 875 972 l 744 304 b 622 68 724 201 683 122 b 388 -14 560 14 482 -14 b 143 68 281 -14 200 14 m 78 375 l 194 972 l 382 972 l 265 375 "},"ĳ":{"ha":833,"x_min":0,"x_max":0,"o":"m 261 860 b 235 925 243 878 235 899 b 268 1008 235 957 246 985 b 349 1042 289 1031 317 1042 b 415 1015 375 1042 397 1033 b 442 950 433 997 442 976 b 410 868 442 918 431 890 b 328 833 388 844 360 833 b 261 860 301 833 279 842 m 643 860 b 617 925 625 878 617 899 b 650 1008 617 957 628 985 b 731 1042 671 1031 699 1042 b 797 1015 757 1042 779 1033 b 824 950 815 997 824 976 b 792 868 824 918 813 890 b 710 833 769 844 742 833 b 643 860 683 833 661 842 m 131 -211 b 64 -28 82 -165 60 -104 l 231 -28 b 258 -101 231 -60 240 -85 b 335 -125 276 -117 303 -125 b 410 -94 364 -125 389 -115 b 453 -1 431 -74 444 -42 l 567 583 l 400 583 l 431 736 l 764 736 l 618 -7 b 514 -207 601 -92 567 -158 b 328 -278 461 -254 399 -278 b 131 -211 244 -278 179 -256 m 82 56 l 215 736 l 382 736 l 249 56 "},"Ĵ":{"ha":833,"x_min":0,"x_max":0,"o":"m 108 61 b 22 299 51 111 22 190 l 208 299 b 247 190 208 251 221 215 b 349 153 272 165 306 153 b 521 333 440 153 497 213 l 613 806 l 300 806 l 333 972 l 833 972 l 703 304 b 581 68 682 201 642 122 b 346 -14 518 14 440 -14 b 108 61 244 -14 165 11 m 360 1063 l 589 1278 l 679 1278 l 825 1063 l 694 1063 l 625 1174 l 618 1174 l 507 1063 "},"ĵ":{"ha":833,"x_min":0,"x_max":0,"o":"m 46 -214 b -24 -28 0 -171 -24 -108 l 143 -28 b 171 -101 143 -60 153 -85 b 247 -125 189 -117 215 -125 b 322 -94 276 -125 301 -115 b 365 -1 343 -74 357 -42 l 479 583 l 257 583 l 288 736 l 676 736 l 531 -7 b 426 -206 514 -92 479 -157 b 240 -278 374 -254 311 -278 b 46 -214 157 -278 92 -257 m 372 840 l 601 1056 l 692 1056 l 838 840 l 707 840 l 638 951 l 631 951 l 519 840 "},"Ķ":{"ha":833,"x_min":0,"x_max":0,"o":"m 943 972 l 474 479 l 751 0 l 533 0 l 281 451 l 193 0 l 6 0 l 194 972 l 382 972 l 297 536 l 701 972 m 168 -354 l 276 -118 l 442 -118 l 292 -354 "},"ķ":{"ha":833,"x_min":0,"x_max":0,"o":"m 229 972 l 396 972 l 342 701 l 279 625 l 307 625 b 429 722 350 671 392 703 b 554 750 467 740 508 750 b 661 722 593 750 629 740 b 736 646 693 704 718 678 b 763 533 754 613 763 575 b 704 358 763 460 743 401 b 538 278 664 315 608 288 l 728 0 l 538 0 l 324 311 l 340 410 l 443 410 b 558 438 494 410 532 419 b 596 514 583 456 596 482 b 569 575 596 539 588 560 b 494 597 551 590 526 597 b 406 572 465 597 435 589 b 329 504 376 554 350 532 b 288 417 307 476 293 447 l 207 0 l 40 0 m 175 -354 l 283 -118 l 449 -118 l 299 -354 "},"Ĺ":{"ha":833,"x_min":0,"x_max":0,"o":"m 47 0 l 236 972 l 424 972 l 267 167 l 735 167 l 703 0 m 269 1063 l 436 1271 l 600 1271 l 399 1063 "},"ĺ":{"ha":833,"x_min":0,"x_max":0,"o":"m 471 0 b 313 50 403 0 350 17 b 254 190 274 83 254 131 b 260 250 254 211 256 232 l 369 819 l 175 819 l 206 972 l 567 972 l 425 243 b 424 222 424 239 424 232 b 444 172 424 201 431 185 b 499 153 458 160 476 153 l 675 153 l 646 0 l 471 0 m 422 1063 l 589 1271 l 753 1271 l 551 1063 "},"Ļ":{"ha":833,"x_min":0,"x_max":0,"o":"m 47 0 l 236 972 l 424 972 l 267 167 l 735 167 l 703 0 m 189 -354 l 297 -118 l 463 -118 l 313 -354 "},"ļ":{"ha":833,"x_min":0,"x_max":0,"o":"m 471 0 b 313 50 403 0 350 17 b 254 190 274 83 254 131 b 260 250 254 211 256 232 l 369 819 l 175 819 l 206 972 l 567 972 l 425 243 b 424 222 424 239 424 232 b 444 172 424 201 431 185 b 499 153 458 160 476 153 l 675 153 l 646 0 l 471 0 m 222 -354 l 331 -118 l 496 -118 l 346 -354 "},"Ľ":{"ha":833,"x_min":0,"x_max":0,"o":"m 47 0 l 236 972 l 424 972 l 267 167 l 735 167 l 703 0 m 460 736 l 569 972 l 711 972 l 561 736 "},"ľ":{"ha":833,"x_min":0,"x_max":0,"o":"m 471 0 b 313 50 403 0 350 17 b 254 190 274 83 254 131 b 260 250 254 211 256 232 l 369 819 l 175 819 l 206 972 l 567 972 l 425 243 b 424 222 424 239 424 232 b 444 172 424 201 431 185 b 499 153 458 160 476 153 l 675 153 l 646 0 l 471 0 m 568 736 l 678 972 l 819 972 l 669 736 "},"Ŀ":{"ha":833,"x_min":0,"x_max":0,"o":"m 47 0 l 236 972 l 424 972 l 267 167 l 735 167 l 703 0 m 594 489 b 569 549 578 504 569 525 b 599 628 569 581 579 607 b 674 660 618 649 643 660 b 739 636 700 660 722 651 b 764 576 756 621 764 600 b 735 497 764 544 754 518 b 660 465 715 476 690 465 b 594 489 633 465 611 474 "},"ŀ":{"ha":833,"x_min":0,"x_max":0,"o":"m 471 0 b 313 50 403 0 350 17 b 254 190 274 83 254 131 b 260 250 254 211 256 232 l 369 819 l 175 819 l 206 972 l 567 972 l 425 243 b 424 222 424 239 424 232 b 444 172 424 201 431 185 b 499 153 458 160 476 153 l 675 153 l 646 0 l 471 0 m 738 433 b 713 493 721 449 713 469 b 742 572 713 525 722 551 b 817 604 761 593 786 604 b 882 581 843 604 865 596 b 907 521 899 565 907 544 b 878 442 907 489 897 463 b 803 410 858 421 833 410 b 738 433 776 410 754 418 "},"Ł":{"ha":833,"x_min":0,"x_max":0,"o":"m 281 167 l 749 167 l 717 0 l 61 0 l 133 374 l 15 335 l 49 503 l 167 542 l 250 972 l 438 972 l 367 608 l 561 674 l 528 506 l 333 440 "},"ł":{"ha":833,"x_min":0,"x_max":0,"o":"m 646 0 l 471 0 b 313 50 403 0 350 17 b 254 190 274 83 254 131 b 260 250 254 211 256 232 l 289 400 l 146 342 l 176 500 l 319 558 l 369 819 l 175 819 l 206 972 l 567 972 l 500 631 l 643 689 l 613 531 l 469 472 l 425 243 b 424 222 424 239 424 232 b 444 172 424 201 431 185 b 499 153 458 160 476 153 l 675 153 "},"Ń":{"ha":833,"x_min":0,"x_max":0,"o":"m 6 0 l 194 972 l 426 972 l 565 236 l 593 236 l 586 451 l 688 972 l 875 972 l 686 0 l 454 0 l 315 736 l 288 736 l 294 521 l 193 0 m 467 1063 l 633 1271 l 797 1271 l 596 1063 "},"ń":{"ha":833,"x_min":0,"x_max":0,"o":"m 176 736 l 322 736 l 325 674 l 332 674 b 413 729 351 696 378 714 b 519 750 446 743 482 750 b 636 719 561 750 600 740 b 724 631 672 699 701 668 b 756 499 744 592 756 547 b 749 435 756 481 753 460 l 665 0 l 499 0 l 583 435 b 588 475 586 449 588 463 b 551 565 588 513 575 543 b 450 597 528 586 493 597 b 346 560 410 597 375 585 b 289 460 317 535 297 501 l 200 0 l 33 0 m 433 840 l 600 1049 l 764 1049 l 563 840 "},"Ņ":{"ha":833,"x_min":0,"x_max":0,"o":"m 6 0 l 194 972 l 426 972 l 565 236 l 593 236 l 586 451 l 688 972 l 875 972 l 686 0 l 454 0 l 315 736 l 288 736 l 294 521 l 193 0 m 139 -354 l 247 -118 l 413 -118 l 263 -354 "},"ņ":{"ha":833,"x_min":0,"x_max":0,"o":"m 176 736 l 322 736 l 325 674 l 332 674 b 413 729 351 696 378 714 b 519 750 446 743 482 750 b 636 719 561 750 600 740 b 724 631 672 699 701 668 b 756 499 744 592 756 547 b 749 435 756 481 753 460 l 665 0 l 499 0 l 583 435 b 588 475 586 449 588 463 b 551 565 588 513 575 543 b 450 597 528 586 493 597 b 346 560 410 597 375 585 b 289 460 317 535 297 501 l 200 0 l 33 0 m 147 -354 l 256 -118 l 421 -118 l 271 -354 "},"Ň":{"ha":833,"x_min":0,"x_max":0,"o":"m 6 0 l 194 972 l 426 972 l 565 236 l 593 236 l 586 451 l 688 972 l 875 972 l 686 0 l 454 0 l 315 736 l 288 736 l 294 521 l 193 0 m 500 1063 l 354 1278 l 485 1278 l 554 1167 l 561 1167 l 672 1278 l 819 1278 l 590 1063 "},"ň":{"ha":833,"x_min":0,"x_max":0,"o":"m 176 736 l 322 736 l 325 674 l 332 674 b 413 729 351 696 378 714 b 519 750 446 743 482 750 b 636 719 561 750 600 740 b 724 631 672 699 701 668 b 756 499 744 592 756 547 b 749 435 756 481 753 460 l 665 0 l 499 0 l 583 435 b 588 475 586 449 588 463 b 551 565 588 513 575 543 b 450 597 528 586 493 597 b 346 560 410 597 375 585 b 289 460 317 535 297 501 l 200 0 l 33 0 m 467 840 l 321 1056 l 451 1056 l 521 944 l 528 944 l 639 1056 l 786 1056 l 557 840 "},"ŉ":{"ha":833,"x_min":0,"x_max":0,"o":"m 176 736 l 322 736 l 325 674 l 332 674 b 413 729 351 696 378 714 b 519 750 446 743 482 750 b 636 719 561 750 600 740 b 724 631 672 699 701 668 b 756 499 744 592 756 547 b 749 435 756 481 753 460 l 665 0 l 499 0 l 583 435 b 588 475 586 449 588 463 b 551 565 588 513 575 543 b 450 597 528 586 493 597 b 346 560 410 597 375 585 b 289 460 317 535 297 501 l 200 0 l 33 0 m -10 681 l 101 972 l 265 972 l 122 681 "},"Ŋ":{"ha":833,"x_min":0,"x_max":0,"o":"m 268 -167 l 336 -167 b 435 -140 375 -167 408 -158 b 486 -51 461 -122 479 -92 l 496 0 l 454 0 l 315 736 l 288 736 l 294 521 l 193 0 l 6 0 l 194 972 l 426 972 l 565 236 l 593 236 l 586 451 l 688 972 l 875 972 l 683 -15 b 567 -260 661 -129 622 -211 b 343 -333 510 -308 436 -333 l 236 -333 "},"ŋ":{"ha":833,"x_min":0,"x_max":0,"o":"m 307 -125 l 388 -125 b 458 -101 418 -125 442 -117 b 493 -28 475 -85 486 -60 l 583 435 b 588 475 586 449 588 463 b 550 567 588 515 575 546 b 450 597 525 588 492 597 b 346 560 410 597 375 585 b 289 460 317 535 297 501 l 200 0 l 33 0 l 176 736 l 322 736 l 325 674 l 332 674 b 413 729 351 696 378 714 b 519 750 446 743 482 750 b 636 719 561 750 600 740 b 724 631 672 699 701 668 b 756 499 744 592 756 547 b 749 435 756 481 753 460 l 654 -57 b 401 -278 625 -204 542 -278 l 278 -278 "},"Ō":{"ha":833,"x_min":0,"x_max":0,"o":"m 133 83 b 40 361 71 147 40 240 b 96 679 40 478 58 583 b 254 904 132 774 185 849 b 499 986 322 958 404 986 b 747 890 603 986 685 954 b 839 611 808 825 839 732 b 785 294 839 494 821 389 b 626 69 747 199 694 124 b 381 -14 557 14 475 -14 b 133 83 276 -14 194 18 m 521 214 b 617 378 561 254 593 308 b 651 604 640 446 651 522 b 610 764 651 672 638 726 b 492 819 582 801 543 819 b 360 760 443 819 400 800 b 264 596 319 719 288 664 b 228 368 240 526 228 450 b 269 210 228 300 242 247 b 388 153 297 172 336 153 b 521 214 436 153 481 174 m 339 1104 l 360 1215 l 776 1215 l 756 1104 "},"ō":{"ha":833,"x_min":0,"x_max":0,"o":"m 211 26 b 100 138 163 53 126 89 b 60 306 74 186 60 242 b 110 536 60 392 76 468 b 250 694 143 604 190 657 b 456 750 310 732 379 750 b 624 711 519 750 575 738 b 735 599 672 685 708 647 b 774 431 761 550 774 494 b 724 200 774 344 757 268 b 585 43 690 132 644 81 b 379 -14 525 6 456 -14 b 211 26 315 -14 260 -1 m 550 215 b 607 424 588 267 607 336 b 564 551 607 478 593 521 b 442 597 535 582 493 597 b 285 521 375 597 322 572 b 226 313 246 469 226 400 b 271 185 226 258 242 215 b 393 139 300 154 340 139 b 550 215 458 139 511 164 m 294 882 l 315 993 l 732 993 l 711 882 "},"Ŏ":{"ha":833,"x_min":0,"x_max":0,"o":"m 133 83 b 40 361 71 147 40 240 b 96 679 40 478 58 583 b 254 904 132 774 185 849 b 499 986 322 958 404 986 b 747 890 603 986 685 954 b 839 611 808 825 839 732 b 785 294 839 494 821 389 b 626 69 747 199 694 124 b 381 -14 557 14 475 -14 b 133 83 276 -14 194 18 m 521 214 b 617 378 561 254 593 308 b 651 604 640 446 651 522 b 610 764 651 672 638 726 b 492 819 582 801 543 819 b 360 760 443 819 400 800 b 264 596 319 719 288 664 b 228 368 240 526 228 450 b 269 210 228 300 242 247 b 388 153 297 172 336 153 b 521 214 436 153 481 174 m 386 1117 b 332 1271 346 1153 328 1204 l 450 1271 b 474 1194 447 1238 456 1213 b 543 1167 492 1176 514 1167 b 615 1193 571 1167 594 1175 b 658 1271 635 1210 649 1236 l 776 1271 b 690 1117 763 1203 733 1151 b 538 1063 647 1081 596 1063 b 386 1117 475 1063 425 1081 "},"ŏ":{"ha":833,"x_min":0,"x_max":0,"o":"m 211 26 b 100 138 163 53 126 89 b 60 306 74 186 60 242 b 110 536 60 392 76 468 b 250 694 143 604 190 657 b 456 750 310 732 379 750 b 624 711 519 750 575 738 b 735 599 672 685 708 647 b 774 431 761 550 774 494 b 724 200 774 344 757 268 b 585 43 690 132 644 81 b 379 -14 525 6 456 -14 b 211 26 315 -14 260 -1 m 550 215 b 607 424 588 267 607 336 b 564 551 607 478 593 521 b 442 597 535 582 493 597 b 285 521 375 597 322 572 b 226 313 246 469 226 400 b 271 185 226 258 242 215 b 393 139 300 154 340 139 b 550 215 458 139 511 164 m 343 894 b 289 1049 303 931 285 982 l 407 1049 b 431 972 404 1015 413 990 b 500 944 449 954 471 944 b 572 971 528 944 551 953 b 615 1049 592 988 606 1014 l 733 1049 b 647 894 719 981 690 929 b 494 840 604 858 553 840 b 343 894 432 840 382 858 "},"Ő":{"ha":833,"x_min":0,"x_max":0,"o":"m 133 83 b 40 361 71 147 40 240 b 96 679 40 478 58 583 b 254 904 132 774 185 849 b 499 986 322 958 404 986 b 747 890 603 986 685 954 b 839 611 808 825 839 732 b 785 294 839 494 821 389 b 626 69 747 199 694 124 b 381 -14 557 14 475 -14 b 133 83 276 -14 194 18 m 521 214 b 617 378 561 254 593 308 b 651 604 640 446 651 522 b 610 764 651 672 638 726 b 492 819 582 801 543 819 b 360 760 443 819 400 800 b 264 596 319 719 288 664 b 228 368 240 526 228 450 b 269 210 228 300 242 247 b 388 153 297 172 336 153 b 521 214 436 153 481 174 m 347 1063 l 514 1271 l 675 1271 l 469 1063 m 575 1063 l 742 1271 l 903 1271 l 697 1063 "},"ő":{"ha":833,"x_min":0,"x_max":0,"o":"m 211 26 b 100 138 163 53 126 89 b 60 306 74 186 60 242 b 110 536 60 392 76 468 b 250 694 143 604 190 657 b 456 750 310 732 379 750 b 624 711 519 750 575 738 b 735 599 672 685 708 647 b 774 431 761 550 774 494 b 724 200 774 344 757 268 b 585 43 690 132 644 81 b 379 -14 525 6 456 -14 b 211 26 315 -14 260 -1 m 550 215 b 607 424 588 267 607 336 b 564 551 607 478 593 521 b 442 597 535 582 493 597 b 285 521 375 597 322 572 b 226 313 246 469 226 400 b 271 185 226 258 242 215 b 393 139 300 154 340 139 b 550 215 458 139 511 164 m 304 840 l 471 1049 l 632 1049 l 426 840 m 532 840 l 699 1049 l 860 1049 l 654 840 "},"Œ":{"ha":833,"x_min":0,"x_max":0,"o":"m 654 806 l 610 576 l 804 576 l 771 410 l 576 410 l 529 167 l 765 167 l 733 0 l 358 0 b 189 44 293 0 238 15 b 76 168 140 74 103 114 b 36 356 50 222 36 285 b 92 668 36 469 54 574 b 246 890 129 761 181 836 b 471 972 311 944 386 972 l 908 972 l 876 806 m 458 806 b 336 746 414 806 374 786 b 249 586 299 706 269 651 b 217 375 228 519 217 449 b 235 274 217 339 222 306 b 283 196 247 242 263 215 b 349 167 304 176 325 167 l 472 806 "},"œ":{"ha":833,"x_min":0,"x_max":0,"o":"m 465 313 b 463 250 464 285 463 264 b 483 168 463 214 469 186 b 533 139 497 149 514 139 b 581 161 550 139 565 146 b 617 222 596 175 607 196 l 783 222 b 676 49 757 149 722 90 b 524 -14 631 7 579 -14 b 432 14 490 -14 460 -4 b 372 92 404 32 385 58 b 294 13 349 56 322 29 b 193 -14 265 -6 232 -14 b 56 50 136 -14 90 7 b 1 215 19 93 1 147 b 39 494 1 319 14 413 b 144 683 64 575 99 638 b 301 750 190 728 242 750 b 397 724 336 750 368 742 b 463 649 426 706 447 681 b 540 722 481 679 507 704 b 643 750 574 740 608 750 b 785 679 703 750 750 726 b 835 482 818 632 835 567 b 807 313 835 417 825 361 l 465 313 m 293 194 b 342 333 314 231 329 276 b 358 500 353 389 358 444 b 300 597 358 565 339 597 b 233 543 276 597 254 579 b 186 403 213 506 197 460 b 168 236 174 346 168 290 b 226 139 168 171 188 139 b 293 194 250 139 272 157 m 539 553 b 483 431 515 524 496 482 l 672 431 b 678 497 676 464 678 486 b 615 597 678 564 657 597 b 539 553 588 597 563 582 "},"Ŕ":{"ha":833,"x_min":0,"x_max":0,"o":"m 818 538 b 719 419 794 489 761 450 b 575 360 676 388 629 368 l 724 0 l 532 0 l 394 354 l 261 354 l 193 0 l 6 0 l 194 972 l 544 972 b 711 938 608 972 664 961 b 817 839 757 914 793 881 b 853 694 840 796 853 749 b 818 538 853 638 842 585 m 506 507 b 585 531 533 507 560 515 b 643 594 608 546 628 568 b 665 679 658 621 665 649 b 624 771 665 717 651 747 b 513 806 594 794 558 806 l 349 806 l 290 507 l 506 507 m 467 1063 l 633 1271 l 797 1271 l 596 1063 "},"ŕ":{"ha":833,"x_min":0,"x_max":0,"o":"m 56 153 l 229 153 l 313 583 l 167 583 l 197 736 l 454 736 l 463 639 l 485 639 b 557 711 503 671 526 694 b 658 736 586 728 621 736 l 825 736 l 793 576 l 644 576 b 513 533 590 576 547 563 b 446 410 478 504 456 464 l 396 153 l 639 153 l 610 0 l 26 0 m 457 840 l 624 1049 l 788 1049 l 586 840 "},"Ŗ":{"ha":833,"x_min":0,"x_max":0,"o":"m 818 538 b 719 419 794 489 761 450 b 575 360 676 388 629 368 l 724 0 l 532 0 l 394 354 l 261 354 l 193 0 l 6 0 l 194 972 l 544 972 b 711 938 608 972 664 961 b 817 839 757 914 793 881 b 853 694 840 796 853 749 b 818 538 853 638 842 585 m 506 507 b 585 531 533 507 560 515 b 643 594 608 546 628 568 b 665 679 658 621 665 649 b 624 771 665 717 651 747 b 513 806 594 794 558 806 l 349 806 l 290 507 l 506 507 m 160 -354 l 268 -118 l 433 -118 l 283 -354 "},"ŗ":{"ha":833,"x_min":0,"x_max":0,"o":"m 56 153 l 229 153 l 313 583 l 167 583 l 197 736 l 454 736 l 463 639 l 485 639 b 557 711 503 671 526 694 b 658 736 586 728 621 736 l 825 736 l 793 576 l 644 576 b 513 533 590 576 547 563 b 446 410 478 504 456 464 l 396 153 l 639 153 l 610 0 l 26 0 m 104 -354 l 213 -118 l 378 -118 l 228 -354 "},"Ř":{"ha":833,"x_min":0,"x_max":0,"o":"m 818 538 b 719 419 794 489 761 450 b 575 360 676 388 629 368 l 724 0 l 532 0 l 394 354 l 261 354 l 193 0 l 6 0 l 194 972 l 544 972 b 711 938 608 972 664 961 b 817 839 757 914 793 881 b 853 694 840 796 853 749 b 818 538 853 638 842 585 m 506 507 b 585 531 533 507 560 515 b 643 594 608 546 628 568 b 665 679 658 621 665 649 b 624 771 665 717 651 747 b 513 806 594 794 558 806 l 349 806 l 290 507 l 506 507 m 500 1063 l 354 1278 l 485 1278 l 554 1167 l 561 1167 l 672 1278 l 819 1278 l 590 1063 "},"ř":{"ha":833,"x_min":0,"x_max":0,"o":"m 56 153 l 229 153 l 313 583 l 167 583 l 197 736 l 454 736 l 463 639 l 485 639 b 557 711 503 671 526 694 b 658 736 586 728 621 736 l 825 736 l 793 576 l 644 576 b 513 533 590 576 547 563 b 446 410 478 504 456 464 l 396 153 l 639 153 l 610 0 l 26 0 m 490 840 l 344 1056 l 475 1056 l 544 944 l 551 944 l 663 1056 l 810 1056 l 581 840 "},"Ś":{"ha":833,"x_min":0,"x_max":0,"o":"m 119 68 b 18 292 51 122 18 196 l 206 292 b 264 192 210 251 229 218 b 393 153 299 165 342 153 b 526 192 446 153 490 165 b 581 288 563 217 581 249 b 540 354 581 317 567 339 b 410 406 513 369 469 388 b 267 460 351 424 304 442 b 169 538 229 478 196 503 b 129 667 143 571 129 614 b 174 833 129 729 144 785 b 299 946 203 882 244 919 b 483 986 353 972 414 986 b 733 911 589 986 672 961 b 824 701 793 860 824 790 l 636 701 b 590 786 636 735 621 763 b 476 819 560 808 522 819 b 363 785 431 819 392 808 b 317 697 332 761 317 732 b 360 628 317 668 331 644 b 492 571 388 610 432 592 b 635 515 550 551 597 533 b 729 439 671 497 703 471 b 768 313 756 406 768 364 b 722 142 768 247 753 190 b 592 28 692 93 649 54 b 393 -14 535 0 468 -14 b 119 68 278 -14 188 14 m 461 1063 l 628 1271 l 792 1271 l 590 1063 "},"ś":{"ha":833,"x_min":0,"x_max":0,"o":"m 149 56 b 53 243 85 101 53 164 l 226 243 b 282 165 231 208 250 183 b 414 139 314 147 357 139 b 506 158 451 139 482 146 b 539 211 528 171 539 189 b 506 257 539 231 528 246 b 396 292 482 267 446 279 b 258 338 340 307 294 322 b 163 404 221 353 189 375 b 122 521 136 433 122 472 b 160 640 122 565 135 606 b 265 721 185 675 219 701 b 421 750 311 740 363 750 b 660 688 522 750 601 729 b 747 514 718 644 747 588 l 574 514 b 524 578 567 543 550 564 b 407 597 497 590 458 597 b 328 579 375 597 349 592 b 296 535 307 567 296 553 b 333 485 296 514 308 497 b 449 444 357 472 396 458 b 583 401 503 429 547 415 b 675 338 618 386 649 365 b 713 229 700 310 713 274 b 675 103 713 181 700 139 b 567 17 649 65 613 38 b 407 -14 521 -4 467 -14 b 149 56 297 -14 211 10 m 406 840 l 572 1049 l 736 1049 l 535 840 "},"Ŝ":{"ha":833,"x_min":0,"x_max":0,"o":"m 119 68 b 18 292 51 122 18 196 l 206 292 b 264 192 210 251 229 218 b 393 153 299 165 342 153 b 526 192 446 153 490 165 b 581 288 563 217 581 249 b 540 354 581 317 567 339 b 410 406 513 369 469 388 b 267 460 351 424 304 442 b 169 538 229 478 196 503 b 129 667 143 571 129 614 b 174 833 129 729 144 785 b 299 946 203 882 244 919 b 483 986 353 972 414 986 b 733 911 589 986 672 961 b 824 701 793 860 824 790 l 636 701 b 590 786 636 735 621 763 b 476 819 560 808 522 819 b 363 785 431 819 392 808 b 317 697 332 761 317 732 b 360 628 317 668 331 644 b 492 571 388 610 432 592 b 635 515 550 551 597 533 b 729 439 671 497 703 471 b 768 313 756 406 768 364 b 722 142 768 247 753 190 b 592 28 692 93 649 54 b 393 -14 535 0 468 -14 b 119 68 278 -14 188 14 m 299 1063 l 528 1278 l 618 1278 l 764 1063 l 633 1063 l 564 1174 l 557 1174 l 446 1063 "},"ŝ":{"ha":833,"x_min":0,"x_max":0,"o":"m 149 56 b 53 243 85 101 53 164 l 226 243 b 282 165 231 208 250 183 b 414 139 314 147 357 139 b 506 158 451 139 482 146 b 539 211 528 171 539 189 b 506 257 539 231 528 246 b 396 292 482 267 446 279 b 258 338 340 307 294 322 b 163 404 221 353 189 375 b 122 521 136 433 122 472 b 160 640 122 565 135 606 b 265 721 185 675 219 701 b 421 750 311 740 363 750 b 660 688 522 750 601 729 b 747 514 718 644 747 588 l 574 514 b 524 578 567 543 550 564 b 407 597 497 590 458 597 b 328 579 375 597 349 592 b 296 535 307 567 296 553 b 333 485 296 514 308 497 b 449 444 357 472 396 458 b 583 401 503 429 547 415 b 675 338 618 386 649 365 b 713 229 700 310 713 274 b 675 103 713 181 700 139 b 567 17 649 65 613 38 b 407 -14 521 -4 467 -14 b 149 56 297 -14 211 10 m 243 840 l 472 1056 l 563 1056 l 708 840 l 578 840 l 508 951 l 501 951 l 390 840 "},"Ş":{"ha":833,"x_min":0,"x_max":0,"o":"m 360 628 b 492 571 388 610 432 592 b 635 515 550 551 597 533 b 729 439 671 497 703 471 b 768 313 756 406 768 364 b 726 150 768 251 754 197 b 607 36 699 101 658 64 b 425 -12 556 7 494 -8 l 401 -53 b 471 -92 431 -60 454 -72 b 494 -158 486 -111 494 -133 b 450 -267 494 -204 479 -240 b 331 -306 419 -293 379 -306 l 239 -306 l 258 -208 l 315 -208 b 367 -197 339 -208 356 -204 b 383 -164 378 -189 383 -178 b 326 -125 383 -137 364 -125 l 288 -125 l 300 -62 l 335 -11 b 103 82 236 -1 160 29 b 18 292 46 135 18 204 l 206 292 b 264 192 210 251 229 218 b 393 153 299 165 342 153 b 526 192 446 153 490 165 b 581 288 563 217 581 249 b 540 354 581 317 567 339 b 410 406 513 369 469 388 b 267 460 351 424 304 442 b 169 538 229 478 196 503 b 129 667 143 571 129 614 b 174 833 129 729 144 785 b 299 946 203 882 244 919 b 483 986 353 972 414 986 b 733 911 589 986 672 961 b 824 701 793 860 824 790 l 636 701 b 590 786 636 735 621 763 b 476 819 560 808 522 819 b 363 785 431 819 392 808 b 317 697 332 761 317 732 b 360 628 317 668 331 644 "},"ş":{"ha":833,"x_min":0,"x_max":0,"o":"m 333 485 b 449 444 357 472 396 458 b 583 401 503 429 547 415 b 675 338 618 386 649 365 b 713 229 700 310 713 274 b 632 56 713 158 686 100 b 419 -14 578 11 507 -12 l 396 -53 b 465 -92 425 -60 449 -72 b 489 -158 481 -111 489 -133 b 444 -267 489 -204 474 -240 b 325 -306 414 -293 374 -306 l 233 -306 l 253 -208 l 310 -208 b 361 -197 333 -208 350 -204 b 378 -164 372 -189 378 -178 b 321 -125 378 -137 358 -125 l 282 -125 l 294 -62 l 329 -10 b 126 72 243 0 175 28 b 53 243 78 117 53 174 l 226 243 b 282 165 231 208 250 183 b 414 139 314 147 357 139 b 506 158 451 139 482 146 b 539 211 528 171 539 189 b 506 257 539 231 528 246 b 396 292 482 267 446 279 b 258 338 340 307 294 322 b 163 404 221 353 189 375 b 122 521 136 433 122 472 b 160 640 122 565 135 606 b 265 721 185 675 219 701 b 421 750 311 740 363 750 b 660 688 522 750 601 729 b 747 514 718 644 747 588 l 574 514 b 524 578 567 543 550 564 b 407 597 497 590 458 597 b 328 579 375 597 349 592 b 296 535 307 567 296 553 b 333 485 296 514 308 497 "},"Š":{"ha":833,"x_min":0,"x_max":0,"o":"m 119 68 b 18 292 51 122 18 196 l 206 292 b 264 192 210 251 229 218 b 393 153 299 165 342 153 b 526 192 446 153 490 165 b 581 288 563 217 581 249 b 540 354 581 317 567 339 b 410 406 513 369 469 388 b 267 460 351 424 304 442 b 169 538 229 478 196 503 b 129 667 143 571 129 614 b 174 833 129 729 144 785 b 299 946 203 882 244 919 b 483 986 353 972 414 986 b 733 911 589 986 672 961 b 824 701 793 860 824 790 l 636 701 b 590 786 636 735 621 763 b 476 819 560 808 522 819 b 363 785 431 819 392 808 b 317 697 332 761 317 732 b 360 628 317 668 331 644 b 492 571 388 610 432 592 b 635 515 550 551 597 533 b 729 439 671 497 703 471 b 768 313 756 406 768 364 b 722 142 768 247 753 190 b 592 28 692 93 649 54 b 393 -14 535 0 468 -14 b 119 68 278 -14 188 14 m 494 1063 l 349 1278 l 479 1278 l 549 1167 l 556 1167 l 667 1278 l 814 1278 l 585 1063 "},"š":{"ha":833,"x_min":0,"x_max":0,"o":"m 149 56 b 53 243 85 101 53 164 l 226 243 b 282 165 231 208 250 183 b 414 139 314 147 357 139 b 506 158 451 139 482 146 b 539 211 528 171 539 189 b 506 257 539 231 528 246 b 396 292 482 267 446 279 b 258 338 340 307 294 322 b 163 404 221 353 189 375 b 122 521 136 433 122 472 b 160 640 122 565 135 606 b 265 721 185 675 219 701 b 421 750 311 740 363 750 b 660 688 522 750 601 729 b 747 514 718 644 747 588 l 574 514 b 524 578 567 543 550 564 b 407 597 497 590 458 597 b 328 579 375 597 349 592 b 296 535 307 567 296 553 b 333 485 296 514 308 497 b 449 444 357 472 396 458 b 583 401 503 429 547 415 b 675 338 618 386 649 365 b 713 229 700 310 713 274 b 675 103 713 181 700 139 b 567 17 649 65 613 38 b 407 -14 521 -4 467 -14 b 149 56 297 -14 211 10 m 439 840 l 293 1056 l 424 1056 l 493 944 l 500 944 l 611 1056 l 758 1056 l 529 840 "},"Ţ":{"ha":833,"x_min":0,"x_max":0,"o":"m 910 972 l 847 653 l 688 653 l 717 806 l 599 806 l 443 0 l 399 0 l 367 -53 b 436 -92 396 -60 419 -72 b 460 -158 451 -111 460 -133 b 415 -267 460 -204 444 -240 b 296 -306 385 -293 344 -306 l 204 -306 l 224 -208 l 281 -208 b 332 -197 304 -208 321 -204 b 349 -164 343 -189 349 -178 b 292 -125 349 -137 329 -125 l 253 -125 l 265 -62 l 307 0 l 256 0 l 411 806 l 286 806 l 257 653 l 97 653 l 160 972 "},"ţ":{"ha":833,"x_min":0,"x_max":0,"o":"m 750 250 b 664 69 743 178 715 118 b 474 -12 613 21 549 -7 l 450 -53 b 519 -92 479 -60 503 -72 b 543 -158 535 -111 543 -133 b 499 -267 543 -204 528 -240 b 379 -306 468 -293 428 -306 l 288 -306 l 307 -208 l 364 -208 b 415 -197 388 -208 404 -204 b 432 -164 426 -189 432 -178 b 375 -125 432 -137 413 -125 l 336 -125 l 349 -62 l 385 -7 b 250 71 328 4 283 31 b 200 218 217 111 200 161 b 206 271 200 238 201 256 l 267 583 l 86 583 l 117 736 l 297 736 l 363 931 l 501 931 l 464 736 l 735 736 l 704 583 l 433 583 l 374 279 b 369 236 371 264 369 250 b 393 165 369 206 378 182 b 461 139 408 147 432 139 b 542 165 496 139 522 147 b 583 250 561 183 575 211 l 750 250 "},"Ť":{"ha":833,"x_min":0,"x_max":0,"o":"m 256 0 l 411 806 l 286 806 l 257 653 l 97 653 l 160 972 l 910 972 l 847 653 l 688 653 l 717 806 l 599 806 l 443 0 m 507 1063 l 361 1278 l 492 1278 l 561 1167 l 568 1167 l 679 1278 l 826 1278 l 597 1063 "},"ť":{"ha":833,"x_min":0,"x_max":0,"o":"m 319 17 b 232 99 282 36 253 64 b 200 217 211 133 200 174 b 206 271 200 238 201 256 l 267 583 l 86 583 l 117 736 l 297 736 l 363 931 l 501 931 l 464 736 l 735 736 l 704 583 l 433 583 l 374 279 b 369 236 371 264 369 250 b 393 165 369 206 378 182 b 461 139 408 147 432 139 b 542 165 496 139 522 147 b 583 250 561 183 575 211 l 750 250 b 701 114 746 199 729 154 b 593 21 674 74 638 43 b 447 -14 549 -3 500 -14 b 319 17 399 -14 357 -4 m 524 778 l 614 972 l 756 972 l 632 778 "},"Ŧ":{"ha":833,"x_min":0,"x_max":0,"o":"m 847 653 l 688 653 l 717 806 l 599 806 l 549 549 l 717 549 l 686 396 l 519 396 l 443 0 l 256 0 l 332 396 l 165 396 l 196 549 l 361 549 l 411 806 l 286 806 l 257 653 l 97 653 l 160 972 l 910 972 "},"ŧ":{"ha":833,"x_min":0,"x_max":0,"o":"m 750 250 b 701 114 746 199 729 154 b 593 21 674 74 638 43 b 447 -14 549 -3 500 -14 b 319 17 399 -14 357 -4 b 232 99 282 36 253 64 b 200 217 211 133 200 174 b 206 271 200 238 201 256 l 221 347 l 40 347 l 69 486 l 247 486 l 267 583 l 86 583 l 117 736 l 297 736 l 363 931 l 501 931 l 464 736 l 735 736 l 704 583 l 433 583 l 414 486 l 685 486 l 656 347 l 388 347 l 374 279 b 369 236 371 264 369 250 b 393 165 369 206 378 182 b 461 139 408 147 432 139 b 542 165 496 139 522 147 b 583 250 561 183 575 211 l 750 250 "},"Ũ":{"ha":833,"x_min":0,"x_max":0,"o":"m 153 64 b 67 276 96 115 67 186 b 75 363 67 303 69 332 l 194 972 l 382 972 l 260 347 b 254 296 256 332 254 314 b 292 192 254 251 267 217 b 393 153 315 165 350 153 b 503 197 439 153 475 168 b 563 333 531 226 550 271 l 688 972 l 875 972 l 747 319 b 624 74 726 213 685 131 b 386 -14 561 15 482 -14 b 153 64 288 -14 210 13 m 331 1083 b 381 1208 338 1138 354 1179 b 478 1250 407 1236 439 1250 b 526 1242 496 1250 511 1247 b 574 1218 540 1236 556 1228 b 610 1201 588 1211 600 1206 b 640 1194 619 1197 631 1194 b 679 1208 657 1194 669 1199 b 701 1250 689 1217 696 1231 l 806 1250 b 757 1126 799 1196 783 1154 b 658 1083 731 1097 697 1083 b 611 1092 640 1083 625 1086 b 563 1115 596 1097 581 1106 b 526 1133 549 1122 536 1129 b 496 1139 517 1138 506 1139 b 457 1126 479 1139 467 1135 b 435 1083 447 1117 440 1103 l 331 1083 "},"ũ":{"ha":833,"x_min":0,"x_max":0,"o":"m 193 19 b 110 111 157 42 129 72 b 79 239 89 149 79 192 b 85 301 79 263 81 283 l 168 736 l 335 736 l 250 301 b 246 261 247 288 246 274 b 282 172 246 224 258 193 b 383 139 306 150 340 139 b 488 176 424 139 458 151 b 544 276 517 201 536 235 l 633 736 l 800 736 l 657 0 l 511 0 l 508 63 l 501 63 b 422 8 482 40 456 22 b 314 -14 388 -7 351 -14 b 193 19 268 -14 228 -3 m 283 861 b 333 986 290 915 307 957 b 431 1028 360 1014 392 1028 b 479 1019 449 1028 464 1025 b 526 996 493 1014 508 1006 b 563 979 540 989 553 983 b 593 972 572 975 583 972 b 632 986 610 972 622 976 b 654 1028 642 994 649 1008 l 758 1028 b 710 904 751 974 736 932 b 611 861 683 875 650 861 b 564 869 593 861 578 864 b 515 893 549 875 533 883 b 479 911 501 900 489 907 b 449 917 469 915 458 917 b 410 904 432 917 419 913 b 388 861 400 894 393 881 l 283 861 "},"Ū":{"ha":833,"x_min":0,"x_max":0,"o":"m 153 64 b 67 276 96 115 67 186 b 75 363 67 303 69 332 l 194 972 l 382 972 l 260 347 b 254 296 256 332 254 314 b 292 192 254 251 267 217 b 393 153 315 165 350 153 b 503 197 439 153 475 168 b 563 333 531 226 550 271 l 688 972 l 875 972 l 747 319 b 624 74 726 213 685 131 b 386 -14 561 15 482 -14 b 153 64 288 -14 210 13 m 353 1104 l 374 1215 l 790 1215 l 769 1104 "},"ū":{"ha":833,"x_min":0,"x_max":0,"o":"m 193 19 b 110 111 157 42 129 72 b 79 239 89 149 79 192 b 85 301 79 263 81 283 l 168 736 l 335 736 l 250 301 b 246 261 247 288 246 274 b 282 172 246 224 258 193 b 383 139 306 150 340 139 b 488 176 424 139 458 151 b 544 276 517 201 536 235 l 633 736 l 800 736 l 657 0 l 511 0 l 508 63 l 501 63 b 422 8 482 40 456 22 b 314 -14 388 -7 351 -14 b 193 19 268 -14 228 -3 m 306 882 l 326 993 l 743 993 l 722 882 "},"Ŭ":{"ha":833,"x_min":0,"x_max":0,"o":"m 153 64 b 67 276 96 115 67 186 b 75 363 67 303 69 332 l 194 972 l 382 972 l 260 347 b 254 296 256 332 254 314 b 292 192 254 251 267 217 b 393 153 315 165 350 153 b 503 197 439 153 475 168 b 563 333 531 226 550 271 l 688 972 l 875 972 l 747 319 b 624 74 726 213 685 131 b 386 -14 561 15 482 -14 b 153 64 288 -14 210 13 m 400 1117 b 346 1271 360 1153 342 1204 l 464 1271 b 488 1194 461 1238 469 1213 b 557 1167 506 1176 528 1167 b 629 1193 585 1167 608 1175 b 672 1271 649 1210 663 1236 l 790 1271 b 704 1117 776 1203 747 1151 b 551 1063 661 1081 610 1063 b 400 1117 489 1063 439 1081 "},"ŭ":{"ha":833,"x_min":0,"x_max":0,"o":"m 193 19 b 110 111 157 42 129 72 b 79 239 89 149 79 192 b 85 301 79 263 81 283 l 168 736 l 335 736 l 250 301 b 246 261 247 288 246 274 b 282 172 246 224 258 193 b 383 139 306 150 340 139 b 488 176 424 139 458 151 b 544 276 517 201 536 235 l 633 736 l 800 736 l 657 0 l 511 0 l 508 63 l 501 63 b 422 8 482 40 456 22 b 314 -14 388 -7 351 -14 b 193 19 268 -14 228 -3 m 354 894 b 300 1049 314 931 296 982 l 418 1049 b 442 972 415 1015 424 990 b 511 944 460 954 482 944 b 583 971 539 944 563 953 b 626 1049 603 988 617 1014 l 744 1049 b 658 894 731 981 701 929 b 506 840 615 858 564 840 b 354 894 443 840 393 858 "},"Ů":{"ha":833,"x_min":0,"x_max":0,"o":"m 153 64 b 67 276 96 115 67 186 b 75 363 67 303 69 332 l 194 972 l 382 972 l 260 347 b 254 296 256 332 254 314 b 292 192 254 251 267 217 b 393 153 315 165 350 153 b 503 197 439 153 475 168 b 563 333 531 226 550 271 l 688 972 l 875 972 l 747 319 b 624 74 726 213 685 131 b 386 -14 561 15 482 -14 b 153 64 288 -14 210 13 m 457 1065 b 418 1157 431 1090 418 1121 b 464 1274 418 1203 433 1242 b 578 1319 494 1304 532 1319 b 672 1282 615 1319 646 1307 b 710 1190 697 1257 710 1226 b 664 1075 710 1144 694 1106 b 550 1028 633 1043 596 1028 b 457 1065 513 1028 482 1040 m 607 1131 b 626 1182 619 1143 626 1161 b 611 1221 626 1197 621 1210 b 571 1236 600 1231 586 1236 b 521 1217 550 1236 533 1229 b 501 1165 508 1204 501 1186 b 518 1128 501 1150 507 1138 b 557 1111 528 1117 542 1111 b 607 1131 578 1111 594 1118 "},"ů":{"ha":833,"x_min":0,"x_max":0,"o":"m 193 19 b 110 111 157 42 129 72 b 79 239 89 149 79 192 b 85 301 79 263 81 283 l 168 736 l 335 736 l 250 301 b 246 261 247 288 246 274 b 282 172 246 224 258 193 b 383 139 306 150 340 139 b 488 176 424 139 458 151 b 544 276 517 201 536 235 l 633 736 l 800 736 l 657 0 l 511 0 l 508 63 l 501 63 b 422 8 482 40 456 22 b 314 -14 388 -7 351 -14 b 193 19 268 -14 228 -3 m 410 843 b 371 935 383 868 371 899 b 417 1051 371 981 386 1019 b 531 1097 447 1082 485 1097 b 625 1060 568 1097 599 1085 b 663 968 650 1035 663 1004 b 617 853 663 922 647 883 b 503 806 586 821 549 806 b 410 843 465 806 435 818 m 560 908 b 579 960 572 921 579 939 b 564 999 579 975 574 988 b 524 1014 553 1008 539 1014 b 474 994 503 1014 486 1007 b 454 943 461 982 454 964 b 471 906 454 928 460 915 b 510 889 481 894 494 889 b 560 908 531 889 547 896 "},"Ű":{"ha":833,"x_min":0,"x_max":0,"o":"m 153 64 b 67 276 96 115 67 186 b 75 363 67 303 69 332 l 194 972 l 382 972 l 260 347 b 254 296 256 332 254 314 b 292 192 254 251 267 217 b 393 153 315 165 350 153 b 503 197 439 153 475 168 b 563 333 531 226 550 271 l 688 972 l 875 972 l 747 319 b 624 74 726 213 685 131 b 386 -14 561 15 482 -14 b 153 64 288 -14 210 13 m 361 1063 l 528 1271 l 689 1271 l 483 1063 m 589 1063 l 756 1271 l 917 1271 l 711 1063 "},"ű":{"ha":833,"x_min":0,"x_max":0,"o":"m 193 19 b 110 111 157 42 129 72 b 79 239 89 149 79 192 b 85 301 79 263 81 283 l 168 736 l 335 736 l 250 301 b 246 261 247 288 246 274 b 282 172 246 224 258 193 b 383 139 306 150 340 139 b 488 176 424 139 458 151 b 544 276 517 201 536 235 l 633 736 l 800 736 l 657 0 l 511 0 l 508 63 l 501 63 b 422 8 482 40 456 22 b 314 -14 388 -7 351 -14 b 193 19 268 -14 228 -3 m 315 840 l 482 1049 l 643 1049 l 438 840 m 543 840 l 710 1049 l 871 1049 l 665 840 "},"Ų":{"ha":833,"x_min":0,"x_max":0,"o":"m 875 972 l 747 319 b 678 136 732 244 710 183 b 549 19 646 89 603 50 b 454 -58 506 -7 474 -32 b 425 -142 435 -85 425 -112 b 446 -185 425 -158 432 -172 b 501 -201 460 -196 478 -201 l 532 -201 l 511 -306 l 481 -306 b 353 -268 425 -306 382 -293 b 307 -172 322 -243 307 -211 b 332 -82 307 -137 315 -108 b 408 -12 349 -56 374 -33 b 386 -14 403 -14 396 -14 b 153 64 288 -14 210 13 b 67 276 96 115 67 186 b 75 363 67 303 69 332 l 194 972 l 382 972 l 260 347 b 254 296 256 332 254 314 b 292 192 254 251 267 217 b 393 153 315 165 350 153 b 503 197 439 153 475 168 b 563 333 531 226 550 271 l 688 972 "},"ų":{"ha":833,"x_min":0,"x_max":0,"o":"m 657 0 b 546 -65 606 -22 568 -44 b 511 -142 522 -86 511 -112 b 532 -185 511 -158 518 -172 b 588 -201 546 -196 564 -201 l 618 -201 l 597 -306 l 567 -306 b 439 -268 511 -306 468 -293 b 393 -172 408 -243 393 -211 b 521 0 393 -97 436 -40 l 511 0 l 508 63 l 501 63 b 422 8 482 40 456 22 b 314 -14 388 -7 351 -14 b 193 19 268 -14 228 -3 b 110 111 157 42 129 72 b 79 239 89 149 79 192 b 85 301 79 263 81 283 l 168 736 l 335 736 l 250 301 b 246 261 247 288 246 274 b 282 172 246 224 258 193 b 383 139 306 150 340 139 b 488 176 424 139 458 151 b 544 276 517 201 536 235 l 633 736 l 800 736 l 657 0 "},"Ŵ":{"ha":833,"x_min":0,"x_max":0,"o":"m 61 0 l 125 972 l 303 972 l 251 507 l 169 229 l 197 229 l 396 708 l 549 708 l 561 229 l 589 229 l 615 507 l 744 972 l 931 972 l 617 0 l 444 0 l 432 458 l 425 458 l 236 0 m 296 1063 l 525 1278 l 615 1278 l 761 1063 l 631 1063 l 561 1174 l 554 1174 l 443 1063 "},"ŵ":{"ha":833,"x_min":0,"x_max":0,"o":"m 79 736 l 253 736 l 231 375 l 175 208 l 196 208 l 390 590 l 515 590 l 563 208 l 583 208 l 592 379 b 643 531 613 428 631 479 b 682 736 656 582 669 651 l 854 736 b 761 344 839 607 808 476 b 590 0 714 213 657 99 l 457 0 l 415 340 l 408 340 l 235 0 l 61 0 m 250 840 l 479 1056 l 569 1056 l 715 840 l 585 840 l 515 951 l 508 951 l 397 840 "},"Ŷ":{"ha":833,"x_min":0,"x_max":0,"o":"m 249 0 l 310 319 l 118 972 l 313 972 l 407 563 l 407 438 l 435 438 l 482 563 l 729 972 l 938 972 l 497 319 l 436 0 m 292 1063 l 521 1278 l 611 1278 l 757 1063 l 626 1063 l 557 1174 l 550 1174 l 439 1063 "},"ŷ":{"ha":833,"x_min":0,"x_max":0,"o":"m 135 -217 b 42 -56 82 -175 51 -121 l 208 -56 b 254 -107 215 -76 231 -94 b 338 -125 278 -119 306 -125 b 440 -89 379 -125 414 -112 b 493 14 467 -65 485 -31 l 513 118 l 506 118 b 321 42 451 67 389 42 b 203 76 276 42 238 53 b 121 168 168 99 140 129 b 90 296 100 206 90 249 b 96 357 90 318 92 339 l 168 736 l 335 736 l 261 357 b 257 317 258 343 257 329 b 292 228 257 279 268 249 b 389 194 315 206 347 194 b 499 233 432 194 469 207 b 557 339 528 258 547 293 l 633 736 l 800 736 l 660 11 b 544 -200 642 -78 604 -149 b 325 -278 485 -251 411 -278 b 135 -217 250 -278 186 -257 m 264 840 l 493 1056 l 583 1056 l 729 840 l 599 840 l 529 951 l 522 951 l 411 840 "},"Ÿ":{"ha":833,"x_min":0,"x_max":0,"o":"m 249 0 l 310 319 l 118 972 l 313 972 l 407 563 l 407 438 l 435 438 l 482 563 l 729 972 l 938 972 l 497 319 l 436 0 m 347 1100 b 324 1156 332 1115 324 1133 b 354 1226 324 1182 333 1206 b 424 1257 375 1247 397 1257 b 482 1235 447 1257 467 1250 b 504 1178 497 1219 504 1200 b 474 1107 504 1151 494 1128 b 404 1076 453 1086 431 1076 b 347 1100 381 1076 363 1085 m 625 1100 b 601 1156 610 1115 601 1133 b 632 1226 601 1182 611 1206 b 701 1257 653 1247 675 1257 b 760 1235 725 1257 744 1250 b 782 1178 775 1219 782 1200 b 751 1107 782 1151 772 1128 b 682 1076 731 1086 708 1076 b 625 1100 658 1076 640 1085 "},"Ź":{"ha":833,"x_min":0,"x_max":0,"o":"m -15 0 l 13 147 l 607 806 l 154 806 l 188 972 l 888 972 l 858 825 l 265 167 l 738 167 l 706 0 m 469 1063 l 636 1271 l 800 1271 l 599 1063 "},"ź":{"ha":833,"x_min":0,"x_max":0,"o":"m 443 -1 b 375 38 421 8 399 21 b 325 67 357 50 340 60 b 275 76 310 74 293 76 b 122 0 238 76 188 51 l 31 0 l 63 158 l 418 472 l 590 549 l 596 574 l 504 535 b 381 568 469 539 428 550 b 344 581 376 569 365 574 b 288 590 324 588 304 590 b 250 572 271 590 258 585 b 240 517 242 560 239 542 l 97 489 l 93 556 b 118 653 92 590 100 622 b 194 724 136 682 161 706 b 301 750 226 742 263 750 b 383 738 333 750 361 746 b 451 699 406 728 428 715 b 501 669 469 686 486 676 b 551 660 517 663 533 660 b 704 736 589 660 639 685 l 794 736 l 763 576 l 410 264 l 236 188 l 231 163 l 322 201 b 446 168 357 197 399 186 b 483 157 450 167 463 164 b 539 146 504 150 522 146 b 579 165 558 146 572 153 b 586 219 586 178 588 196 l 729 247 l 733 181 b 711 85 735 146 728 114 b 636 13 693 54 668 31 b 525 -14 603 -6 565 -14 b 443 -1 493 -14 465 -10 m 400 840 l 567 1049 l 731 1049 l 529 840 "},"Ż":{"ha":833,"x_min":0,"x_max":0,"o":"m -15 0 l 13 147 l 607 806 l 154 806 l 188 972 l 888 972 l 858 825 l 265 167 l 738 167 l 706 0 m 501 1100 b 478 1156 486 1115 478 1133 b 508 1226 478 1182 488 1206 b 578 1257 529 1247 551 1257 b 636 1235 601 1257 621 1250 b 658 1178 651 1219 658 1200 b 628 1107 658 1151 649 1128 b 558 1076 607 1086 585 1076 b 501 1100 535 1076 517 1085 "},"ż":{"ha":833,"x_min":0,"x_max":0,"o":"m 443 -1 b 375 38 421 8 399 21 b 325 67 357 50 340 60 b 275 76 310 74 293 76 b 122 0 238 76 188 51 l 31 0 l 63 158 l 418 472 l 590 549 l 596 574 l 504 535 b 381 568 469 539 428 550 b 344 581 376 569 365 574 b 288 590 324 588 304 590 b 250 572 271 590 258 585 b 240 517 242 560 239 542 l 97 489 l 93 556 b 118 653 92 590 100 622 b 194 724 136 682 161 706 b 301 750 226 742 263 750 b 383 738 333 750 361 746 b 451 699 406 728 428 715 b 501 669 469 686 486 676 b 551 660 517 663 533 660 b 704 736 589 660 639 685 l 794 736 l 763 576 l 410 264 l 236 188 l 231 163 l 322 201 b 446 168 357 197 399 186 b 483 157 450 167 463 164 b 539 146 504 150 522 146 b 579 165 558 146 572 153 b 586 219 586 178 588 196 l 729 247 l 733 181 b 711 85 735 146 728 114 b 636 13 693 54 668 31 b 525 -14 603 -6 565 -14 b 443 -1 493 -14 465 -10 m 432 878 b 408 933 417 893 408 911 b 439 1004 408 960 418 983 b 508 1035 460 1025 482 1035 b 567 1013 532 1035 551 1028 b 589 956 582 997 589 978 b 558 885 589 929 579 906 b 489 854 538 864 515 854 b 432 878 465 854 447 863 "},"Ž":{"ha":833,"x_min":0,"x_max":0,"o":"m -15 0 l 13 147 l 607 806 l 154 806 l 188 972 l 888 972 l 858 825 l 265 167 l 738 167 l 706 0 m 503 1063 l 357 1278 l 488 1278 l 557 1167 l 564 1167 l 675 1278 l 822 1278 l 593 1063 "},"ž":{"ha":833,"x_min":0,"x_max":0,"o":"m 443 -1 b 375 38 421 8 399 21 b 325 67 357 50 340 60 b 275 76 310 74 293 76 b 122 0 238 76 188 51 l 31 0 l 63 158 l 418 472 l 590 549 l 596 574 l 504 535 b 381 568 469 539 428 550 b 344 581 376 569 365 574 b 288 590 324 588 304 590 b 250 572 271 590 258 585 b 240 517 242 560 239 542 l 97 489 l 93 556 b 118 653 92 590 100 622 b 194 724 136 682 161 706 b 301 750 226 742 263 750 b 383 738 333 750 361 746 b 451 699 406 728 428 715 b 501 669 469 686 486 676 b 551 660 517 663 533 660 b 704 736 589 660 639 685 l 794 736 l 763 576 l 410 264 l 236 188 l 231 163 l 322 201 b 446 168 357 197 399 186 b 483 157 450 167 463 164 b 539 146 504 150 522 146 b 579 165 558 146 572 153 b 586 219 586 178 588 196 l 729 247 l 733 181 b 711 85 735 146 728 114 b 636 13 693 54 668 31 b 525 -14 603 -6 565 -14 b 443 -1 493 -14 465 -10 m 433 840 l 288 1056 l 418 1056 l 488 944 l 494 944 l 606 1056 l 753 1056 l 524 840 "},"Ə":{"ha":833,"x_min":0,"x_max":0,"o":"m 750 888 b 839 611 810 821 839 729 b 785 294 839 494 821 389 b 626 69 747 199 694 124 b 381 -14 557 14 475 -14 b 129 88 274 -14 189 19 b 39 365 69 156 39 247 b 58 556 39 418 46 482 l 650 556 b 651 604 651 567 651 583 b 608 767 651 678 638 732 b 492 819 579 801 540 819 b 372 785 449 819 410 808 b 288 688 335 761 307 728 l 100 688 b 254 906 135 779 186 851 b 499 986 322 960 404 986 b 750 888 606 986 690 953 m 528 222 b 624 403 569 268 601 328 l 228 403 b 388 153 221 236 275 153 b 528 222 439 153 485 176 "},"ƒ":{"ha":833,"x_min":0,"x_max":0,"o":"m 699 819 b 638 804 672 819 653 814 b 604 750 622 793 611 775 l 565 625 l 715 625 l 671 472 l 517 472 l 351 -56 b 257 -203 331 -122 300 -171 b 82 -250 214 -235 156 -250 l -46 -250 l 0 -97 l 92 -97 b 153 -82 118 -97 138 -92 b 186 -28 168 -71 179 -53 l 343 472 l 192 472 l 236 625 l 390 625 l 439 778 b 533 925 460 844 490 893 b 708 972 576 957 635 972 l 835 972 l 789 819 l 699 819 "},"Ǵ":{"ha":833,"x_min":0,"x_max":0,"o":"m 133 83 b 40 361 71 147 40 240 b 96 679 40 478 58 583 b 254 904 132 774 185 849 b 499 986 322 958 404 986 b 733 903 596 986 674 958 b 836 667 793 846 826 768 l 649 667 b 594 781 639 717 621 754 b 492 819 568 807 533 819 b 360 760 443 819 400 800 b 264 596 319 719 288 664 b 228 368 240 526 228 450 b 272 206 228 294 243 240 b 388 153 301 171 339 153 b 517 208 433 153 476 171 b 608 354 557 244 588 293 l 425 354 l 457 521 l 838 521 l 829 465 b 751 224 815 376 789 296 b 600 51 714 151 663 94 b 381 -14 538 8 464 -14 b 133 83 276 -14 194 18 m 460 1063 l 626 1271 l 790 1271 l 589 1063 "},"ǵ":{"ha":833,"x_min":0,"x_max":0,"o":"m 157 -249 b 42 -162 108 -228 69 -200 b -1 -28 13 -125 -1 -79 l 165 -28 b 325 -125 183 -93 236 -125 b 436 -89 368 -125 404 -112 b 493 11 467 -64 486 -31 l 513 115 l 506 115 b 419 60 476 89 449 71 b 318 42 390 47 356 42 b 132 117 240 42 178 67 b 61 319 85 165 61 233 b 106 539 61 400 76 474 b 228 694 135 604 176 657 b 401 750 279 732 338 750 b 528 722 447 750 489 740 b 614 647 567 703 596 678 l 621 647 l 653 736 l 801 736 l 657 -4 b 543 -206 640 -90 603 -157 b 318 -278 483 -254 408 -278 b 157 -249 258 -278 206 -268 m 468 224 b 540 308 497 242 522 271 b 568 444 558 346 568 392 b 529 557 568 493 556 531 b 422 597 503 583 468 597 b 322 565 385 597 351 586 b 253 476 293 544 269 514 b 228 347 236 439 228 396 b 267 235 228 299 240 261 b 374 194 293 208 328 194 b 468 224 407 194 439 204 m 407 840 l 574 1049 l 738 1049 l 536 840 "},"Ǻ":{"ha":833,"x_min":0,"x_max":0,"o":"m 568 0 l 551 194 l 238 194 l 146 0 l -51 0 l 429 972 l 651 972 l 754 0 m 315 361 l 539 361 l 515 639 l 525 792 l 497 792 l 446 639 m 656 1283 b 697 1239 674 1272 688 1257 b 713 1176 707 1219 713 1199 b 667 1061 713 1131 697 1092 b 553 1014 636 1029 599 1014 b 460 1051 515 1014 485 1026 b 421 1143 433 1076 421 1107 b 467 1260 421 1189 436 1228 b 579 1306 496 1290 533 1306 l 629 1396 l 754 1396 l 656 1283 m 610 1117 b 629 1168 622 1129 629 1147 b 614 1207 629 1183 624 1196 b 574 1222 603 1217 589 1222 b 524 1203 553 1222 536 1215 b 504 1151 511 1190 504 1172 b 521 1114 504 1136 510 1124 b 560 1097 531 1103 544 1097 b 610 1117 581 1097 597 1104 "},"ǻ":{"ha":833,"x_min":0,"x_max":0,"o":"m 128 65 b 58 278 82 118 58 189 b 101 518 58 365 72 446 b 224 688 131 589 171 646 b 410 750 276 729 339 750 b 614 660 489 750 557 719 l 621 660 l 649 736 l 794 736 l 650 0 l 504 0 l 506 76 l 499 76 b 313 -14 451 17 389 -14 b 128 65 235 -14 174 13 m 467 176 b 539 279 497 201 521 236 b 565 424 557 322 565 371 b 528 551 565 478 553 521 b 425 597 501 582 468 597 b 324 560 388 597 354 585 b 251 457 293 535 269 500 b 225 313 233 414 225 365 b 264 185 225 258 238 215 b 365 139 289 154 322 139 b 467 176 403 139 436 151 m 583 1061 b 625 1017 601 1050 615 1035 b 640 954 635 997 640 976 b 594 839 640 908 625 869 b 481 792 564 807 526 792 b 388 829 443 792 413 804 b 349 921 361 854 349 885 b 394 1038 349 967 364 1006 b 507 1083 424 1068 461 1083 l 557 1174 l 682 1174 l 583 1061 m 538 894 b 557 946 550 907 557 925 b 542 985 557 961 551 974 b 501 1000 531 994 517 1000 b 451 981 481 1000 464 993 b 432 929 439 968 432 950 b 449 892 432 914 438 901 b 488 875 458 881 472 875 b 538 894 508 875 525 882 "},"Ǽ":{"ha":833,"x_min":0,"x_max":0,"o":"m 856 806 l 619 806 l 575 576 l 783 576 l 750 410 l 542 410 l 494 167 l 744 167 l 713 0 l 282 0 l 319 194 l 181 194 l 110 0 l -72 0 l 299 972 l 888 972 m 350 347 l 439 806 l 404 806 l 236 347 m 486 1063 l 653 1271 l 817 1271 l 615 1063 "},"ǽ":{"ha":833,"x_min":0,"x_max":0,"o":"m 467 313 b 464 250 465 285 464 264 b 485 168 464 214 471 186 b 535 139 499 149 515 139 b 582 161 551 139 567 146 b 618 222 597 175 608 196 l 785 222 b 678 49 758 149 724 90 b 525 -14 632 7 581 -14 b 425 15 489 -14 456 -4 b 360 96 394 35 372 61 b 282 14 340 58 314 32 b 157 -14 250 -6 208 -14 b 60 11 122 -14 89 -6 b -11 81 31 28 7 51 b -37 181 -29 110 -37 143 b 33 368 -37 264 -14 326 b 219 431 81 410 143 431 l 343 431 l 353 479 b 357 521 356 493 357 507 b 343 576 357 544 353 563 b 300 597 333 590 319 597 b 250 579 279 597 263 592 b 221 521 238 567 228 547 l 61 521 b 154 689 79 592 111 647 b 304 750 197 729 247 750 b 408 722 347 750 382 740 b 461 646 435 704 451 678 b 540 722 481 678 507 703 b 644 750 574 740 608 750 b 786 679 704 750 751 726 b 836 482 819 632 836 567 b 808 313 836 417 826 361 l 467 313 m 540 553 b 485 431 517 524 497 482 l 674 431 b 679 497 678 464 679 486 b 617 597 679 564 658 597 b 540 553 589 597 564 582 m 271 176 b 313 278 290 201 304 235 l 319 313 l 226 313 b 156 281 197 313 174 301 b 129 208 138 260 129 235 b 146 160 129 190 135 174 b 192 139 157 146 172 139 b 271 176 224 139 250 151 m 421 840 l 588 1049 l 751 1049 l 550 840 "},"Ǿ":{"ha":833,"x_min":0,"x_max":0,"o":"m 783 842 b 839 611 821 782 839 704 b 785 294 839 494 821 389 b 626 69 747 199 694 124 b 381 -14 557 14 475 -14 b 194 32 310 -14 247 1 l 146 -35 l -24 -35 l 96 131 b 40 361 58 190 40 268 b 96 679 40 478 58 583 b 254 904 132 774 185 849 b 499 986 322 958 404 986 b 685 940 569 986 632 971 l 733 1007 l 903 1007 m 579 794 b 492 819 554 811 525 819 b 360 760 443 819 400 800 b 264 596 319 719 288 664 b 228 368 240 526 228 450 b 231 315 228 356 229 338 m 300 178 b 388 153 325 161 354 153 b 521 214 436 153 481 174 b 617 378 561 254 593 308 b 651 604 640 446 651 522 b 649 657 651 617 650 635 m 460 1063 l 626 1271 l 790 1271 l 589 1063 "},"ǿ":{"ha":833,"x_min":0,"x_max":0,"o":"m 706 643 b 774 431 751 586 774 515 b 724 200 774 344 757 268 b 585 43 690 132 644 81 b 379 -14 525 6 456 -14 b 217 22 317 -14 263 -1 l 176 -28 l 32 -28 l 128 94 b 60 306 82 149 60 218 b 110 536 60 392 76 468 b 250 694 143 604 190 657 b 456 750 310 732 379 750 b 617 714 517 750 571 738 l 656 764 l 800 764 m 514 585 b 442 597 493 593 469 597 b 285 521 375 597 322 572 b 226 313 246 469 226 400 b 239 235 226 283 231 257 m 318 153 b 393 139 339 143 364 139 b 550 215 458 139 511 164 b 607 424 588 267 607 336 b 594 503 607 453 603 479 m 415 840 l 582 1049 l 746 1049 l 544 840 "},"Ș":{"ha":833,"x_min":0,"x_max":0,"o":"m 119 68 b 18 292 51 122 18 196 l 206 292 b 264 192 210 251 229 218 b 393 153 299 165 342 153 b 526 192 446 153 490 165 b 581 288 563 217 581 249 b 540 354 581 317 567 339 b 410 406 513 369 469 388 b 267 460 351 424 304 442 b 169 538 229 478 196 503 b 129 667 143 571 129 614 b 174 833 129 729 144 785 b 299 946 203 882 244 919 b 483 986 353 972 414 986 b 733 911 589 986 672 961 b 824 701 793 860 824 790 l 636 701 b 590 786 636 735 621 763 b 476 819 560 808 522 819 b 363 785 431 819 392 808 b 317 697 332 761 317 732 b 360 628 317 668 331 644 b 492 571 388 610 432 592 b 635 515 550 551 597 533 b 729 439 671 497 703 471 b 768 313 756 406 768 364 b 722 142 768 247 753 190 b 592 28 692 93 649 54 b 393 -14 535 0 468 -14 b 119 68 278 -14 188 14 m 171 -354 l 279 -118 l 444 -118 l 294 -354 "},"ș":{"ha":833,"x_min":0,"x_max":0,"o":"m 149 56 b 53 243 85 101 53 164 l 226 243 b 282 165 231 208 250 183 b 414 139 314 147 357 139 b 506 158 451 139 482 146 b 539 211 528 171 539 189 b 506 257 539 231 528 246 b 396 292 482 267 446 279 b 258 338 340 307 294 322 b 163 404 221 353 189 375 b 122 521 136 433 122 472 b 160 640 122 565 135 606 b 265 721 185 675 219 701 b 421 750 311 740 363 750 b 660 688 522 750 601 729 b 747 514 718 644 747 588 l 574 514 b 524 578 567 543 550 564 b 407 597 497 590 458 597 b 328 579 375 597 349 592 b 296 535 307 567 296 553 b 333 485 296 514 308 497 b 449 444 357 472 396 458 b 583 401 503 429 547 415 b 675 338 618 386 649 365 b 713 229 700 310 713 274 b 675 103 713 181 700 139 b 567 17 649 65 613 38 b 407 -14 521 -4 467 -14 b 149 56 297 -14 211 10 m 165 -354 l 274 -118 l 439 -118 l 289 -354 "},"Ț":{"ha":833,"x_min":0,"x_max":0,"o":"m 256 0 l 411 806 l 286 806 l 257 653 l 97 653 l 160 972 l 910 972 l 847 653 l 688 653 l 717 806 l 599 806 l 443 0 m 136 -354 l 244 -118 l 410 -118 l 260 -354 "},"ț":{"ha":833,"x_min":0,"x_max":0,"o":"m 319 17 b 232 99 282 36 253 64 b 200 217 211 133 200 174 b 206 271 200 238 201 256 l 267 583 l 86 583 l 117 736 l 297 736 l 363 931 l 501 931 l 464 736 l 735 736 l 704 583 l 433 583 l 374 279 b 369 236 371 264 369 250 b 393 165 369 206 378 182 b 461 139 408 147 432 139 b 542 165 496 139 522 147 b 583 250 561 183 575 211 l 750 250 b 701 114 746 199 729 154 b 593 21 674 74 638 43 b 447 -14 549 -3 500 -14 b 319 17 399 -14 357 -4 m 219 -354 l 328 -118 l 493 -118 l 343 -354 "},"Ȳ":{"ha":833,"x_min":0,"x_max":0,"o":"m 249 0 l 310 319 l 118 972 l 313 972 l 407 563 l 407 438 l 435 438 l 482 563 l 729 972 l 938 972 l 497 319 l 436 0 m 333 1104 l 354 1215 l 771 1215 l 750 1104 "},"ȳ":{"ha":833,"x_min":0,"x_max":0,"o":"m 135 -217 b 42 -56 82 -175 51 -121 l 208 -56 b 254 -107 215 -76 231 -94 b 338 -125 278 -119 306 -125 b 440 -89 379 -125 414 -112 b 493 14 467 -65 485 -31 l 513 118 l 506 118 b 321 42 451 67 389 42 b 203 76 276 42 238 53 b 121 168 168 99 140 129 b 90 296 100 206 90 249 b 96 357 90 318 92 339 l 168 736 l 335 736 l 261 357 b 257 317 258 343 257 329 b 292 228 257 279 268 249 b 389 194 315 206 347 194 b 499 233 432 194 469 207 b 557 339 528 258 547 293 l 633 736 l 800 736 l 660 11 b 544 -200 642 -78 604 -149 b 325 -278 485 -251 411 -278 b 135 -217 250 -278 186 -257 m 306 882 l 326 993 l 743 993 l 722 882 "},"ȷ":{"ha":833,"x_min":0,"x_max":0,"o":"m 46 -214 b -24 -28 0 -171 -24 -108 l 143 -28 b 171 -101 143 -60 153 -85 b 247 -125 189 -117 215 -125 b 322 -94 276 -125 301 -115 b 365 -1 343 -74 357 -42 l 479 583 l 257 583 l 288 736 l 676 736 l 531 -7 b 426 -206 514 -92 479 -157 b 240 -278 374 -254 311 -278 b 46 -214 157 -278 92 -257 "},"Ʉ":{"ha":833,"x_min":0,"x_max":0,"o":"m 861 549 l 792 549 l 747 319 b 624 74 726 213 685 131 b 386 -14 561 15 482 -14 b 153 64 288 -14 210 13 b 67 276 96 115 67 186 b 75 363 67 303 69 332 l 111 549 l 43 549 l 72 701 l 142 701 l 194 972 l 382 972 l 329 701 l 635 701 l 688 972 l 875 972 l 822 701 l 890 701 m 299 549 l 260 347 b 254 296 256 332 254 314 b 292 192 254 251 267 217 b 393 153 315 165 350 153 b 503 197 439 153 475 168 b 563 333 531 226 550 271 l 604 549 "},"ə":{"ha":833,"x_min":0,"x_max":0,"o":"m 621 711 b 733 601 669 685 707 649 b 774 438 760 554 774 500 b 721 196 774 344 756 264 b 578 40 686 128 638 75 b 376 -14 518 4 450 -14 b 206 28 310 -14 253 0 b 96 138 157 54 121 92 b 58 292 71 183 58 235 b 71 424 58 351 63 394 l 613 424 b 563 554 608 481 592 525 b 435 597 532 583 489 597 b 340 575 400 597 369 590 b 272 514 311 560 289 539 l 106 514 b 243 689 138 590 183 649 b 451 750 303 729 372 750 b 621 711 515 750 572 738 m 521 185 b 599 306 558 214 583 254 l 218 306 b 267 185 219 254 236 214 b 393 139 297 154 339 139 b 521 185 440 139 483 154 "},"ʉ":{"ha":833,"x_min":0,"x_max":0,"o":"m 835 410 l 736 410 l 657 0 l 511 0 l 508 63 l 501 63 b 422 8 482 40 456 22 b 314 -14 388 -7 351 -14 b 193 19 268 -14 228 -3 b 110 111 157 42 129 72 b 79 239 89 149 79 192 b 85 301 79 263 81 283 l 106 410 l 8 410 l 35 549 l 132 549 l 168 736 l 335 736 l 299 549 l 597 549 l 633 736 l 800 736 l 764 549 l 861 549 m 271 410 l 250 301 b 246 261 247 288 246 274 b 282 172 246 224 258 193 b 383 139 306 150 340 139 b 488 176 424 139 458 151 b 544 276 517 201 536 235 l 571 410 "},"ʹ":{"ha":833,"x_min":0,"x_max":0,"o":"m 335 653 l 481 972 l 658 972 l 457 653 "},"ʺ":{"ha":833,"x_min":0,"x_max":0,"o":"m 229 653 l 375 972 l 553 972 l 351 653 m 444 653 l 590 972 l 768 972 l 567 653 "},"ʼ":{"ha":833,"x_min":0,"x_max":0,"o":"m 371 681 l 482 972 l 646 972 l 503 681 "},"ˆ":{"ha":833,"x_min":0,"x_max":0,"o":"m 276 840 l 506 1056 l 596 1056 l 742 840 l 611 840 l 542 951 l 535 951 l 424 840 "},"ˇ":{"ha":833,"x_min":0,"x_max":0,"o":"m 464 840 l 318 1056 l 449 1056 l 518 944 l 525 944 l 636 1056 l 783 1056 l 554 840 "},"˘":{"ha":833,"x_min":0,"x_max":0,"o":"m 381 894 b 326 1049 340 931 322 982 l 444 1049 b 468 972 442 1015 450 990 b 538 944 486 954 508 944 b 610 971 565 944 589 953 b 653 1049 629 988 643 1014 l 771 1049 b 685 894 757 981 728 929 b 532 840 642 858 590 840 b 381 894 469 840 419 858 "},"˙":{"ha":833,"x_min":0,"x_max":0,"o":"m 463 878 b 439 933 447 893 439 911 b 469 1004 439 960 449 983 b 539 1035 490 1025 513 1035 b 597 1013 563 1035 582 1028 b 619 956 613 997 619 978 b 589 885 619 929 610 906 b 519 854 568 864 546 854 b 463 878 496 854 478 863 "},"˚":{"ha":833,"x_min":0,"x_max":0,"o":"m 424 843 b 385 935 397 868 385 899 b 431 1051 385 981 400 1019 b 544 1097 461 1082 499 1097 b 639 1060 582 1097 613 1085 b 676 968 664 1035 676 1004 b 631 853 676 922 661 883 b 517 806 600 821 563 806 b 424 843 479 806 449 818 m 574 908 b 593 960 586 921 593 939 b 578 999 593 975 588 988 b 538 1014 567 1008 553 1014 b 488 994 517 1014 500 1007 b 468 943 475 982 468 964 b 485 906 468 928 474 915 b 524 889 494 894 508 889 b 574 908 544 889 561 896 "},"˛":{"ha":833,"x_min":0,"x_max":0,"o":"m 371 -306 b 243 -268 315 -306 272 -293 b 197 -172 213 -243 197 -211 b 386 24 197 -82 260 -17 l 461 0 b 350 -65 410 -22 372 -44 b 315 -142 326 -86 315 -112 b 336 -185 315 -158 322 -172 b 392 -201 350 -196 368 -201 l 422 -201 l 401 -306 l 371 -306 "},"˜":{"ha":833,"x_min":0,"x_max":0,"o":"m 292 861 b 342 986 299 915 315 957 b 439 1028 368 1014 400 1028 b 488 1019 457 1028 472 1025 b 535 996 501 1014 517 1006 b 571 979 549 989 561 983 b 601 972 581 975 592 972 b 640 986 618 972 631 976 b 663 1028 650 994 657 1008 l 767 1028 b 718 904 760 974 744 932 b 619 861 692 875 658 861 b 572 869 601 861 586 864 b 524 893 557 875 542 883 b 488 911 510 900 497 907 b 457 917 478 915 467 917 b 418 904 440 917 428 913 b 396 861 408 894 401 881 l 292 861 "},"˝":{"ha":833,"x_min":0,"x_max":0,"o":"m 250 840 l 417 1049 l 578 1049 l 372 840 m 478 840 l 644 1049 l 806 1049 l 600 840 "},"̀":{"ha":0,"x_min":0,"x_max":0,"o":"m -306 840 l -424 1049 l -269 1049 l -186 840 "},"́":{"ha":0,"x_min":0,"x_max":0,"o":"m -469 840 l -303 1049 l -139 1049 l -340 840 "},"̂":{"ha":0,"x_min":0,"x_max":0,"o":"m -557 840 l -328 1056 l -237 1056 l -92 840 l -222 840 l -292 951 l -299 951 l -410 840 "},"̃":{"ha":0,"x_min":0,"x_max":0,"o":"m -542 861 b -493 986 -535 915 -519 957 b -394 1028 -467 1014 -433 1028 b -347 1019 -376 1028 -361 1025 b -299 996 -332 1014 -317 1006 b -262 979 -285 989 -272 983 b -232 972 -253 975 -242 972 b -193 986 -215 972 -203 976 b -171 1028 -183 994 -176 1008 l -67 1028 b -117 904 -74 974 -90 932 b -214 861 -143 875 -175 861 b -262 869 -232 861 -247 864 b -310 893 -276 875 -292 883 b -346 911 -324 900 -336 907 b -376 917 -356 915 -367 917 b -415 904 -393 917 -406 913 b -437 861 -425 894 -432 881 l -542 861 "},"̄":{"ha":0,"x_min":0,"x_max":0,"o":"m -525 882 l -504 993 l -87 993 l -108 882 "},"̆":{"ha":0,"x_min":0,"x_max":0,"o":"m -454 894 b -507 1049 -493 931 -511 982 l -389 1049 b -367 972 -392 1015 -385 990 b -296 944 -349 954 -325 944 b -225 971 -268 944 -244 953 b -181 1049 -204 988 -190 1014 l -62 1049 b -149 894 -76 981 -106 929 b -301 840 -192 858 -243 840 b -454 894 -364 840 -414 858 "},"̇":{"ha":0,"x_min":0,"x_max":0,"o":"m -372 878 b -394 933 -387 893 -394 911 b -364 1004 -394 960 -385 983 b -294 1035 -343 1025 -321 1035 b -237 1013 -271 1035 -253 1028 b -214 956 -222 997 -214 978 b -244 885 -214 929 -224 906 b -314 854 -265 864 -287 854 b -372 878 -337 854 -357 863 "},"̈":{"ha":0,"x_min":0,"x_max":0,"o":"m -512 878 b -535 933 -528 893 -535 911 b -504 1004 -535 960 -525 983 b -435 1035 -483 1025 -461 1035 b -378 1013 -411 1035 -393 1028 b -354 956 -362 997 -354 978 b -385 885 -354 929 -364 906 b -454 854 -406 864 -428 854 b -512 878 -478 854 -497 863 m -235 878 b -257 933 -250 893 -257 911 b -226 1004 -257 960 -247 983 b -157 1035 -206 1025 -183 1035 b -100 1013 -133 1035 -115 1028 b -76 956 -85 997 -76 978 b -107 885 -76 929 -86 906 b -176 854 -128 864 -150 854 b -235 878 -200 854 -219 863 "},"̊":{"ha":0,"x_min":0,"x_max":0,"o":"m -411 843 b -449 935 -436 868 -449 899 b -403 1051 -449 981 -433 1019 b -289 1097 -372 1082 -335 1097 b -196 1060 -251 1097 -221 1085 b -157 968 -169 1035 -157 1004 b -203 853 -157 922 -172 883 b -317 806 -233 821 -271 806 b -411 843 -354 806 -385 818 m -260 908 b -240 960 -247 921 -240 939 b -257 999 -240 975 -246 988 b -296 1014 -267 1008 -281 1014 b -346 994 -317 1014 -333 1007 b -365 943 -358 982 -365 964 b -350 906 -365 928 -360 915 b -310 889 -339 894 -325 889 b -260 908 -289 889 -272 896 "},"̋":{"ha":0,"x_min":0,"x_max":0,"o":"m -583 840 l -417 1049 l -256 1049 l -461 840 m -356 840 l -189 1049 l -28 1049 l -233 840 "},"̌":{"ha":0,"x_min":0,"x_max":0,"o":"m -369 840 l -515 1056 l -385 1056 l -315 944 l -308 944 l -197 1056 l -50 1056 l -279 840 "},"̒":{"ha":0,"x_min":0,"x_max":0,"o":"m -439 840 l -289 1076 l -165 1076 l -274 840 "},"̦":{"ha":0,"x_min":0,"x_max":0,"o":"m -671 -354 l -562 -118 l -397 -118 l -547 -354 "},"̧":{"ha":0,"x_min":0,"x_max":0,"o":"m -500 -53 b -432 -92 -471 -60 -447 -72 b -407 -158 -415 -111 -407 -133 b -453 -267 -407 -204 -422 -240 b -571 -306 -482 -293 -522 -306 l -662 -306 l -643 -208 l -586 -208 b -535 -197 -562 -208 -546 -204 b -518 -164 -524 -189 -518 -178 b -575 -125 -518 -137 -537 -125 l -614 -125 l -601 -62 l -535 38 l -465 4 l -500 -53 "},"̨":{"ha":0,"x_min":0,"x_max":0,"o":"m -462 -306 b -592 -268 -518 -306 -561 -293 b -636 -172 -621 -243 -636 -211 b -447 24 -636 -82 -574 -17 l -372 0 b -485 -65 -424 -22 -461 -44 b -518 -142 -507 -86 -518 -112 b -497 -185 -518 -158 -511 -172 b -442 -201 -483 -196 -465 -201 l -411 -201 l -432 -306 l -462 -306 "},"Ω":{"ha":833,"x_min":0,"x_max":0,"o":"m 78 132 l 197 132 b 86 301 151 179 114 236 b 43 521 57 367 43 440 b 93 769 43 617 60 699 b 232 931 125 840 172 893 b 439 986 292 968 360 986 b 647 931 518 986 588 968 b 786 769 707 893 753 840 b 835 521 818 699 835 617 b 793 301 835 440 821 367 b 681 132 764 236 726 179 l 800 132 l 800 0 l 481 0 l 481 139 b 619 293 540 176 588 228 b 668 514 651 357 668 431 b 639 689 668 582 658 640 b 558 801 619 738 593 775 b 439 840 524 828 483 840 b 321 801 394 840 356 828 b 239 689 286 775 258 738 b 210 514 219 640 210 582 b 258 293 210 431 226 357 b 397 139 290 228 338 176 l 397 0 l 78 0 "},"Ѐ":{"ha":833,"x_min":0,"x_max":0,"o":"m 819 806 l 356 806 l 311 576 l 747 576 l 715 410 l 279 410 l 232 167 l 710 167 l 678 0 l 13 0 l 201 972 l 853 972 m 481 1063 l 363 1271 l 517 1271 l 600 1063 "},"Ё":{"ha":833,"x_min":0,"x_max":0,"o":"m 819 806 l 356 806 l 311 576 l 747 576 l 715 410 l 279 410 l 232 167 l 710 167 l 678 0 l 13 0 l 201 972 l 853 972 m 360 1100 b 336 1156 344 1115 336 1133 b 367 1226 336 1182 346 1206 b 436 1257 388 1247 410 1257 b 494 1235 460 1257 479 1250 b 517 1178 510 1219 517 1200 b 486 1107 517 1151 507 1128 b 417 1076 465 1086 443 1076 b 360 1100 393 1076 375 1085 m 638 1100 b 614 1156 622 1115 614 1133 b 644 1226 614 1182 624 1206 b 714 1257 665 1247 688 1257 b 772 1235 738 1257 757 1250 b 794 1178 788 1219 794 1200 b 764 1107 794 1151 785 1128 b 694 1076 743 1086 721 1076 b 638 1100 671 1076 653 1085 "},"Ђ":{"ha":833,"x_min":0,"x_max":0,"o":"m 372 56 l 400 56 b 506 93 440 56 476 68 b 571 190 535 118 556 150 b 593 317 586 231 593 272 b 554 419 593 363 581 397 b 451 451 528 440 493 451 b 353 431 415 451 382 444 l 269 0 l 82 0 l 238 806 l 64 806 l 97 972 l 681 972 l 647 806 l 425 806 l 385 601 b 500 618 425 613 463 618 b 706 546 586 618 654 594 b 782 340 757 497 782 428 b 736 113 782 257 767 181 b 601 -51 704 44 660 -11 b 394 -111 542 -92 474 -111 l 340 -111 "},"Ѓ":{"ha":833,"x_min":0,"x_max":0,"o":"m 40 0 l 229 972 l 888 972 l 833 694 l 674 694 l 694 806 l 383 806 l 228 0 m 490 1063 l 657 1271 l 821 1271 l 619 1063 "},"Є":{"ha":833,"x_min":0,"x_max":0,"o":"m 796 306 b 633 69 758 203 704 124 b 386 -14 563 14 481 -14 b 136 86 279 -14 196 19 b 46 361 76 151 46 243 b 104 688 46 483 65 592 b 265 908 142 782 196 856 b 504 986 335 960 414 986 b 739 903 601 986 679 958 b 842 667 797 846 832 768 l 654 667 b 489 819 635 768 579 819 b 353 751 439 819 393 797 b 260 569 313 706 281 644 l 554 569 l 525 417 l 235 417 b 233 368 233 406 233 389 b 278 206 233 294 249 240 b 393 153 307 171 344 153 b 594 306 475 153 543 204 "},"Ѕ":{"ha":833,"x_min":0,"x_max":0,"o":"m 119 68 b 18 292 51 122 18 196 l 206 292 b 264 192 210 251 229 218 b 393 153 299 165 342 153 b 526 192 446 153 490 165 b 581 288 563 217 581 249 b 540 354 581 317 567 339 b 410 406 513 369 469 388 b 267 460 351 424 304 442 b 169 538 229 478 196 503 b 129 667 143 571 129 614 b 174 833 129 729 144 785 b 299 946 203 882 244 919 b 483 986 353 972 414 986 b 733 911 589 986 672 961 b 824 701 793 860 824 790 l 636 701 b 590 786 636 735 621 763 b 476 819 560 808 522 819 b 363 785 431 819 392 808 b 317 697 332 761 317 732 b 360 628 317 668 331 644 b 492 571 388 610 432 592 b 635 515 550 551 597 533 b 729 439 671 497 703 471 b 768 313 756 406 768 364 b 722 142 768 247 753 190 b 592 28 692 93 649 54 b 393 -14 535 0 468 -14 b 119 68 278 -14 188 14 "},"І":{"ha":833,"x_min":0,"x_max":0,"o":"m 54 0 l 86 167 l 281 167 l 404 806 l 210 806 l 243 972 l 825 972 l 792 806 l 592 806 l 468 167 l 668 167 l 636 0 "},"Ї":{"ha":833,"x_min":0,"x_max":0,"o":"m 54 0 l 86 167 l 281 167 l 404 806 l 210 806 l 243 972 l 825 972 l 792 806 l 592 806 l 468 167 l 668 167 l 636 0 m 364 1100 b 340 1156 349 1115 340 1133 b 371 1226 340 1182 350 1206 b 440 1257 392 1247 414 1257 b 499 1235 464 1257 483 1250 b 521 1178 514 1219 521 1200 b 490 1107 521 1151 511 1128 b 421 1076 469 1086 447 1076 b 364 1100 397 1076 379 1085 m 642 1100 b 618 1156 626 1115 618 1133 b 649 1226 618 1182 628 1206 b 718 1257 669 1247 692 1257 b 776 1235 742 1257 761 1250 b 799 1178 792 1219 799 1200 b 768 1107 799 1151 789 1128 b 699 1076 747 1086 725 1076 b 642 1100 675 1076 657 1085 "},"Ј":{"ha":833,"x_min":0,"x_max":0,"o":"m 108 61 b 22 299 51 111 22 190 l 208 299 b 247 190 208 251 221 215 b 349 153 272 165 306 153 b 521 333 440 153 497 213 l 613 806 l 300 806 l 333 972 l 833 972 l 703 304 b 581 68 682 201 642 122 b 346 -14 518 14 440 -14 b 108 61 244 -14 165 11 "},"Љ":{"ha":833,"x_min":0,"x_max":0,"o":"m 581 604 b 751 536 651 604 708 582 b 815 356 794 490 815 429 b 776 176 815 290 803 231 b 665 47 750 122 714 79 b 499 0 617 15 561 0 l 285 0 l 442 813 l 350 813 l 294 522 b 213 197 268 382 240 274 b 115 35 185 121 153 67 b -28 -14 78 3 29 -14 l -81 -14 l -43 181 l -36 181 b 29 214 -11 181 11 192 b 79 325 47 236 64 274 b 129 539 94 376 111 447 l 213 972 l 646 972 l 576 604 l 581 604 m 518 160 b 613 213 556 160 588 178 b 649 343 636 247 649 290 b 625 418 649 375 640 400 b 558 444 608 436 586 444 l 546 444 l 492 160 l 518 160 "},"Њ":{"ha":833,"x_min":0,"x_max":0,"o":"m 581 604 b 751 536 651 604 708 582 b 815 356 794 490 815 429 b 776 176 815 290 803 231 b 665 47 750 122 714 79 b 499 0 617 15 561 0 l 290 0 l 376 444 l 251 444 l 165 0 l -8 0 l 181 972 l 354 972 l 283 604 l 408 604 l 479 972 l 653 972 l 581 604 m 518 160 b 613 213 556 160 588 178 b 649 343 636 247 649 290 b 625 418 649 375 640 400 b 560 444 610 436 588 444 l 550 444 l 494 160 l 518 160 "},"Ћ":{"ha":833,"x_min":0,"x_max":0,"o":"m 238 806 l 64 806 l 97 972 l 681 972 l 647 806 l 425 806 l 386 601 b 500 618 419 613 457 618 b 708 549 590 618 660 594 b 779 353 756 501 779 436 b 769 256 779 321 776 288 l 721 0 l 533 0 l 585 274 b 592 333 589 299 592 318 b 558 422 592 374 581 403 b 453 451 536 442 501 451 b 353 432 418 451 385 444 l 269 0 l 82 0 "},"Ќ":{"ha":833,"x_min":0,"x_max":0,"o":"m 943 972 l 474 479 l 751 0 l 533 0 l 281 451 l 193 0 l 6 0 l 194 972 l 382 972 l 297 536 l 701 972 m 476 1063 l 643 1271 l 807 1271 l 606 1063 "},"Ѝ":{"ha":833,"x_min":0,"x_max":0,"o":"m 6 0 l 194 972 l 382 972 l 281 451 l 190 236 l 218 236 l 628 972 l 875 972 l 686 0 l 499 0 l 600 521 l 690 736 l 663 736 l 253 0 m 481 1063 l 363 1271 l 517 1271 l 600 1063 "},"Ў":{"ha":833,"x_min":0,"x_max":0,"o":"m 142 0 l 311 272 l 128 972 l 322 972 l 418 569 l 419 438 l 440 438 l 494 569 l 732 972 l 933 972 l 328 0 m 386 1117 b 332 1271 346 1153 328 1204 l 450 1271 b 474 1194 447 1238 456 1213 b 543 1167 492 1176 514 1167 b 615 1193 571 1167 594 1175 b 658 1271 635 1210 649 1236 l 776 1271 b 690 1117 763 1203 733 1151 b 538 1063 647 1081 596 1063 b 386 1117 475 1063 425 1081 "},"Џ":{"ha":833,"x_min":0,"x_max":0,"o":"m 224 -201 l 263 0 l 6 0 l 194 972 l 382 972 l 225 167 l 531 167 l 688 972 l 875 972 l 686 0 l 429 0 l 390 -201 "},"А":{"ha":833,"x_min":0,"x_max":0,"o":"m 568 0 l 551 194 l 238 194 l 146 0 l -51 0 l 429 972 l 651 972 l 754 0 m 315 361 l 539 361 l 515 639 l 525 792 l 497 792 l 446 639 "},"Б":{"ha":833,"x_min":0,"x_max":0,"o":"m 194 972 l 832 972 l 799 806 l 349 806 l 311 611 l 467 611 b 628 578 526 611 581 600 b 738 485 675 556 711 525 b 776 347 764 444 776 399 b 732 168 776 281 761 221 b 608 44 703 115 661 74 b 429 0 556 15 496 0 l 6 0 m 422 167 b 544 210 474 167 515 181 b 589 326 574 239 589 278 b 549 414 589 364 575 393 b 436 444 522 435 485 444 l 279 444 l 225 167 l 422 167 "},"В":{"ha":833,"x_min":0,"x_max":0,"o":"m 731 417 b 763 299 751 382 763 342 b 722 140 763 238 749 185 b 611 36 696 94 658 60 b 450 0 564 13 510 0 l 6 0 l 194 972 l 533 972 b 740 911 618 972 688 951 b 818 743 792 871 818 814 b 771 583 818 681 803 628 b 653 488 739 538 700 506 b 731 417 683 475 710 451 m 492 569 b 592 608 532 569 565 582 b 631 701 618 635 631 665 b 599 778 631 733 619 760 b 506 806 578 796 546 806 l 349 806 l 303 569 l 492 569 m 429 167 b 536 206 475 167 510 179 b 575 313 563 232 575 267 b 540 389 575 344 564 369 b 443 417 517 407 483 417 l 274 417 l 225 167 l 429 167 "},"Г":{"ha":833,"x_min":0,"x_max":0,"o":"m 40 0 l 229 972 l 888 972 l 833 694 l 674 694 l 694 806 l 383 806 l 228 0 "},"Д":{"ha":833,"x_min":0,"x_max":0,"o":"m 704 167 l 774 167 l 701 -201 l 535 -201 l 574 0 l 88 0 l 49 -201 l -118 -201 l -47 167 l 10 167 b 107 343 47 215 81 274 b 178 611 133 413 157 501 l 249 972 l 861 972 m 640 806 l 403 806 l 365 611 b 297 333 343 494 321 401 b 214 167 274 264 246 208 l 517 167 "},"Е":{"ha":833,"x_min":0,"x_max":0,"o":"m 819 806 l 356 806 l 311 576 l 747 576 l 715 410 l 279 410 l 232 167 l 710 167 l 678 0 l 13 0 l 201 972 l 853 972 "},"Ж":{"ha":833,"x_min":0,"x_max":0,"o":"m 971 972 l 710 488 l 782 0 l 604 0 l 560 486 l 508 486 l 501 319 l 439 0 l 264 0 l 326 319 l 383 486 l 332 486 l 99 0 l -93 0 l 190 525 l 124 972 l 296 972 l 332 528 l 392 528 l 399 694 l 453 972 l 628 972 l 574 694 l 517 528 l 576 528 l 785 972 "},"З":{"ha":833,"x_min":0,"x_max":0,"o":"m 119 67 b 19 292 53 119 19 194 l 207 292 b 265 189 211 247 231 213 b 397 153 300 165 343 153 b 525 192 453 153 496 165 b 568 292 554 218 568 251 b 524 371 568 322 553 349 b 394 403 493 392 450 403 l 335 403 l 367 569 l 475 569 b 592 607 524 569 563 582 b 635 701 621 631 635 663 b 592 786 635 735 621 763 b 468 819 563 808 522 819 b 356 782 425 819 388 807 b 290 681 324 757 301 724 l 103 681 b 231 903 124 774 165 847 b 475 986 296 958 376 986 b 665 954 549 986 613 975 b 783 864 717 932 757 901 b 822 736 810 826 822 783 b 774 581 822 678 806 626 b 635 478 740 535 694 501 b 726 399 676 456 707 429 b 756 285 746 367 756 329 b 713 133 756 228 742 178 b 588 26 683 88 642 53 b 394 -14 533 -1 468 -14 b 119 67 278 -14 186 13 "},"И":{"ha":833,"x_min":0,"x_max":0,"o":"m 6 0 l 194 972 l 382 972 l 281 451 l 190 236 l 218 236 l 628 972 l 875 972 l 686 0 l 499 0 l 600 521 l 690 736 l 663 736 l 253 0 "},"Й":{"ha":833,"x_min":0,"x_max":0,"o":"m 6 0 l 194 972 l 382 972 l 281 451 l 190 236 l 218 236 l 628 972 l 875 972 l 686 0 l 499 0 l 600 521 l 690 736 l 663 736 l 253 0 m 393 1117 b 339 1271 353 1153 335 1204 l 457 1271 b 481 1194 454 1238 463 1213 b 550 1167 499 1176 521 1167 b 622 1193 578 1167 601 1175 b 665 1271 642 1210 656 1236 l 783 1271 b 697 1117 769 1203 740 1151 b 544 1063 654 1081 603 1063 b 393 1117 482 1063 432 1081 "},"К":{"ha":833,"x_min":0,"x_max":0,"o":"m 943 972 l 474 479 l 751 0 l 533 0 l 281 451 l 193 0 l 6 0 l 194 972 l 382 972 l 297 536 l 701 972 "},"Л":{"ha":833,"x_min":0,"x_max":0,"o":"m -25 181 l 1 181 b 75 214 29 181 54 192 b 135 331 96 235 115 274 b 193 569 153 386 172 465 l 274 972 l 874 972 l 685 0 l 497 0 l 654 806 l 428 806 l 375 533 b 288 200 347 389 318 278 b 174 35 256 122 218 67 b -3 -14 128 3 69 -14 l -64 -14 "},"М":{"ha":833,"x_min":0,"x_max":0,"o":"m 6 0 l 194 972 l 403 972 l 450 590 l 457 590 l 653 972 l 875 972 l 686 0 l 499 0 l 579 417 l 711 736 l 683 736 l 443 264 l 351 264 l 294 736 l 267 736 l 274 417 l 193 0 "},"Н":{"ha":833,"x_min":0,"x_max":0,"o":"m 686 972 l 874 972 l 685 0 l 497 0 l 576 410 l 272 410 l 193 0 l 6 0 l 194 972 l 382 972 l 306 576 l 610 576 "},"О":{"ha":833,"x_min":0,"x_max":0,"o":"m 133 83 b 40 361 71 147 40 240 b 96 679 40 478 58 583 b 254 904 132 774 185 849 b 499 986 322 958 404 986 b 747 890 603 986 685 954 b 839 611 808 825 839 732 b 785 294 839 494 821 389 b 626 69 747 199 694 124 b 381 -14 557 14 475 -14 b 133 83 276 -14 194 18 m 521 214 b 617 378 561 254 593 308 b 651 604 640 446 651 522 b 610 764 651 672 638 726 b 492 819 582 801 543 819 b 360 760 443 819 400 800 b 264 596 319 719 288 664 b 228 368 240 526 228 450 b 269 210 228 300 242 247 b 388 153 297 172 336 153 b 521 214 436 153 481 174 "},"П":{"ha":833,"x_min":0,"x_max":0,"o":"m 6 0 l 194 972 l 874 972 l 685 0 l 497 0 l 653 806 l 350 806 l 193 0 "},"Р":{"ha":833,"x_min":0,"x_max":0,"o":"m 194 972 l 539 972 b 704 933 601 972 657 960 b 814 829 751 907 788 872 b 851 683 839 785 851 736 b 803 493 851 614 835 550 b 671 356 771 435 726 389 b 486 306 615 322 554 306 l 251 306 l 193 0 l 6 0 m 474 472 b 569 499 508 472 540 481 b 639 568 599 515 621 539 b 664 667 656 597 664 631 b 622 767 664 707 650 740 b 504 806 593 793 554 806 l 349 806 l 285 472 l 474 472 "},"С":{"ha":833,"x_min":0,"x_max":0,"o":"m 138 83 b 44 361 75 147 44 240 b 100 678 44 476 63 582 b 258 903 136 772 189 847 b 503 986 326 958 408 986 b 739 901 601 986 681 958 b 840 667 797 844 831 765 l 653 667 b 488 819 633 768 578 819 b 360 758 442 819 399 799 b 267 593 321 718 290 663 b 232 368 243 524 232 449 b 276 206 232 294 247 240 b 392 153 306 171 343 153 b 593 306 474 153 542 204 l 794 306 b 638 72 760 207 707 129 b 385 -14 567 15 483 -14 b 138 83 281 -14 199 18 "},"Т":{"ha":833,"x_min":0,"x_max":0,"o":"m 256 0 l 411 806 l 286 806 l 257 653 l 97 653 l 160 972 l 910 972 l 847 653 l 688 653 l 717 806 l 599 806 l 443 0 "},"У":{"ha":833,"x_min":0,"x_max":0,"o":"m 142 0 l 311 272 l 128 972 l 322 972 l 418 569 l 419 438 l 440 438 l 494 569 l 732 972 l 933 972 l 328 0 "},"Ф":{"ha":833,"x_min":0,"x_max":0,"o":"m 599 881 b 776 782 672 874 732 842 b 843 561 821 722 843 649 b 797 335 843 479 828 404 b 664 167 765 264 721 208 b 461 104 606 125 538 104 l 449 104 l 425 -14 l 258 -14 l 282 106 b 104 204 207 113 147 144 b 38 425 60 263 38 336 b 85 653 38 507 53 582 b 218 819 115 722 160 778 b 419 882 275 861 343 882 l 432 882 l 453 986 l 619 986 l 599 881 m 242 315 b 313 265 257 286 281 269 l 401 722 l 393 722 b 299 678 356 722 325 707 b 239 564 272 647 251 610 b 218 431 225 518 218 474 b 242 315 218 382 226 343 m 488 264 b 583 310 525 264 557 279 b 643 422 610 339 629 376 b 663 556 656 468 663 513 b 639 674 663 606 654 644 b 568 721 624 701 600 717 l 479 264 l 488 264 "},"Х":{"ha":833,"x_min":0,"x_max":0,"o":"m -44 0 l 338 500 l 158 972 l 363 972 l 436 715 l 440 604 l 468 604 l 514 715 l 688 972 l 908 972 l 546 500 l 733 0 l 526 0 l 444 285 l 443 396 l 415 396 l 372 285 l 179 0 "},"Ц":{"ha":833,"x_min":0,"x_max":0,"o":"m 536 -201 l 575 0 l -1 0 l 188 972 l 375 972 l 218 167 l 517 167 l 674 972 l 861 972 l 704 167 l 774 167 l 703 -201 "},"Ч":{"ha":833,"x_min":0,"x_max":0,"o":"m 547 294 b 392 271 489 279 438 271 b 168 349 296 271 221 297 b 89 560 115 400 89 469 b 99 660 89 594 92 628 l 160 972 l 347 972 l 281 631 b 275 576 276 613 275 594 b 315 474 275 531 289 497 b 435 438 342 450 382 438 b 581 461 488 438 536 446 l 679 972 l 867 972 l 678 0 l 490 0 l 547 294 "},"Ш":{"ha":833,"x_min":0,"x_max":0,"o":"m -8 0 l 181 972 l 347 972 l 190 167 l 301 167 l 458 972 l 611 972 l 454 167 l 565 167 l 722 972 l 889 972 l 700 0 "},"Щ":{"ha":833,"x_min":0,"x_max":0,"o":"m 557 -201 l 596 0 l -15 0 l 174 972 l 340 972 l 183 167 l 294 167 l 451 972 l 604 972 l 447 167 l 558 167 l 715 972 l 882 972 l 725 167 l 794 167 l 724 -201 "},"Ъ":{"ha":833,"x_min":0,"x_max":0,"o":"m 232 806 l 86 806 l 118 972 l 451 972 l 390 653 l 458 653 b 701 576 560 653 642 628 b 792 371 761 525 792 457 b 746 181 792 300 776 238 b 618 49 714 124 672 81 b 433 0 564 17 501 0 l 76 0 m 425 167 b 556 218 479 167 524 183 b 604 349 588 253 604 296 b 560 450 604 392 589 426 b 432 486 529 474 486 486 l 357 486 l 296 167 l 425 167 "},"Ы":{"ha":833,"x_min":0,"x_max":0,"o":"m 289 639 b 471 563 364 635 425 608 b 540 383 517 517 540 457 b 500 185 540 308 526 242 b 385 49 472 126 433 81 b 217 0 336 17 279 0 l -15 0 l 172 972 l 353 972 l 289 639 m 714 972 l 894 972 l 707 0 l 526 0 m 239 167 b 332 222 278 167 308 185 b 367 371 356 260 367 308 b 271 472 367 439 335 472 l 256 472 l 197 167 l 239 167 "},"Ь":{"ha":833,"x_min":0,"x_max":0,"o":"m 194 972 l 382 972 l 319 653 l 450 653 b 694 576 551 653 633 628 b 785 371 754 525 785 457 b 740 182 785 301 769 239 b 613 49 710 125 667 81 b 426 0 558 17 496 0 l 6 0 m 418 167 b 549 218 472 167 517 183 b 597 349 581 253 597 296 b 556 449 597 389 583 422 b 425 486 526 474 483 486 l 288 486 l 225 167 l 418 167 "},"Э":{"ha":833,"x_min":0,"x_max":0,"o":"m 740 890 b 832 611 801 825 832 732 b 778 294 832 494 814 389 b 619 69 740 199 688 124 b 374 -14 550 14 468 -14 b 138 72 275 -14 196 15 b 36 306 79 129 46 207 l 224 306 b 388 153 243 204 297 153 b 529 226 442 153 489 178 b 621 417 569 275 600 339 l 325 417 l 354 569 l 643 569 b 644 604 644 576 644 589 b 601 767 644 678 631 732 b 485 819 572 801 533 819 b 283 667 403 819 335 768 l 82 667 b 240 900 117 765 169 843 b 492 986 311 957 394 986 b 740 890 596 986 678 954 "},"Ю":{"ha":833,"x_min":0,"x_max":0,"o":"m 800 919 b 854 701 836 875 854 803 b 815 386 854 603 842 497 b 699 103 789 274 750 179 b 508 -14 646 25 582 -14 b 356 60 440 -14 390 11 b 303 274 321 108 303 181 b 311 417 303 319 306 367 l 232 417 l 151 0 l -22 0 l 167 972 l 340 972 l 263 569 l 338 569 b 460 868 365 690 406 789 b 653 986 513 947 576 986 b 800 919 715 986 764 964 m 596 256 b 657 519 621 332 642 421 b 681 739 672 618 681 690 b 671 810 681 771 678 794 b 636 832 664 825 651 832 b 556 717 607 832 581 793 b 493 454 529 640 508 553 b 469 233 478 356 469 282 b 479 163 469 200 472 176 b 513 140 486 147 497 140 b 596 256 542 140 569 179 "},"Я":{"ha":833,"x_min":0,"x_max":0,"o":"m 685 0 l 497 0 l 565 354 l 475 354 l 174 0 l -49 0 l 275 378 b 151 476 224 399 183 432 b 104 622 119 519 104 568 b 153 803 104 689 121 749 b 281 928 185 856 226 897 b 458 972 335 957 393 972 l 874 972 m 653 806 l 451 806 b 338 760 406 806 367 790 b 292 636 307 729 292 688 b 326 543 292 597 303 567 b 426 507 350 519 383 507 l 594 507 "},"а":{"ha":833,"x_min":0,"x_max":0,"o":"m 128 65 b 58 278 82 118 58 189 b 101 518 58 365 72 446 b 224 688 131 589 171 646 b 410 750 276 729 339 750 b 614 660 489 750 557 719 l 621 660 l 649 736 l 794 736 l 650 0 l 504 0 l 506 76 l 499 76 b 313 -14 451 17 389 -14 b 128 65 235 -14 174 13 m 467 176 b 539 279 497 201 521 236 b 565 424 557 322 565 371 b 528 551 565 478 553 521 b 425 597 501 582 468 597 b 324 560 388 597 354 585 b 251 457 293 535 269 500 b 225 313 233 414 225 365 b 264 185 225 258 238 215 b 365 139 289 154 322 139 b 467 176 403 139 436 151 "},"б":{"ha":833,"x_min":0,"x_max":0,"o":"m 151 79 b 65 335 94 140 65 225 b 128 671 65 461 86 574 b 304 896 169 767 228 842 b 568 975 381 949 468 975 b 849 1014 688 975 781 988 l 821 856 b 711 832 790 846 754 838 b 579 824 668 826 625 824 b 386 771 503 824 439 806 b 275 625 333 736 296 688 l 282 625 b 382 679 317 650 350 668 b 486 694 414 689 449 694 b 707 614 581 694 654 668 b 785 396 758 560 785 486 b 733 183 785 317 768 246 b 592 39 699 121 651 74 b 390 -14 532 4 464 -14 b 151 79 288 -14 208 17 m 515 171 b 592 257 547 192 574 219 b 618 382 610 294 618 336 b 572 510 618 436 603 479 b 440 556 540 540 497 556 b 331 525 400 556 363 546 b 253 438 297 504 271 475 b 225 313 235 400 225 358 b 272 185 225 258 240 215 b 404 139 304 154 347 139 b 515 171 444 139 482 150 "},"в":{"ha":833,"x_min":0,"x_max":0,"o":"m 597 372 b 700 331 639 372 674 358 b 740 222 726 303 740 267 b 701 106 740 179 728 140 b 589 19 675 69 638 40 b 417 -14 540 -3 482 -14 b 161 67 308 -14 224 13 b 67 299 99 119 67 197 b 119 542 67 392 85 474 b 263 697 154 610 203 661 b 464 750 322 732 390 750 b 619 722 525 750 576 740 b 715 646 663 703 694 678 b 747 542 736 614 747 579 b 707 431 747 499 733 461 b 597 375 681 400 643 382 l 597 372 m 469 431 b 553 454 507 431 535 439 b 581 514 571 469 581 489 b 551 575 581 540 571 560 b 461 597 532 590 501 597 b 325 556 406 597 360 583 b 249 431 289 526 264 485 l 469 431 m 535 163 b 574 229 561 178 574 200 b 543 290 574 256 564 275 b 442 313 522 306 488 313 l 233 313 l 233 306 b 282 182 233 251 250 211 b 419 139 314 153 360 139 b 535 163 469 139 508 147 "},"г":{"ha":833,"x_min":0,"x_max":0,"o":"m 210 13 b 92 85 158 29 119 53 b 50 194 64 117 50 153 b 101 353 50 264 67 317 b 224 422 136 388 176 411 b 401 446 269 433 329 442 b 507 458 447 450 482 454 b 568 481 531 463 551 469 b 592 528 583 490 592 507 b 553 579 592 550 579 567 b 439 597 526 592 488 597 b 349 578 399 597 369 590 b 300 514 328 564 311 543 l 126 514 b 233 689 140 589 176 647 b 446 750 290 729 361 750 b 622 722 515 750 574 740 b 729 646 669 703 706 678 b 765 542 753 614 765 579 b 715 400 765 479 749 432 b 597 332 682 367 643 344 b 419 301 551 319 492 310 b 271 275 351 294 303 285 b 224 215 239 265 224 244 b 267 161 224 193 238 175 b 383 139 294 146 333 139 b 496 169 429 139 467 149 b 550 243 525 189 543 214 l 724 243 b 668 113 718 194 700 151 b 544 21 636 74 594 43 b 383 -14 494 -3 440 -14 b 210 13 318 -14 260 -6 "},"д":{"ha":833,"x_min":0,"x_max":0,"o":"m 192 25 b 76 132 142 50 103 86 b 36 292 50 178 36 232 b 85 496 36 365 53 433 b 215 642 117 557 160 606 b 397 694 269 676 331 694 b 647 593 507 694 590 661 l 654 593 b 626 708 654 636 644 674 b 550 790 608 743 582 769 b 439 819 517 810 479 819 b 321 792 397 819 358 810 l 256 924 b 344 960 279 939 308 950 b 453 972 379 968 415 972 b 706 876 563 972 646 940 b 793 590 764 813 793 717 b 739 261 793 461 775 351 b 589 56 703 171 653 101 b 369 -14 525 10 451 -14 b 192 25 301 -14 242 -1 m 492 168 b 569 253 524 188 550 215 b 599 382 589 290 599 333 b 551 511 599 438 583 481 b 419 556 519 540 475 556 b 313 526 381 556 344 546 b 233 442 279 507 253 479 b 203 313 213 404 203 361 b 251 185 203 258 219 215 b 383 139 283 154 326 139 b 492 168 422 139 458 149 "},"е":{"ha":833,"x_min":0,"x_max":0,"o":"m 772 369 b 763 313 769 344 767 325 l 221 313 b 272 183 225 256 242 213 b 399 139 301 154 344 139 b 493 163 433 139 464 147 b 561 222 522 178 544 197 l 728 222 b 592 47 696 146 651 88 b 382 -14 532 7 461 -14 b 219 22 322 -14 268 -3 b 103 128 171 46 132 81 b 60 299 74 175 60 232 b 113 542 60 392 78 474 b 256 697 147 610 196 661 b 457 750 315 732 383 750 b 629 710 524 750 581 736 b 738 599 676 682 713 644 b 775 444 763 553 775 501 b 772 369 775 419 774 394 m 615 431 b 567 553 614 482 597 522 b 440 597 536 582 494 597 b 314 553 393 597 351 582 b 235 431 276 522 250 482 l 615 431 "},"ж":{"ha":833,"x_min":0,"x_max":0,"o":"m 899 736 l 653 361 l 761 0 l 588 0 l 525 354 l 472 354 l 474 215 l 431 0 l 272 0 l 315 215 l 369 354 l 317 354 l 115 0 l -72 0 l 200 393 l 108 736 l 275 736 l 325 396 l 378 396 l 376 535 l 417 736 l 575 736 l 535 535 l 481 396 l 533 396 l 717 736 "}}}
